<?xml version="1.0" encoding="UTF-8" standalone="no"?>
<svg xmlns="http://www.w3.org/2000/svg" width="2000" height="900" viewBox="0 0 2000 900">
    <defs>
        <linearGradient id="Gradient-0" x1="0.5" y1="0" x2="0.5" y2="1">
            <stop offset="0" stop-color="#b573b5"/>
            <stop offset="0.246313" stop-color="#76d4e6"/>
            <stop offset="0.679389" stop-color="#e0cdde"/>
            <stop offset="1" stop-color="#75dae9"/>
        </linearGradient>
        <linearGradient id="Gradient-1" x1="0.5" y1="0.5" x2="0.5" y2="1">
            <stop offset="0" stop-color="#424242" stop-opacity="0.3"/>
            <stop offset="1" stop-color="#d8d8d8"/>
        </linearGradient>
        <linearGradient id="Gradient-2" x1="0.5" y1="0.5" x2="0.5" y2="1">
            <stop offset="0" stop-color="#424242" stop-opacity="0.3"/>
            <stop offset="1" stop-color="#bfbfbf"/>
        </linearGradient>
        <linearGradient id="Gradient-3" x1="0.5" y1="0.5" x2="0.5" y2="1">
            <stop offset="0" stop-color="#403d40" stop-opacity="0.3"/>
            <stop offset="1" stop-color="#d8d8d8"/>
        </linearGradient>
        <linearGradient id="Gradient-4" x1="0.5" y1="1" x2="0.5" y2="0.0091046">
            <stop offset="0" stop-color="#d8d8d8"/>
            <stop offset="1" stop-color="#848188"/>
        </linearGradient>
        <linearGradient id="Gradient-5" x1="0.5" y1="0" x2="0.5" y2="1">
            <stop offset="0" stop-color="#c8c8c8"/>
            <stop offset="1" stop-color="#93d2e4"/>
        </linearGradient>
    </defs>
    <style>
@keyframes upper_rectangle_3_fo { 0% { fill-opacity: 1; } 50% { fill-opacity: 0.5; } 100% { fill-opacity: 1; } }
@keyframes upper_rectangle_2_fo { 0% { fill-opacity: 1; } 50% { fill-opacity: 0.5; } 100% { fill-opacity: 1; } }
@keyframes lower_rectangle_6_fo { 0% { fill-opacity: 1; } 50% { fill-opacity: 0.5; } 100% { fill-opacity: 1; } }
@keyframes lower_rectangle_5_fo { 0% { fill-opacity: 1; } 50% { fill-opacity: 0.5; } 100% { fill-opacity: 1; } }
@keyframes lower_rectangle_4_fo { 0% { fill-opacity: 1; } 50% { fill-opacity: 0.5; } 100% { fill-opacity: 1; } }
@keyframes lower_rectangle_3_fo { 0% { fill-opacity: 1; } 50% { fill-opacity: 0.5; } 100% { fill-opacity: 1; } }
@keyframes lower_rectangle_2_fo { 0% { fill-opacity: 1; } 50% { fill-opacity: 0.5; } 100% { fill-opacity: 1; } }
@keyframes lower_rectangle_1_fo { 0% { fill-opacity: 1; } 50% { fill-opacity: 0.5; } 100% { fill-opacity: 1; } }
@keyframes envelope_mid_fo { 0% { fill-opacity: 1; } 50% { fill-opacity: 0.2; } 100% { fill-opacity: 1; } }
@keyframes envelope_top_fo { 0% { fill-opacity: 1; } 50% { fill-opacity: 0.2; } 100% { fill-opacity: 1; } }
@keyframes envelope_bottom_fo { 0% { fill-opacity: 1; } 50% { fill-opacity: 0.2; } 100% { fill-opacity: 1; } }
    </style>
    <rect width="2000" height="900" stroke="none" fill="#cedee7" stroke-width="5" stroke-linecap="square" transform="translate(1050,450) translate(-1050,-450)"/>
    <title>blastula_hex_logo</title>
    <desc>Created with Sketch.</desc>
    <g id="blastula" stroke="none" stroke-width="1" fill="none" fill-rule="evenodd" transform="translate(57,25.5)">
        <g id="blastula_hex_logo">
            <path id="hex_outside" fill="#424242" d="M706.338,195.45L428.538,35.05L368.238,0.25L307.938,35.05L30.1376,195.45L0.837612,212.35L0.837612,636.65L30.1376,653.55L311.338,815.95L368.238,848.75L425.138,815.95L706.338,653.55L735.638,636.65L735.638,212.35Z"/>
            <path id="envelope_hex" fill="url(#Gradient-0)" d="M565.931,534.432L368.644,648.334L171.357,534.432L171.357,306.568L368.644,192.666L565.931,306.568Z"/>
            <path id="upper_rectangle_3" fill="url(#Gradient-1)" d="M368.72,34.4981L705.687,226.834L368.72,419.834L30.8996,226.834Z" fill-opacity="1" style="animation: 6s linear infinite both upper_rectangle_3_fo;"/>
            <path id="upper_rectangle_2" fill="url(#Gradient-2)" d="M368.72,34.4981L705.687,226.834L368.72,419.834L30.8996,226.834Z" fill-opacity="1" style="animation: 6s linear infinite both upper_rectangle_2_fo;"/>
            <path id="lower_rectangle_6" fill="url(#Gradient-1)" d="M369.567,419.834L706.533,612.17L369.567,805.17L31.746,612.17Z" fill-opacity="1" transform="translate(369.14,612.502) rotate(-180) translate(-369.14,-612.502)" style="animation: 6s linear infinite both lower_rectangle_6_fo;"/>
            <path id="lower_rectangle_5" fill="url(#Gradient-1)" d="M369.567,419.834L706.533,612.17L369.567,805.17L31.746,612.17Z" fill-opacity="1" transform="translate(369.14,612.502) rotate(-180) translate(-369.14,-612.502)" style="animation: 6s linear infinite both lower_rectangle_5_fo;"/>
            <path id="lower_rectangle_4" fill="url(#Gradient-1)" d="M369.567,419.834L706.533,612.17L369.567,805.17L31.746,612.17Z" fill-opacity="1" transform="translate(369.14,612.502) rotate(-180) translate(-369.14,-612.502)" style="animation: 6s linear infinite both lower_rectangle_4_fo;"/>
            <path id="lower_rectangle_3" fill="url(#Gradient-1)" d="M369.567,419.834L706.533,612.17L369.567,805.17L31.746,612.17Z" fill-opacity="1" transform="translate(369.14,612.502) rotate(-180) translate(-369.14,-612.502)" style="animation: 6s linear infinite both lower_rectangle_3_fo;"/>
            <path id="lower_rectangle_2" fill="url(#Gradient-3)" d="M369.567,419.834L706.533,612.17L369.567,805.17L31.746,612.17Z" fill-opacity="1" transform="translate(369.14,612.502) rotate(-180) translate(-369.14,-612.502)" style="animation: 6s linear infinite both lower_rectangle_2_fo;"/>
            <path id="lower_rectangle_1" fill="url(#Gradient-3)" d="M369.567,419.834L706.533,612.17L369.567,805.17L31.746,612.17Z" fill-opacity="1" transform="translate(369.14,612.502) rotate(-180) translate(-369.14,-612.502)" style="animation: 6s linear infinite both lower_rectangle_1_fo;"/>
            <path id="envelope_mid" fill="url(#Gradient-4)" d="M560.808,306.46L369.043,416.295L176.793,306.46Z" fill-opacity="1" transform="translate(737.601,0) scale(-1,1)" style="animation: 6s linear infinite both envelope_mid_fo;"/>
            <path id="envelope_top" fill="url(#Gradient-4)" d="M560.808,196.483L368.569,306.446L176.793,196.483Z" fill-opacity="1" transform="translate(368.8,251.464) scale(1,-1) translate(-368.8,-251.464)" style="animation: 6s linear infinite both envelope_top_fo;"/>
            <path id="envelope_bottom" fill="url(#Gradient-5)" d="M171.002,535.366L368.688,422.141L565.54,535.354Z" fill-opacity="1" style="animation: 6s linear infinite both envelope_bottom_fo;"/>
            <path id="blastula_text" d="M234.637,615.724L234.637,626.636C234.637,643.996,223.229,654.536,209.217,654.536C195.205,654.536,183.797,643.996,183.797,626.636L183.797,564.636C183.797,561.908,186.029,559.676,188.757,559.676C191.485,559.676,193.717,561.908,193.717,564.636L193.717,595.512C198.429,591.172,203.513,588.816,210.209,588.816C223.725,588.816,234.637,599.232,234.637,615.724ZM224.717,627.256L224.717,615.972C224.717,604.688,217.773,598.24,209.217,598.24C200.661,598.24,193.717,605.308,193.717,613.988L193.717,627.256C193.717,638.664,200.661,645.112,209.217,645.112C217.773,645.112,224.717,638.664,224.717,627.256ZM254.663,652.676C251.935,652.676,249.703,650.444,249.703,647.716L249.703,564.636C249.703,561.908,251.935,559.676,254.663,559.676C257.391,559.676,259.623,561.908,259.623,564.636L259.623,647.716C259.623,650.444,257.391,652.676,254.663,652.676ZM307.053,616.84L307.053,613.492C307.053,607.044,304.077,600.1,293.661,600.1L279.773,600.1C277.169,600.1,275.061,597.992,275.061,595.388C275.061,592.784,277.169,590.676,279.773,590.676L293.909,590.676C310.897,590.676,316.973,602.208,316.973,613.74L316.973,632.712C316.973,644.74,307.177,654.536,295.149,654.536C283.741,654.536,273.449,644.244,273.449,632.712C273.449,621.304,282.749,612.004,294.157,612.004C299.365,612.004,303.209,613.616,307.053,616.84ZM307.053,633.332C307.053,626.388,301.473,620.808,294.653,620.808C287.833,620.808,282.253,626.388,282.253,633.332C282.253,640.152,287.833,645.732,294.653,645.732C301.473,645.732,307.053,640.152,307.053,633.332ZM346.299,654.536C340.099,654.536,333.651,651.56,329.931,645.608C329.311,644.616,328.939,643.872,328.939,642.88C328.939,640.648,330.675,638.416,333.775,638.416C335.139,638.416,336.503,639.036,337.495,640.4C339.107,642.632,341.835,645.112,345.431,645.112C352.375,645.112,356.715,640.4,356.715,634.572C356.715,627.628,350.391,625.024,346.547,624.28C336.999,622.42,330.551,615.6,330.551,607.416C330.551,598.24,337.743,590.676,349.151,590.676L353.987,590.676C356.591,590.676,358.699,592.784,358.699,595.388C358.699,597.992,356.591,600.1,353.987,600.1L349.151,600.1C342.951,600.1,340.223,602.952,340.223,607.416C340.223,612.872,346.671,614.36,348.655,614.732C359.691,617.088,366.387,624.652,366.387,634.572C366.387,645.608,357.211,654.536,346.299,654.536ZM400.549,643.252L405.137,643.252C407.741,643.252,409.849,645.36,409.849,647.964C409.849,650.568,407.741,652.676,405.137,652.676L399.681,652.676C387.901,652.676,380.833,645.608,380.833,633.828L380.833,600.1L376.493,600.1C373.889,600.1,371.781,597.992,371.781,595.388C371.781,592.784,373.889,590.676,376.493,590.676L380.833,590.676L380.833,577.532C380.833,574.68,383.065,572.448,385.917,572.448C388.645,572.448,390.753,574.68,390.753,577.408L390.753,590.676L404.889,590.676C407.493,590.676,409.601,592.784,409.601,595.388C409.601,597.992,407.493,600.1,404.889,600.1L390.753,600.1L390.753,633.456C390.753,639.904,393.853,643.252,400.549,643.252ZM426.279,590.676C429.007,590.676,431.239,592.908,431.239,595.636L431.239,627.628C431.239,638.788,438.183,645.112,446.739,645.112C455.295,645.112,462.239,638.788,462.239,627.628L462.239,595.636C462.239,592.908,464.471,590.676,467.199,590.676C469.927,590.676,472.159,592.908,472.159,595.636L472.159,626.636C472.159,643.996,460.751,654.536,446.739,654.536C432.727,654.536,421.319,643.996,421.319,626.636L421.319,595.636C421.319,592.908,423.551,590.676,426.279,590.676ZM492.929,652.676C490.201,652.676,487.969,650.444,487.969,647.716L487.969,564.636C487.969,561.908,490.201,559.676,492.929,559.676C495.657,559.676,497.889,561.908,497.889,564.636L497.889,647.716C497.889,650.444,495.657,652.676,492.929,652.676ZM545.319,616.84L545.319,613.492C545.319,607.044,542.343,600.1,531.927,600.1L518.039,600.1C515.435,600.1,513.327,597.992,513.327,595.388C513.327,592.784,515.435,590.676,518.039,590.676L532.175,590.676C549.163,590.676,555.239,602.208,555.239,613.74L555.239,632.712C555.239,644.74,545.443,654.536,533.415,654.536C522.007,654.536,511.715,644.244,511.715,632.712C511.715,621.304,521.015,612.004,532.423,612.004C537.631,612.004,541.475,613.616,545.319,616.84ZM545.319,633.332C545.319,626.388,539.739,620.808,532.919,620.808C526.099,620.808,520.519,626.388,520.519,633.332C520.519,640.152,526.099,645.732,532.919,645.732C539.739,645.732,545.319,640.152,545.319,633.332Z" fill="#E6E6E6"/>
        </g>
    </g>
    <path d="M0,-34.2481L0,814.252" stroke="#a3a3a3" fill="none" stroke-linecap="square" stroke-width="5" transform="translate(894.5,59.9981)"/>
    <path fill="#363636" stroke="none" d="M21.84,-86.64L10.56,-86.64L10.56,-10.8L10.32,0L21.24,0L21.48,-9.12C22.68,-7.32,24,-5.28,27.36,-3C32.52,0.48,37.92,0.84,40.8,0.84C49.08,0.84,57.12,-2.64,61.92,-9.48C64.92,-13.44,67.68,-19.8,67.68,-31.44C67.68,-44.64,63.6,-50.64,60.6,-54.12C55.08,-60.36,47.52,-61.8,41.52,-61.8C27.84,-61.8,23.4,-54.24,21.84,-51.48ZM55.8,-30.72C55.8,-20.88,52.32,-7.32,38.4,-7.32C21.6,-7.32,21.6,-26.16,21.6,-30.12C21.6,-33.96,21.6,-54.12,38.88,-54.12C54.6,-54.12,55.8,-36.72,55.8,-30.72ZM78.7125,0L89.9925,0L89.9925,-86.52L78.7125,-86.52ZM153.352,0C152.512,-6.12,152.392,-14.16,152.392,-15.12L152.872,-43.92C152.872,-46.68,152.752,-49.56,150.832,-53.16C147.592,-59.28,138.232,-62.04,129.472,-62.04C123.112,-62.04,114.592,-60.6,110.032,-55.56C106.552,-51.48,106.192,-47.28,105.832,-44.16L117.112,-44.16C117.232,-46.56,117.832,-54.36,129.232,-54.36C132.472,-54.36,137.392,-53.4,139.672,-50.4C141.832,-47.76,141.832,-44.52,141.832,-37.08C138.352,-37.32,136.552,-37.44,133.672,-37.44C128.872,-37.44,119.272,-37.08,112.792,-33.48C103.912,-28.32,102.232,-20.64,102.232,-15.84C102.232,-5.88,109.672,1.92,123.472,1.92C128.512,1.92,136.672,0.96,142.072,-9C142.072,-5.88,142.312,-3,143.152,0ZM141.832,-29.28C141.592,-20.88,141.472,-17.52,138.952,-13.44C136.192,-9.24,131.872,-6.96,126.112,-6.96C116.032,-6.96,113.632,-13.56,113.632,-17.4C113.632,-29.64,130.792,-29.64,135.352,-29.64C138.112,-29.64,139.792,-29.52,141.832,-29.28ZM162.351,-17.88C162.231,-3.36,173.631,1.68,185.871,1.68C192.111,1.68,198.471,0.84,203.751,-2.4C208.191,-5.16,211.911,-10.92,211.911,-17.64C211.911,-21.48,210.711,-25.68,207.351,-28.8C203.751,-32.16,200.151,-33.12,183.471,-37.08C180.351,-37.92,174.951,-39.24,174.951,-44.76C174.951,-53.4,185.511,-53.4,187.191,-53.4C191.271,-53.4,199.191,-52.68,198.831,-43.56L210.351,-43.56C210.351,-46.08,210.351,-48.96,208.791,-52.32C205.191,-59.52,194.631,-61.68,187.071,-61.68C173.151,-61.68,163.551,-54.48,163.551,-43.44C163.551,-30.84,174.111,-28.32,186.711,-25.44C195.711,-23.4,199.911,-22.32,199.911,-16.44C199.911,-14.4,199.191,-12.36,197.991,-10.8C195.591,-7.8,192.111,-6.96,187.431,-6.96C176.511,-6.96,174.111,-13.32,174.231,-17.88ZM213.111,-52.2L223.791,-52.2L223.791,-12C223.791,-2.16,228.711,0.84,239.031,0.84C243.111,0.84,246.351,0.48,248.391,0.12L248.391,-8.64C247.431,-8.4,245.271,-8.04,242.991,-8.04C234.951,-8.04,234.951,-13.08,234.951,-16.08L234.951,-52.2L248.391,-52.2L248.391,-60.48L234.951,-60.48L234.951,-76.68L223.791,-73.08L223.791,-60.48L213.111,-60.48ZM255.704,-60.24L255.704,-19.8C255.704,-7.92,262.664,0.6,277.544,0.6C290.504,0.6,294.584,-6.12,296.744,-10.32L296.984,0L308.744,0C308.624,-3.36,308.384,-10.08,308.384,-11.28L308.384,-60.24L296.744,-60.24L296.744,-26.16C296.744,-23.16,296.744,-18.48,294.224,-14.88C290.984,-10.08,285.704,-8.16,280.064,-8.16C268.544,-8.16,267.224,-15.6,267.224,-21.48L267.224,-60.24ZM325.056,0L336.336,0L336.336,-86.52L325.056,-86.52ZM399.696,0C398.856,-6.12,398.736,-14.16,398.736,-15.12L399.216,-43.92C399.216,-46.68,399.096,-49.56,397.176,-53.16C393.936,-59.28,384.576,-62.04,375.816,-62.04C369.456,-62.04,360.936,-60.6,356.376,-55.56C352.896,-51.48,352.536,-47.28,352.176,-44.16L363.456,-44.16C363.576,-46.56,364.176,-54.36,375.576,-54.36C378.816,-54.36,383.736,-53.4,386.016,-50.4C388.176,-47.76,388.176,-44.52,388.176,-37.08C384.696,-37.32,382.896,-37.44,380.016,-37.44C375.216,-37.44,365.616,-37.08,359.136,-33.48C350.256,-28.32,348.576,-20.64,348.576,-15.84C348.576,-5.88,356.016,1.92,369.816,1.92C374.856,1.92,383.016,0.96,388.416,-9C388.416,-5.88,388.656,-3,389.496,0ZM388.176,-29.28C387.936,-20.88,387.816,-17.52,385.296,-13.44C382.536,-9.24,378.216,-6.96,372.456,-6.96C362.376,-6.96,359.976,-13.56,359.976,-17.4C359.976,-29.64,377.136,-29.64,381.696,-29.64C384.456,-29.64,386.136,-29.52,388.176,-29.28Z" transform="translate(958,185.046)"/>
    <path fill="#363636" stroke="none" d="M9.18,-65.16L48.15,-65.16L48.15,-59.49L15.57,-59.49L15.57,-36.18L46.8,-36.18L46.8,-30.51L15.57,-30.51L15.57,-5.67L49.59,-5.67L49.59,0L9.18,0ZM56.1669,-34.02C56.1669,-38.28,57.8469,-41.4,61.2069,-43.38C64.5669,-45.36,68.2569,-46.44,72.2769,-46.62C72.5169,-46.68,72.7719,-46.71,73.0419,-46.71C73.3119,-46.71,73.5969,-46.71,73.8969,-46.71C78.1569,-46.71,81.8169,-45.615,84.8769,-43.425C87.9369,-41.235,89.4669,-37.11,89.4669,-31.05C89.4669,-20.49,89.4819,-13.425,89.5119,-9.855C89.5419,-6.285,89.7069,-3.42,90.0069,-1.26C90.0069,-1.02,90.0219,-0.795,90.0519,-0.585C90.0819,-0.375,90.1269,-0.18,90.1869,0L84.5169,0C84.5169,0,84.5019,-0.015,84.4719,-0.045C84.4419,-0.075,84.4269,-0.12,84.4269,-0.18C84.1269,-1.5,83.9469,-2.73,83.8869,-3.87C83.8269,-5.01,83.7969,-5.58,83.7969,-5.58C82.9569,-4.08,81.8019,-2.835,80.3319,-1.845C78.8619,-0.855,77.3169,-0.12,75.6969,0.36C74.6169,0.72,73.5519,0.99,72.5019,1.17C71.4519,1.35,70.5069,1.44,69.6669,1.44C64.3269,1.44,60.3819,-0.03,57.8319,-2.97C55.2819,-5.91,54.0069,-9.15,54.0069,-12.69C54.3669,-19.05,56.9469,-23.115,61.7469,-24.885C66.5469,-26.655,73.8969,-27.54,83.7969,-27.54C83.7969,-31.08,83.3019,-34.335,82.3119,-37.305C81.3219,-40.275,78.5169,-41.76,73.8969,-41.76C70.3569,-41.76,67.5819,-41.07,65.5719,-39.69C63.5619,-38.31,62.5569,-36.39,62.5569,-33.93ZM83.7969,-22.68C83.4969,-22.62,83.1819,-22.59,82.8519,-22.59C82.5219,-22.59,82.2069,-22.59,81.9069,-22.59C76.5069,-22.59,71.5719,-22.11,67.1019,-21.15C62.6319,-20.19,60.3969,-17.37,60.3969,-12.69C60.3969,-9.57,61.4169,-7.26,63.4569,-5.76C65.4969,-4.26,67.8069,-3.51,70.3869,-3.51C70.6869,-3.51,70.9719,-3.525,71.2419,-3.555C71.5119,-3.585,71.7669,-3.6,72.0069,-3.6C73.2669,-3.72,74.4819,-4.02,75.6519,-4.5C76.8219,-4.98,77.8869,-5.58,78.8469,-6.3C80.4069,-7.5,81.6369,-9.15,82.5369,-11.25C83.4369,-13.35,83.9169,-16.05,83.9769,-19.35C83.9769,-19.83,83.9619,-20.34,83.9319,-20.88C83.9019,-21.42,83.8569,-21.99,83.7969,-22.59ZM100.988,-13.5C101.348,-10.26,102.743,-7.89,105.173,-6.39C107.603,-4.89,110.228,-4.14,113.048,-4.14C116.587,-4.14,119.602,-4.89,122.092,-6.39C124.582,-7.89,125.827,-10.23,125.827,-13.41C125.827,-16.35,124.523,-18.375,121.913,-19.485C119.303,-20.595,116.347,-21.54,113.048,-22.32C112.748,-22.38,112.448,-22.44,112.147,-22.5C111.848,-22.56,111.548,-22.62,111.247,-22.68C107.648,-23.52,104.333,-24.705,101.303,-26.235C98.2725,-27.765,96.7575,-30.57,96.7575,-34.65C96.7575,-37.83,98.0625,-40.635,100.673,-43.065C103.283,-45.495,107.408,-46.71,113.048,-46.71C117.668,-46.71,121.688,-45.975,125.107,-44.505C128.528,-43.035,130.418,-39.99,130.777,-35.37L124.387,-35.46C124.028,-37.5,122.843,-39.165,120.833,-40.455C118.823,-41.745,116.228,-42.39,113.048,-42.39C109.868,-42.39,107.588,-41.895,106.208,-40.905C104.827,-39.915,103.927,-38.85,103.507,-37.71C103.387,-37.29,103.298,-36.885,103.238,-36.495C103.178,-36.105,103.147,-35.73,103.147,-35.37C103.147,-33.15,104.257,-31.545,106.478,-30.555C108.698,-29.565,111.278,-28.71,114.217,-27.99C114.817,-27.81,115.403,-27.66,115.973,-27.54C116.543,-27.42,117.127,-27.27,117.728,-27.09C121.328,-26.13,124.643,-24.78,127.673,-23.04C130.702,-21.3,132.217,-18.3,132.217,-14.04C132.217,-9.12,130.267,-5.31,126.368,-2.61C122.468,0.0900001,118.028,1.44,113.048,1.44C112.208,1.44,111.338,1.395,110.438,1.305C109.538,1.215,108.638,1.08,107.738,0.9C104.798,0.3,102.067,-1.08,99.5475,-3.24C97.0275,-5.4,95.6175,-8.79,95.3175,-13.41ZM138.788,-45.36L144.458,-45.36L144.458,0L138.788,0ZM138.068,-65.16L145.178,-65.16L145.178,-58.14L138.068,-58.14ZM154.535,-65.16L160.205,-65.16L160.205,0L154.535,0ZM163.172,-45.36L170.282,-45.36L185.852,-8.46L200.702,-45.36L207.092,-45.36L181.622,17.01L175.232,17.01L182.342,-0.72ZM234.456,-13.5C234.816,-10.26,236.211,-7.89,238.641,-6.39C241.071,-4.89,243.696,-4.14,246.516,-4.14C250.056,-4.14,253.071,-4.89,255.561,-6.39C258.051,-7.89,259.296,-10.23,259.296,-13.41C259.296,-16.35,257.991,-18.375,255.381,-19.485C252.771,-20.595,249.816,-21.54,246.516,-22.32C246.216,-22.38,245.916,-22.44,245.616,-22.5C245.316,-22.56,245.016,-22.62,244.716,-22.68C241.116,-23.52,237.801,-24.705,234.771,-26.235C231.741,-27.765,230.226,-30.57,230.226,-34.65C230.226,-37.83,231.531,-40.635,234.141,-43.065C236.751,-45.495,240.876,-46.71,246.516,-46.71C251.136,-46.71,255.156,-45.975,258.576,-44.505C261.996,-43.035,263.886,-39.99,264.246,-35.37L257.856,-35.46C257.496,-37.5,256.311,-39.165,254.301,-40.455C252.291,-41.745,249.696,-42.39,246.516,-42.39C243.336,-42.39,241.056,-41.895,239.676,-40.905C238.296,-39.915,237.396,-38.85,236.976,-37.71C236.856,-37.29,236.766,-36.885,236.706,-36.495C236.646,-36.105,236.616,-35.73,236.616,-35.37C236.616,-33.15,237.726,-31.545,239.946,-30.555C242.166,-29.565,244.746,-28.71,247.686,-27.99C248.286,-27.81,248.871,-27.66,249.441,-27.54C250.011,-27.42,250.596,-27.27,251.196,-27.09C254.796,-26.13,258.111,-24.78,261.141,-23.04C264.171,-21.3,265.686,-18.3,265.686,-14.04C265.686,-9.12,263.736,-5.31,259.836,-2.61C255.936,0.0900001,251.496,1.44,246.516,1.44C245.676,1.44,244.806,1.395,243.906,1.305C243.006,1.215,242.106,1.08,241.206,0.9C238.266,0.3,235.536,-1.08,233.016,-3.24C230.496,-5.4,229.086,-8.79,228.786,-13.41ZM304.117,-15.57L310.507,-15.57C309.067,-9.51,306.637,-5.28,303.217,-2.88C299.797,-0.48,295.597,0.72,290.617,0.72C283.297,0.72,278.077,-1.41,274.957,-5.67C271.837,-9.93,270.037,-14.64,269.557,-19.8C269.497,-20.4,269.452,-20.985,269.422,-21.555C269.392,-22.125,269.377,-22.71,269.377,-23.31C269.377,-30.39,271.477,-36.18,275.677,-40.68C279.877,-45.18,284.647,-47.43,289.987,-47.43C297.067,-47.43,302.212,-45.12,305.422,-40.5C308.632,-35.88,310.357,-30.78,310.597,-25.2C310.597,-24.96,310.597,-24.735,310.597,-24.525C310.597,-24.315,310.597,-24.12,310.597,-23.94C310.597,-23.76,310.597,-23.58,310.597,-23.4C310.597,-23.22,310.597,-23.07,310.597,-22.95C310.537,-22.77,310.507,-22.59,310.507,-22.41C310.507,-22.23,310.507,-22.05,310.507,-21.87L275.767,-21.96C275.767,-21,275.842,-20.01,275.992,-18.99C276.142,-17.97,276.367,-16.92,276.667,-15.84C277.447,-12.9,278.887,-10.215,280.987,-7.785C283.087,-5.355,285.967,-4.14,289.627,-4.14C289.747,-4.14,289.837,-4.14,289.897,-4.14C289.957,-4.14,290.047,-4.14,290.167,-4.14C290.227,-4.14,290.302,-4.14,290.392,-4.14C290.482,-4.14,290.557,-4.14,290.617,-4.14C294.037,-4.38,296.662,-5.16,298.492,-6.48C300.322,-7.8,301.657,-9.21,302.497,-10.71C302.977,-11.61,303.337,-12.465,303.577,-13.275C303.817,-14.085,303.997,-14.82,304.117,-15.48ZM304.117,-26.91C304.117,-26.97,304.117,-27.045,304.117,-27.135C304.117,-27.225,304.147,-27.33,304.207,-27.45C304.207,-27.57,304.207,-27.675,304.207,-27.765C304.207,-27.855,304.207,-27.96,304.207,-28.08C304.207,-31.92,303.097,-34.965,300.877,-37.215C298.657,-39.465,296.197,-40.86,293.497,-41.4C293.017,-41.52,292.537,-41.61,292.057,-41.67C291.577,-41.73,291.097,-41.76,290.617,-41.76C289.717,-41.76,288.697,-41.685,287.557,-41.535C286.417,-41.385,285.247,-41.01,284.047,-40.41C282.427,-39.63,280.852,-38.205,279.322,-36.135C277.792,-34.065,276.607,-30.96,275.767,-26.82ZM323.471,-38.97C323.711,-39.21,323.951,-39.465,324.191,-39.735C324.431,-40.005,324.671,-40.29,324.911,-40.59C326.291,-42.09,328.001,-43.485,330.041,-44.775C332.081,-46.065,334.601,-46.71,337.601,-46.71C338.441,-46.71,339.521,-46.56,340.841,-46.26C342.161,-45.96,343.541,-45.48,344.981,-44.82C347.201,-43.74,349.241,-42.15,351.101,-40.05C352.961,-37.95,353.891,-35.19,353.891,-31.77L353.891,0L348.221,0L348.221,-29.79C348.221,-32.79,347.171,-35.535,345.071,-38.025C342.971,-40.515,340.151,-41.76,336.611,-41.76C336.431,-41.76,336.251,-41.76,336.071,-41.76C335.891,-41.76,335.711,-41.76,335.531,-41.76C331.991,-41.46,329.201,-39.915,327.161,-37.125C325.121,-34.335,323.921,-31.32,323.561,-28.08C323.561,-27.72,323.546,-27.375,323.516,-27.045C323.486,-26.715,323.471,-26.4,323.471,-26.1L323.471,0L317.801,0L317.801,-34.74C317.801,-35.04,317.801,-35.325,317.801,-35.595C317.801,-35.865,317.801,-36.15,317.801,-36.45C317.801,-37.29,317.756,-38.295,317.666,-39.465C317.576,-40.635,317.381,-42.57,317.081,-45.27L322.751,-45.36C323.111,-43.56,323.321,-42.03,323.381,-40.77C323.441,-39.51,323.471,-38.88,323.471,-38.88ZM399.434,-65.16L399.434,-15.57C399.434,-13.77,399.464,-11.595,399.524,-9.045C399.584,-6.495,399.794,-3.48,400.154,0L393.764,0C393.704,-0.18,393.644,-0.405,393.584,-0.675C393.524,-0.945,393.464,-1.23,393.404,-1.53C393.224,-2.73,393.119,-3.825,393.089,-4.815C393.059,-5.805,393.044,-6.3,393.044,-6.3C392.024,-4.2,390.239,-2.385,387.689,-0.855C385.139,0.675,382.454,1.44,379.634,1.44C379.454,1.44,379.274,1.44,379.094,1.44C378.914,1.44,378.764,1.44,378.644,1.44C372.464,1.5,367.949,-0.645,365.099,-4.995C362.249,-9.345,360.554,-14.13,360.014,-19.35C359.894,-20.13,359.819,-20.91,359.789,-21.69C359.759,-22.47,359.744,-23.25,359.744,-24.03C359.744,-30.27,360.899,-35.01,363.209,-38.25C365.519,-41.49,368.084,-43.77,370.904,-45.09C372.224,-45.69,373.514,-46.11,374.774,-46.35C376.034,-46.59,377.174,-46.71,378.194,-46.71C382.454,-46.71,385.739,-46.05,388.049,-44.73C390.359,-43.41,392.024,-41.7,393.044,-39.6L393.044,-65.16ZM366.134,-24.12C366.134,-17.7,367.229,-12.765,369.419,-9.315C371.609,-5.865,375.014,-4.14,379.634,-4.14C384.614,-4.14,388.214,-6.135,390.434,-10.125C392.654,-14.115,393.764,-18.75,393.764,-24.03C393.764,-29.37,392.264,-33.66,389.264,-36.9C386.264,-40.14,382.814,-41.76,378.914,-41.76C374.714,-41.46,371.669,-39.87,369.779,-36.99C367.889,-34.11,366.734,-30.99,366.314,-27.63C366.254,-27.03,366.209,-26.43,366.179,-25.83C366.149,-25.23,366.134,-24.63,366.134,-24.03ZM461.542,-45.36L467.212,-45.36C467.212,-44.64,467.182,-43.725,467.122,-42.615C467.062,-41.505,466.972,-40.35,466.852,-39.15C466.852,-39.03,466.852,-38.925,466.852,-38.835C466.852,-38.745,466.852,-38.67,466.852,-38.61C466.792,-37.35,466.717,-36.15,466.627,-35.01C466.537,-33.87,466.492,-33.03,466.492,-32.49L466.492,-3.51C466.492,1.83,465.322,6.615,462.982,10.845C460.642,15.075,455.212,17.37,446.692,17.73C441.292,17.73,436.987,16.605,433.777,14.355C430.567,12.105,428.932,9.3,428.872,5.94C428.872,5.88,428.872,5.805,428.872,5.715C428.872,5.625,428.902,5.55,428.962,5.49C428.962,5.37,428.962,5.28,428.962,5.22C428.962,5.16,428.962,5.07,428.962,4.95L434.632,4.95C434.992,7.77,436.297,9.78,438.547,10.98C440.797,12.18,443.512,12.78,446.692,12.78C450.232,12.78,453.022,12,455.062,10.44C457.102,8.88,458.572,7.14,459.472,5.22C459.952,4.26,460.297,3.33,460.507,2.43C460.717,1.53,460.822,0.72,460.822,0L460.822,-7.83C459.082,-5.25,457.057,-3.3,454.747,-1.98C452.437,-0.66,449.512,0,445.972,0C439.612,0,434.797,-2.265,431.527,-6.795C428.257,-11.325,426.442,-16.59,426.082,-22.59C426.082,-22.95,426.082,-23.295,426.082,-23.625C426.082,-23.955,426.112,-24.3,426.172,-24.66C426.412,-30,427.942,-34.92,430.762,-39.42C433.582,-43.92,438.652,-46.35,445.972,-46.71C449.152,-46.71,451.897,-46.11,454.207,-44.91C456.517,-43.71,458.722,-41.7,460.822,-38.88C460.822,-38.88,460.852,-39.51,460.912,-40.77C460.972,-42.03,461.182,-43.53,461.542,-45.27ZM460.822,-24.12C460.822,-29.04,459.442,-33.21,456.682,-36.63C453.922,-40.05,450.592,-41.76,446.692,-41.76C442.792,-41.76,439.732,-40.395,437.512,-37.665C435.292,-34.935,433.822,-31.92,433.102,-28.62C432.862,-27.72,432.697,-26.82,432.607,-25.92C432.517,-25.02,432.472,-24.15,432.472,-23.31C432.472,-18.69,433.837,-14.46,436.567,-10.62C439.297,-6.78,442.432,-4.86,445.972,-4.86C449.992,-4.86,453.472,-6.39,456.412,-9.45C459.352,-12.51,460.852,-16.8,460.912,-22.32C460.912,-22.44,460.912,-22.575,460.912,-22.725C460.912,-22.875,460.912,-23.01,460.912,-23.13C460.852,-23.25,460.822,-23.385,460.822,-23.535C460.822,-23.685,460.822,-23.85,460.822,-24.03ZM474.506,-45.36L480.176,-45.36C480.356,-44.76,480.491,-44.235,480.581,-43.785C480.671,-43.335,480.746,-42.9,480.806,-42.48C480.866,-42,480.896,-41.535,480.896,-41.085C480.896,-40.635,480.896,-40.14,480.896,-39.6C482.156,-43.2,484.001,-45.3,486.431,-45.9C488.861,-46.5,491.666,-46.77,494.846,-46.71C495.086,-46.71,495.341,-46.71,495.611,-46.71C495.881,-46.71,496.166,-46.71,496.466,-46.71L496.466,-41.85C496.046,-41.85,495.641,-41.865,495.251,-41.895C494.861,-41.925,494.456,-41.94,494.036,-41.94C490.376,-41.94,487.271,-40.74,484.721,-38.34C482.171,-35.94,480.896,-32.82,480.896,-28.98L480.896,0L475.226,0L475.226,-37.53C475.226,-38.19,475.226,-38.835,475.226,-39.465C475.226,-40.095,475.196,-40.74,475.136,-41.4C475.076,-42,475.001,-42.615,474.911,-43.245C474.821,-43.875,474.686,-44.55,474.506,-45.27ZM532.833,-15.57L539.222,-15.57C537.782,-9.51,535.352,-5.28,531.932,-2.88C528.512,-0.48,524.312,0.72,519.332,0.72C512.012,0.72,506.792,-1.41,503.672,-5.67C500.552,-9.93,498.752,-14.64,498.272,-19.8C498.212,-20.4,498.167,-20.985,498.137,-21.555C498.107,-22.125,498.092,-22.71,498.092,-23.31C498.092,-30.39,500.192,-36.18,504.392,-40.68C508.592,-45.18,513.362,-47.43,518.703,-47.43C525.783,-47.43,530.928,-45.12,534.138,-40.5C537.348,-35.88,539.073,-30.78,539.312,-25.2C539.312,-24.96,539.312,-24.735,539.312,-24.525C539.312,-24.315,539.312,-24.12,539.312,-23.94C539.312,-23.76,539.312,-23.58,539.312,-23.4C539.312,-23.22,539.312,-23.07,539.312,-22.95C539.252,-22.77,539.222,-22.59,539.222,-22.41C539.222,-22.23,539.222,-22.05,539.222,-21.87L504.482,-21.96C504.482,-21,504.557,-20.01,504.707,-18.99C504.857,-17.97,505.082,-16.92,505.382,-15.84C506.162,-12.9,507.602,-10.215,509.702,-7.785C511.802,-5.355,514.682,-4.14,518.342,-4.14C518.462,-4.14,518.552,-4.14,518.612,-4.14C518.673,-4.14,518.763,-4.14,518.883,-4.14C518.942,-4.14,519.017,-4.14,519.107,-4.14C519.197,-4.14,519.272,-4.14,519.332,-4.14C522.752,-4.38,525.377,-5.16,527.208,-6.48C529.038,-7.8,530.372,-9.21,531.212,-10.71C531.692,-11.61,532.052,-12.465,532.292,-13.275C532.532,-14.085,532.712,-14.82,532.833,-15.48ZM532.833,-26.91C532.833,-26.97,532.833,-27.045,532.833,-27.135C532.833,-27.225,532.863,-27.33,532.922,-27.45C532.922,-27.57,532.922,-27.675,532.922,-27.765C532.922,-27.855,532.922,-27.96,532.922,-28.08C532.922,-31.92,531.812,-34.965,529.592,-37.215C527.372,-39.465,524.912,-40.86,522.212,-41.4C521.732,-41.52,521.252,-41.61,520.772,-41.67C520.292,-41.73,519.812,-41.76,519.332,-41.76C518.432,-41.76,517.412,-41.685,516.272,-41.535C515.132,-41.385,513.963,-41.01,512.763,-40.41C511.142,-39.63,509.567,-38.205,508.037,-36.135C506.507,-34.065,505.322,-30.96,504.482,-26.82ZM545.076,-34.02C545.076,-38.28,546.756,-41.4,550.116,-43.38C553.476,-45.36,557.166,-46.44,561.186,-46.62C561.426,-46.68,561.681,-46.71,561.951,-46.71C562.221,-46.71,562.506,-46.71,562.806,-46.71C567.066,-46.71,570.726,-45.615,573.786,-43.425C576.846,-41.235,578.376,-37.11,578.376,-31.05C578.376,-20.49,578.391,-13.425,578.421,-9.855C578.451,-6.285,578.616,-3.42,578.916,-1.26C578.916,-1.02,578.931,-0.795,578.961,-0.585C578.991,-0.375,579.036,-0.18,579.096,0L573.426,0C573.426,0,573.411,-0.015,573.381,-0.045C573.351,-0.075,573.336,-0.12,573.336,-0.18C573.036,-1.5,572.856,-2.73,572.796,-3.87C572.736,-5.01,572.706,-5.58,572.706,-5.58C571.866,-4.08,570.711,-2.835,569.241,-1.845C567.771,-0.855,566.226,-0.12,564.606,0.36C563.526,0.72,562.461,0.99,561.411,1.17C560.361,1.35,559.416,1.44,558.576,1.44C553.236,1.44,549.291,-0.03,546.741,-2.97C544.191,-5.91,542.916,-9.15,542.916,-12.69C543.276,-19.05,545.856,-23.115,550.656,-24.885C555.456,-26.655,562.806,-27.54,572.706,-27.54C572.706,-31.08,572.211,-34.335,571.221,-37.305C570.231,-40.275,567.426,-41.76,562.806,-41.76C559.266,-41.76,556.491,-41.07,554.481,-39.69C552.471,-38.31,551.466,-36.39,551.466,-33.93ZM572.706,-22.68C572.406,-22.62,572.091,-22.59,571.761,-22.59C571.431,-22.59,571.116,-22.59,570.816,-22.59C565.416,-22.59,560.481,-22.11,556.011,-21.15C551.541,-20.19,549.306,-17.37,549.306,-12.69C549.306,-9.57,550.326,-7.26,552.366,-5.76C554.406,-4.26,556.716,-3.51,559.296,-3.51C559.596,-3.51,559.881,-3.525,560.151,-3.555C560.421,-3.585,560.676,-3.6,560.916,-3.6C562.176,-3.72,563.391,-4.02,564.561,-4.5C565.731,-4.98,566.796,-5.58,567.756,-6.3C569.316,-7.5,570.546,-9.15,571.446,-11.25C572.346,-13.35,572.826,-16.05,572.886,-19.35C572.886,-19.83,572.871,-20.34,572.841,-20.88C572.811,-21.42,572.766,-21.99,572.706,-22.59ZM581.437,-40.41L581.437,-45.36L590.617,-45.36L590.617,-54.54L596.287,-56.7L596.287,-45.36L606.907,-45.36L606.907,-40.41L596.287,-40.41L596.287,-10.62C596.287,-7.8,596.842,-5.895,597.952,-4.905C599.062,-3.915,600.517,-3.42,602.317,-3.42C603.157,-3.42,604.012,-3.48,604.882,-3.6C605.752,-3.72,606.667,-3.9,607.627,-4.14L607.627,0.72C606.487,1.02,605.377,1.245,604.297,1.395C603.217,1.545,602.197,1.62,601.237,1.62C597.697,1.62,595.042,0.72,593.272,-1.08C591.502,-2.88,590.617,-5.31,590.617,-8.37L590.617,-40.41ZM606.464,-21.24L606.464,-26.91L629.864,-26.91L629.864,-21.24ZM633.647,-65.16L639.318,-65.16L639.318,0L633.647,0ZM645.794,-23.4C645.794,-30.06,647.639,-35.73,651.329,-40.41C655.019,-45.09,660.044,-47.43,666.404,-47.43C672.764,-47.43,677.894,-45.18,681.794,-40.68C685.694,-36.18,687.644,-30.39,687.644,-23.31C687.644,-16.23,685.724,-10.335,681.884,-5.625C678.044,-0.915,673.124,1.44,667.124,1.44C661.124,1.44,656.069,-0.915,651.959,-5.625C647.849,-10.335,645.794,-16.23,645.794,-23.31ZM651.464,-23.4C651.824,-18.06,653.369,-13.395,656.099,-9.405C658.829,-5.415,662.504,-3.42,667.124,-3.42C671.684,-3.42,675.284,-5.46,677.924,-9.54C680.564,-13.62,681.914,-18.12,681.974,-23.04C681.974,-23.1,681.974,-23.145,681.974,-23.175C681.974,-23.205,681.974,-23.25,681.974,-23.31C681.974,-28.11,680.624,-32.49,677.924,-36.45C675.224,-40.41,671.714,-42.39,667.394,-42.39C667.334,-42.39,667.259,-42.39,667.169,-42.39C667.079,-42.39,667.004,-42.39,666.944,-42.39C666.824,-42.39,666.734,-42.39,666.674,-42.39C666.614,-42.39,666.524,-42.39,666.404,-42.39C661.784,-42.09,658.139,-40.08,655.469,-36.36C652.799,-32.64,651.464,-28.29,651.464,-23.31ZM691.338,-23.4C691.338,-30.06,693.183,-35.73,696.873,-40.41C700.563,-45.09,705.588,-47.43,711.948,-47.43C718.308,-47.43,723.438,-45.18,727.338,-40.68C731.238,-36.18,733.188,-30.39,733.188,-23.31C733.188,-16.23,731.268,-10.335,727.428,-5.625C723.588,-0.915,718.668,1.44,712.668,1.44C706.668,1.44,701.613,-0.915,697.503,-5.625C693.393,-10.335,691.338,-16.23,691.338,-23.31ZM697.008,-23.4C697.368,-18.06,698.913,-13.395,701.643,-9.405C704.373,-5.415,708.048,-3.42,712.668,-3.42C717.228,-3.42,720.828,-5.46,723.468,-9.54C726.108,-13.62,727.458,-18.12,727.518,-23.04C727.518,-23.1,727.518,-23.145,727.518,-23.175C727.518,-23.205,727.518,-23.25,727.518,-23.31C727.518,-28.11,726.168,-32.49,723.468,-36.45C720.768,-40.41,717.258,-42.39,712.938,-42.39C712.878,-42.39,712.803,-42.39,712.713,-42.39C712.623,-42.39,712.548,-42.39,712.488,-42.39C712.368,-42.39,712.278,-42.39,712.218,-42.39C712.158,-42.39,712.068,-42.39,711.948,-42.39C707.328,-42.09,703.683,-40.08,701.013,-36.36C698.343,-32.64,697.008,-28.29,697.008,-23.31ZM741.202,-65.16L746.872,-65.16L746.872,-26.91L768.112,-45.36L775.222,-45.36L752.542,-25.47L777.292,0L770.182,0L746.872,-24.12L746.872,0L741.202,0ZM781.073,-45.36L786.743,-45.36L786.743,0L781.073,0ZM780.353,-65.16L787.463,-65.16L787.463,-58.14L780.353,-58.14ZM802.489,-38.97C802.729,-39.21,802.969,-39.465,803.209,-39.735C803.449,-40.005,803.689,-40.29,803.929,-40.59C805.309,-42.09,807.019,-43.485,809.059,-44.775C811.099,-46.065,813.619,-46.71,816.619,-46.71C817.459,-46.71,818.539,-46.56,819.859,-46.26C821.179,-45.96,822.559,-45.48,823.999,-44.82C826.219,-43.74,828.259,-42.15,830.119,-40.05C831.979,-37.95,832.909,-35.19,832.909,-31.77L832.909,0L827.239,0L827.239,-29.79C827.239,-32.79,826.189,-35.535,824.089,-38.025C821.989,-40.515,819.169,-41.76,815.629,-41.76C815.449,-41.76,815.269,-41.76,815.089,-41.76C814.909,-41.76,814.729,-41.76,814.549,-41.76C811.009,-41.46,808.219,-39.915,806.179,-37.125C804.139,-34.335,802.939,-31.32,802.579,-28.08C802.579,-27.72,802.564,-27.375,802.534,-27.045C802.504,-26.715,802.489,-26.4,802.489,-26.1L802.489,0L796.819,0L796.819,-34.74C796.819,-35.04,796.819,-35.325,796.819,-35.595C796.819,-35.865,796.819,-36.15,796.819,-36.45C796.819,-37.29,796.774,-38.295,796.684,-39.465C796.594,-40.635,796.399,-42.57,796.099,-45.27L801.769,-45.36C802.129,-43.56,802.339,-42.03,802.399,-40.77C802.459,-39.51,802.489,-38.88,802.489,-38.88ZM874.223,-45.36L879.893,-45.36C879.893,-44.64,879.863,-43.725,879.803,-42.615C879.743,-41.505,879.653,-40.35,879.533,-39.15C879.533,-39.03,879.533,-38.925,879.533,-38.835C879.533,-38.745,879.533,-38.67,879.533,-38.61C879.473,-37.35,879.398,-36.15,879.308,-35.01C879.218,-33.87,879.173,-33.03,879.173,-32.49L879.173,-3.51C879.173,1.83,878.003,6.615,875.663,10.845C873.323,15.075,867.893,17.37,859.373,17.73C853.973,17.73,849.668,16.605,846.458,14.355C843.248,12.105,841.613,9.3,841.553,5.94C841.553,5.88,841.553,5.805,841.553,5.715C841.553,5.625,841.583,5.55,841.643,5.49C841.643,5.37,841.643,5.28,841.643,5.22C841.643,5.16,841.643,5.07,841.643,4.95L847.313,4.95C847.673,7.77,848.978,9.78,851.228,10.98C853.478,12.18,856.193,12.78,859.373,12.78C862.913,12.78,865.703,12,867.743,10.44C869.783,8.88,871.253,7.14,872.153,5.22C872.633,4.26,872.978,3.33,873.188,2.43C873.398,1.53,873.503,0.72,873.503,0L873.503,-7.83C871.763,-5.25,869.738,-3.3,867.428,-1.98C865.118,-0.66,862.193,0,858.653,0C852.293,0,847.478,-2.265,844.208,-6.795C840.938,-11.325,839.123,-16.59,838.763,-22.59C838.763,-22.95,838.763,-23.295,838.763,-23.625C838.763,-23.955,838.793,-24.3,838.853,-24.66C839.093,-30,840.623,-34.92,843.443,-39.42C846.263,-43.92,851.333,-46.35,858.653,-46.71C861.833,-46.71,864.578,-46.11,866.888,-44.91C869.198,-43.71,871.403,-41.7,873.503,-38.88C873.503,-38.88,873.533,-39.51,873.593,-40.77C873.653,-42.03,873.863,-43.53,874.223,-45.27ZM873.503,-24.12C873.503,-29.04,872.123,-33.21,869.363,-36.63C866.603,-40.05,863.273,-41.76,859.373,-41.76C855.473,-41.76,852.413,-40.395,850.193,-37.665C847.973,-34.935,846.503,-31.92,845.783,-28.62C845.543,-27.72,845.378,-26.82,845.288,-25.92C845.198,-25.02,845.153,-24.15,845.153,-23.31C845.153,-18.69,846.518,-14.46,849.248,-10.62C851.978,-6.78,855.113,-4.86,858.653,-4.86C862.673,-4.86,866.153,-6.39,869.093,-9.45C872.033,-12.51,873.533,-16.8,873.593,-22.32C873.593,-22.44,873.593,-22.575,873.593,-22.725C873.593,-22.875,873.593,-23.01,873.593,-23.13C873.533,-23.25,873.503,-23.385,873.503,-23.535C873.503,-23.685,873.503,-23.85,873.503,-24.03Z" transform="translate(958,408.675)"/>
    <path fill="#363636" stroke="none" d="M8.46,-65.16L14.85,-65.16L14.85,-36.81L49.59,-36.81L49.59,-65.16L55.98,-65.16L55.98,0L49.59,0L49.59,-31.14L14.85,-31.14L14.85,0L8.46,0ZM61.2013,-64.53L109.351,-64.53L109.351,-59.49L88.1113,-59.49L88.1113,0L81.7213,0L81.7213,-59.49L61.2013,-59.49ZM113.855,-65.16L123.755,-65.16L147.875,-8.46L171.905,-65.16L181.895,-65.16L181.895,0L175.505,0L175.505,-58.86L151.385,0L144.275,0L120.155,-58.86L120.155,0L113.855,0ZM194.763,-65.16L201.153,-65.16L201.153,-5.67L233.823,-5.67L233.823,0L194.763,0ZM291.611,-15.57L298.001,-15.57C296.561,-9.51,294.131,-5.28,290.711,-2.88C287.291,-0.48,283.091,0.72,278.111,0.72C270.791,0.72,265.571,-1.41,262.451,-5.67C259.331,-9.93,257.531,-14.64,257.051,-19.8C256.991,-20.4,256.946,-20.985,256.916,-21.555C256.886,-22.125,256.871,-22.71,256.871,-23.31C256.871,-30.39,258.971,-36.18,263.171,-40.68C267.371,-45.18,272.141,-47.43,277.481,-47.43C284.561,-47.43,289.706,-45.12,292.916,-40.5C296.126,-35.88,297.851,-30.78,298.091,-25.2C298.091,-24.96,298.091,-24.735,298.091,-24.525C298.091,-24.315,298.091,-24.12,298.091,-23.94C298.091,-23.76,298.091,-23.58,298.091,-23.4C298.091,-23.22,298.091,-23.07,298.091,-22.95C298.031,-22.77,298.001,-22.59,298.001,-22.41C298.001,-22.23,298.001,-22.05,298.001,-21.87L263.261,-21.96C263.261,-21,263.336,-20.01,263.486,-18.99C263.636,-17.97,263.861,-16.92,264.161,-15.84C264.941,-12.9,266.381,-10.215,268.481,-7.785C270.581,-5.355,273.461,-4.14,277.121,-4.14C277.241,-4.14,277.331,-4.14,277.391,-4.14C277.451,-4.14,277.541,-4.14,277.661,-4.14C277.721,-4.14,277.796,-4.14,277.886,-4.14C277.976,-4.14,278.051,-4.14,278.111,-4.14C281.531,-4.38,284.156,-5.16,285.986,-6.48C287.816,-7.8,289.151,-9.21,289.991,-10.71C290.471,-11.61,290.831,-12.465,291.071,-13.275C291.311,-14.085,291.491,-14.82,291.611,-15.48ZM291.611,-26.91C291.611,-26.97,291.611,-27.045,291.611,-27.135C291.611,-27.225,291.641,-27.33,291.701,-27.45C291.701,-27.57,291.701,-27.675,291.701,-27.765C291.701,-27.855,291.701,-27.96,291.701,-28.08C291.701,-31.92,290.591,-34.965,288.371,-37.215C286.151,-39.465,283.691,-40.86,280.991,-41.4C280.511,-41.52,280.031,-41.61,279.551,-41.67C279.071,-41.73,278.591,-41.76,278.111,-41.76C277.211,-41.76,276.191,-41.685,275.051,-41.535C273.911,-41.385,272.741,-41.01,271.541,-40.41C269.921,-39.63,268.346,-38.205,266.816,-36.135C265.286,-34.065,264.101,-30.96,263.261,-26.82ZM310.244,-38.97C310.484,-39.21,310.724,-39.465,310.964,-39.735C311.204,-40.005,311.444,-40.29,311.684,-40.59C313.064,-42.09,314.789,-43.485,316.859,-44.775C318.929,-46.065,321.434,-46.71,324.374,-46.71C325.334,-46.71,326.399,-46.65,327.569,-46.53C328.739,-46.41,329.924,-46.11,331.124,-45.63C332.684,-45.03,334.184,-44.04,335.624,-42.66C337.064,-41.28,338.294,-39.3,339.314,-36.72C340.394,-38.94,341.774,-40.755,343.454,-42.165C345.134,-43.575,346.874,-44.67,348.674,-45.45C349.754,-45.87,350.834,-46.185,351.914,-46.395C352.994,-46.605,353.984,-46.71,354.884,-46.71C360.584,-46.71,364.724,-45.165,367.304,-42.075C369.884,-38.985,371.174,-35.31,371.174,-31.05L371.174,0L365.504,0L365.504,-29.79C365.504,-30.33,365.459,-30.9,365.369,-31.5C365.279,-32.1,365.144,-32.73,364.964,-33.39C364.424,-35.49,363.254,-37.41,361.454,-39.15C359.654,-40.89,356.984,-41.76,353.444,-41.76C352.784,-41.76,352.079,-41.685,351.329,-41.535C350.579,-41.385,349.814,-41.13,349.034,-40.77C346.934,-39.87,345.014,-38.295,343.274,-36.045C341.534,-33.795,340.664,-30.72,340.664,-26.82L340.664,0L334.994,0L334.994,-29.79C334.994,-32.79,333.944,-35.535,331.844,-38.025C329.744,-40.515,326.924,-41.76,323.384,-41.76C323.204,-41.76,323.024,-41.76,322.844,-41.76C322.664,-41.76,322.484,-41.76,322.304,-41.76C318.764,-41.46,315.974,-39.915,313.934,-37.125C311.894,-34.335,310.694,-31.32,310.334,-28.08C310.334,-27.72,310.319,-27.375,310.289,-27.045C310.259,-26.715,310.244,-26.4,310.244,-26.1L310.244,0L304.574,0L304.574,-34.74C304.574,-35.04,304.574,-35.325,304.574,-35.595C304.574,-35.865,304.574,-36.15,304.574,-36.45C304.574,-37.29,304.529,-38.295,304.439,-39.465C304.349,-40.635,304.154,-42.57,303.854,-45.27L309.524,-45.36C309.884,-43.56,310.094,-42.03,310.154,-40.77C310.214,-39.51,310.244,-38.88,310.244,-38.88ZM379.179,-34.02C379.179,-38.28,380.859,-41.4,384.219,-43.38C387.579,-45.36,391.269,-46.44,395.289,-46.62C395.529,-46.68,395.784,-46.71,396.054,-46.71C396.324,-46.71,396.609,-46.71,396.909,-46.71C401.169,-46.71,404.829,-45.615,407.889,-43.425C410.949,-41.235,412.479,-37.11,412.479,-31.05C412.479,-20.49,412.494,-13.425,412.524,-9.855C412.554,-6.285,412.719,-3.42,413.019,-1.26C413.019,-1.02,413.034,-0.795,413.064,-0.585C413.094,-0.375,413.139,-0.18,413.199,0L407.529,0C407.529,0,407.514,-0.015,407.484,-0.045C407.454,-0.075,407.439,-0.12,407.439,-0.18C407.139,-1.5,406.959,-2.73,406.899,-3.87C406.839,-5.01,406.809,-5.58,406.809,-5.58C405.969,-4.08,404.814,-2.835,403.344,-1.845C401.874,-0.855,400.329,-0.12,398.709,0.36C397.629,0.72,396.564,0.99,395.514,1.17C394.464,1.35,393.519,1.44,392.679,1.44C387.339,1.44,383.394,-0.03,380.844,-2.97C378.294,-5.91,377.019,-9.15,377.019,-12.69C377.379,-19.05,379.959,-23.115,384.759,-24.885C389.559,-26.655,396.909,-27.54,406.809,-27.54C406.809,-31.08,406.314,-34.335,405.324,-37.305C404.334,-40.275,401.529,-41.76,396.909,-41.76C393.369,-41.76,390.594,-41.07,388.584,-39.69C386.574,-38.31,385.569,-36.39,385.569,-33.93ZM406.809,-22.68C406.509,-22.62,406.194,-22.59,405.864,-22.59C405.534,-22.59,405.219,-22.59,404.919,-22.59C399.519,-22.59,394.584,-22.11,390.114,-21.15C385.644,-20.19,383.409,-17.37,383.409,-12.69C383.409,-9.57,384.429,-7.26,386.469,-5.76C388.509,-4.26,390.819,-3.51,393.399,-3.51C393.699,-3.51,393.984,-3.525,394.254,-3.555C394.524,-3.585,394.779,-3.6,395.019,-3.6C396.279,-3.72,397.494,-4.02,398.664,-4.5C399.834,-4.98,400.899,-5.58,401.859,-6.3C403.419,-7.5,404.649,-9.15,405.549,-11.25C406.449,-13.35,406.929,-16.05,406.989,-19.35C406.989,-19.83,406.974,-20.34,406.944,-20.88C406.914,-21.42,406.869,-21.99,406.809,-22.59ZM421.21,-45.36L426.88,-45.36L426.88,0L421.21,0ZM420.49,-65.16L427.6,-65.16L427.6,-58.14L420.49,-58.14ZM436.957,-65.16L442.627,-65.16L442.627,0L436.957,0ZM478.448,-38.97C478.688,-39.21,478.928,-39.465,479.168,-39.735C479.408,-40.005,479.648,-40.29,479.888,-40.59C481.268,-42.09,482.993,-43.485,485.062,-44.775C487.133,-46.065,489.638,-46.71,492.578,-46.71C493.538,-46.71,494.603,-46.65,495.773,-46.53C496.943,-46.41,498.128,-46.11,499.328,-45.63C500.888,-45.03,502.388,-44.04,503.828,-42.66C505.268,-41.28,506.498,-39.3,507.518,-36.72C508.598,-38.94,509.978,-40.755,511.658,-42.165C513.337,-43.575,515.077,-44.67,516.878,-45.45C517.957,-45.87,519.037,-46.185,520.117,-46.395C521.197,-46.605,522.188,-46.71,523.088,-46.71C528.788,-46.71,532.928,-45.165,535.508,-42.075C538.088,-38.985,539.378,-35.31,539.378,-31.05L539.378,0L533.708,0L533.708,-29.79C533.708,-30.33,533.663,-30.9,533.573,-31.5C533.483,-32.1,533.347,-32.73,533.167,-33.39C532.628,-35.49,531.458,-37.41,529.658,-39.15C527.858,-40.89,525.188,-41.76,521.648,-41.76C520.988,-41.76,520.283,-41.685,519.533,-41.535C518.783,-41.385,518.018,-41.13,517.237,-40.77C515.138,-39.87,513.218,-38.295,511.478,-36.045C509.738,-33.795,508.868,-30.72,508.868,-26.82L508.868,0L503.198,0L503.198,-29.79C503.198,-32.79,502.148,-35.535,500.048,-38.025C497.948,-40.515,495.128,-41.76,491.588,-41.76C491.408,-41.76,491.228,-41.76,491.048,-41.76C490.868,-41.76,490.688,-41.76,490.508,-41.76C486.968,-41.46,484.178,-39.915,482.138,-37.125C480.098,-34.335,478.898,-31.32,478.538,-28.08C478.538,-27.72,478.523,-27.375,478.493,-27.045C478.463,-26.715,478.448,-26.4,478.448,-26.1L478.448,0L472.778,0L472.778,-34.74C472.778,-35.04,472.778,-35.325,472.778,-35.595C472.778,-35.865,472.778,-36.15,472.778,-36.45C472.778,-37.29,472.733,-38.295,472.643,-39.465C472.553,-40.635,472.358,-42.57,472.058,-45.27L477.728,-45.36C478.088,-43.56,478.298,-42.03,478.358,-40.77C478.418,-39.51,478.448,-38.88,478.448,-38.88ZM580.682,-15.57L587.073,-15.57C585.633,-9.51,583.203,-5.28,579.783,-2.88C576.363,-0.48,572.163,0.72,567.182,0.72C559.863,0.72,554.643,-1.41,551.523,-5.67C548.403,-9.93,546.603,-14.64,546.122,-19.8C546.063,-20.4,546.018,-20.985,545.988,-21.555C545.958,-22.125,545.943,-22.71,545.943,-23.31C545.943,-30.39,548.043,-36.18,552.243,-40.68C556.443,-45.18,561.213,-47.43,566.553,-47.43C573.633,-47.43,578.778,-45.12,581.988,-40.5C585.198,-35.88,586.923,-30.78,587.163,-25.2C587.163,-24.96,587.163,-24.735,587.163,-24.525C587.163,-24.315,587.163,-24.12,587.163,-23.94C587.163,-23.76,587.163,-23.58,587.163,-23.4C587.163,-23.22,587.163,-23.07,587.163,-22.95C587.103,-22.77,587.073,-22.59,587.073,-22.41C587.073,-22.23,587.073,-22.05,587.073,-21.87L552.333,-21.96C552.333,-21,552.408,-20.01,552.557,-18.99C552.708,-17.97,552.933,-16.92,553.233,-15.84C554.013,-12.9,555.453,-10.215,557.553,-7.785C559.653,-5.355,562.533,-4.14,566.193,-4.14C566.312,-4.14,566.403,-4.14,566.463,-4.14C566.523,-4.14,566.613,-4.14,566.733,-4.14C566.793,-4.14,566.868,-4.14,566.958,-4.14C567.048,-4.14,567.123,-4.14,567.182,-4.14C570.602,-4.38,573.227,-5.16,575.057,-6.48C576.888,-7.8,578.223,-9.21,579.062,-10.71C579.543,-11.61,579.903,-12.465,580.143,-13.275C580.383,-14.085,580.562,-14.82,580.682,-15.48ZM580.682,-26.91C580.682,-26.97,580.682,-27.045,580.682,-27.135C580.682,-27.225,580.713,-27.33,580.773,-27.45C580.773,-27.57,580.773,-27.675,580.773,-27.765C580.773,-27.855,580.773,-27.96,580.773,-28.08C580.773,-31.92,579.663,-34.965,577.443,-37.215C575.223,-39.465,572.763,-40.86,570.062,-41.4C569.583,-41.52,569.103,-41.61,568.622,-41.67C568.143,-41.73,567.663,-41.76,567.182,-41.76C566.283,-41.76,565.263,-41.685,564.122,-41.535C562.983,-41.385,561.813,-41.01,560.613,-40.41C558.993,-39.63,557.418,-38.205,555.888,-36.135C554.358,-34.065,553.173,-30.96,552.333,-26.82ZM597.156,-13.5C597.516,-10.26,598.911,-7.89,601.341,-6.39C603.771,-4.89,606.396,-4.14,609.216,-4.14C612.756,-4.14,615.771,-4.89,618.261,-6.39C620.751,-7.89,621.996,-10.23,621.996,-13.41C621.996,-16.35,620.691,-18.375,618.081,-19.485C615.471,-20.595,612.516,-21.54,609.216,-22.32C608.916,-22.38,608.616,-22.44,608.316,-22.5C608.016,-22.56,607.716,-22.62,607.416,-22.68C603.816,-23.52,600.501,-24.705,597.471,-26.235C594.441,-27.765,592.926,-30.57,592.926,-34.65C592.926,-37.83,594.231,-40.635,596.841,-43.065C599.451,-45.495,603.576,-46.71,609.216,-46.71C613.836,-46.71,617.856,-45.975,621.276,-44.505C624.696,-43.035,626.586,-39.99,626.946,-35.37L620.556,-35.46C620.196,-37.5,619.011,-39.165,617.001,-40.455C614.991,-41.745,612.396,-42.39,609.216,-42.39C606.036,-42.39,603.756,-41.895,602.376,-40.905C600.996,-39.915,600.096,-38.85,599.676,-37.71C599.556,-37.29,599.466,-36.885,599.406,-36.495C599.346,-36.105,599.316,-35.73,599.316,-35.37C599.316,-33.15,600.426,-31.545,602.646,-30.555C604.866,-29.565,607.446,-28.71,610.386,-27.99C610.986,-27.81,611.571,-27.66,612.141,-27.54C612.711,-27.42,613.296,-27.27,613.896,-27.09C617.496,-26.13,620.811,-24.78,623.841,-23.04C626.871,-21.3,628.386,-18.3,628.386,-14.04C628.386,-9.12,626.436,-5.31,622.536,-2.61C618.636,0.0900001,614.196,1.44,609.216,1.44C608.376,1.44,607.506,1.395,606.606,1.305C605.706,1.215,604.806,1.08,603.906,0.9C600.966,0.3,598.236,-1.08,595.716,-3.24C593.196,-5.4,591.786,-8.79,591.486,-13.41ZM637.747,-13.5C638.107,-10.26,639.502,-7.89,641.932,-6.39C644.362,-4.89,646.987,-4.14,649.807,-4.14C653.347,-4.14,656.362,-4.89,658.852,-6.39C661.342,-7.89,662.587,-10.23,662.587,-13.41C662.587,-16.35,661.282,-18.375,658.672,-19.485C656.062,-20.595,653.107,-21.54,649.807,-22.32C649.507,-22.38,649.207,-22.44,648.907,-22.5C648.607,-22.56,648.307,-22.62,648.007,-22.68C644.407,-23.52,641.092,-24.705,638.062,-26.235C635.032,-27.765,633.517,-30.57,633.517,-34.65C633.517,-37.83,634.822,-40.635,637.432,-43.065C640.042,-45.495,644.167,-46.71,649.807,-46.71C654.427,-46.71,658.447,-45.975,661.867,-44.505C665.287,-43.035,667.177,-39.99,667.537,-35.37L661.147,-35.46C660.787,-37.5,659.602,-39.165,657.592,-40.455C655.582,-41.745,652.987,-42.39,649.807,-42.39C646.627,-42.39,644.347,-41.895,642.967,-40.905C641.587,-39.915,640.687,-38.85,640.267,-37.71C640.147,-37.29,640.057,-36.885,639.997,-36.495C639.937,-36.105,639.907,-35.73,639.907,-35.37C639.907,-33.15,641.017,-31.545,643.237,-30.555C645.457,-29.565,648.037,-28.71,650.977,-27.99C651.577,-27.81,652.162,-27.66,652.732,-27.54C653.302,-27.42,653.887,-27.27,654.487,-27.09C658.087,-26.13,661.402,-24.78,664.432,-23.04C667.462,-21.3,668.977,-18.3,668.977,-14.04C668.977,-9.12,667.027,-5.31,663.127,-2.61C659.227,0.0900001,654.787,1.44,649.807,1.44C648.967,1.44,648.097,1.395,647.197,1.305C646.297,1.215,645.397,1.08,644.497,0.9C641.557,0.3,638.827,-1.08,636.307,-3.24C633.787,-5.4,632.377,-8.79,632.077,-13.41ZM674.107,-34.02C674.107,-38.28,675.787,-41.4,679.148,-43.38C682.508,-45.36,686.198,-46.44,690.218,-46.62C690.458,-46.68,690.713,-46.71,690.982,-46.71C691.253,-46.71,691.538,-46.71,691.838,-46.71C696.097,-46.71,699.757,-45.615,702.818,-43.425C705.877,-41.235,707.407,-37.11,707.407,-31.05C707.407,-20.49,707.422,-13.425,707.453,-9.855C707.483,-6.285,707.648,-3.42,707.948,-1.26C707.948,-1.02,707.963,-0.795,707.992,-0.585C708.022,-0.375,708.067,-0.18,708.128,0L702.458,0C702.458,0,702.443,-0.015,702.412,-0.045C702.382,-0.075,702.367,-0.12,702.367,-0.18C702.067,-1.5,701.887,-2.73,701.828,-3.87C701.767,-5.01,701.737,-5.58,701.737,-5.58C700.897,-4.08,699.742,-2.835,698.273,-1.845C696.803,-0.855,695.258,-0.12,693.638,0.36C692.558,0.72,691.493,0.99,690.443,1.17C689.392,1.35,688.447,1.44,687.607,1.44C682.267,1.44,678.322,-0.03,675.773,-2.97C673.223,-5.91,671.948,-9.15,671.948,-12.69C672.307,-19.05,674.887,-23.115,679.688,-24.885C684.488,-26.655,691.838,-27.54,701.737,-27.54C701.737,-31.08,701.242,-34.335,700.253,-37.305C699.263,-40.275,696.458,-41.76,691.838,-41.76C688.298,-41.76,685.523,-41.07,683.513,-39.69C681.503,-38.31,680.497,-36.39,680.497,-33.93ZM701.737,-22.68C701.437,-22.62,701.122,-22.59,700.792,-22.59C700.462,-22.59,700.147,-22.59,699.847,-22.59C694.447,-22.59,689.512,-22.11,685.042,-21.15C680.573,-20.19,678.338,-17.37,678.338,-12.69C678.338,-9.57,679.358,-7.26,681.398,-5.76C683.438,-4.26,685.748,-3.51,688.328,-3.51C688.628,-3.51,688.913,-3.525,689.182,-3.555C689.453,-3.585,689.708,-3.6,689.948,-3.6C691.208,-3.72,692.423,-4.02,693.593,-4.5C694.762,-4.98,695.827,-5.58,696.787,-6.3C698.347,-7.5,699.577,-9.15,700.477,-11.25C701.378,-13.35,701.858,-16.05,701.917,-19.35C701.917,-19.83,701.902,-20.34,701.872,-20.88C701.843,-21.42,701.798,-21.99,701.737,-22.59ZM747.998,-45.36L753.668,-45.36C753.668,-44.64,753.638,-43.725,753.578,-42.615C753.518,-41.505,753.428,-40.35,753.308,-39.15C753.308,-39.03,753.308,-38.925,753.308,-38.835C753.308,-38.745,753.308,-38.67,753.308,-38.61C753.248,-37.35,753.173,-36.15,753.083,-35.01C752.993,-33.87,752.948,-33.03,752.948,-32.49L752.948,-3.51C752.948,1.83,751.778,6.615,749.438,10.845C747.098,15.075,741.668,17.37,733.148,17.73C727.748,17.73,723.443,16.605,720.233,14.355C717.023,12.105,715.388,9.3,715.328,5.94C715.328,5.88,715.328,5.805,715.328,5.715C715.328,5.625,715.358,5.55,715.418,5.49C715.418,5.37,715.418,5.28,715.418,5.22C715.418,5.16,715.418,5.07,715.418,4.95L721.088,4.95C721.448,7.77,722.753,9.78,725.003,10.98C727.253,12.18,729.968,12.78,733.148,12.78C736.688,12.78,739.478,12,741.518,10.44C743.558,8.88,745.028,7.14,745.928,5.22C746.408,4.26,746.753,3.33,746.963,2.43C747.173,1.53,747.278,0.72,747.278,0L747.278,-7.83C745.538,-5.25,743.513,-3.3,741.203,-1.98C738.893,-0.66,735.968,0,732.428,0C726.068,0,721.253,-2.265,717.983,-6.795C714.713,-11.325,712.898,-16.59,712.538,-22.59C712.538,-22.95,712.538,-23.295,712.538,-23.625C712.538,-23.955,712.568,-24.3,712.628,-24.66C712.868,-30,714.398,-34.92,717.218,-39.42C720.038,-43.92,725.108,-46.35,732.428,-46.71C735.608,-46.71,738.353,-46.11,740.663,-44.91C742.973,-43.71,745.178,-41.7,747.278,-38.88C747.278,-38.88,747.308,-39.51,747.368,-40.77C747.428,-42.03,747.638,-43.53,747.998,-45.27ZM747.278,-24.12C747.278,-29.04,745.898,-33.21,743.138,-36.63C740.378,-40.05,737.048,-41.76,733.148,-41.76C729.248,-41.76,726.188,-40.395,723.968,-37.665C721.748,-34.935,720.278,-31.92,719.558,-28.62C719.318,-27.72,719.153,-26.82,719.063,-25.92C718.973,-25.02,718.928,-24.15,718.928,-23.31C718.928,-18.69,720.293,-14.46,723.023,-10.62C725.753,-6.78,728.888,-4.86,732.428,-4.86C736.448,-4.86,739.928,-6.39,742.868,-9.45C745.808,-12.51,747.308,-16.8,747.368,-22.32C747.368,-22.44,747.368,-22.575,747.368,-22.725C747.368,-22.875,747.368,-23.01,747.368,-23.13C747.308,-23.25,747.278,-23.385,747.278,-23.535C747.278,-23.685,747.278,-23.85,747.278,-24.03ZM793.542,-15.57L799.932,-15.57C798.492,-9.51,796.062,-5.28,792.642,-2.88C789.222,-0.48,785.022,0.72,780.042,0.72C772.722,0.72,767.502,-1.41,764.382,-5.67C761.262,-9.93,759.462,-14.64,758.982,-19.8C758.922,-20.4,758.877,-20.985,758.847,-21.555C758.817,-22.125,758.802,-22.71,758.802,-23.31C758.802,-30.39,760.902,-36.18,765.102,-40.68C769.302,-45.18,774.072,-47.43,779.412,-47.43C786.492,-47.43,791.637,-45.12,794.847,-40.5C798.057,-35.88,799.782,-30.78,800.022,-25.2C800.022,-24.96,800.022,-24.735,800.022,-24.525C800.022,-24.315,800.022,-24.12,800.022,-23.94C800.022,-23.76,800.022,-23.58,800.022,-23.4C800.022,-23.22,800.022,-23.07,800.022,-22.95C799.962,-22.77,799.932,-22.59,799.932,-22.41C799.932,-22.23,799.932,-22.05,799.932,-21.87L765.192,-21.96C765.192,-21,765.267,-20.01,765.417,-18.99C765.567,-17.97,765.792,-16.92,766.092,-15.84C766.872,-12.9,768.312,-10.215,770.412,-7.785C772.512,-5.355,775.392,-4.14,779.052,-4.14C779.172,-4.14,779.262,-4.14,779.322,-4.14C779.382,-4.14,779.472,-4.14,779.592,-4.14C779.652,-4.14,779.727,-4.14,779.817,-4.14C779.907,-4.14,779.982,-4.14,780.042,-4.14C783.462,-4.38,786.087,-5.16,787.917,-6.48C789.747,-7.8,791.082,-9.21,791.922,-10.71C792.402,-11.61,792.762,-12.465,793.002,-13.275C793.242,-14.085,793.422,-14.82,793.542,-15.48ZM793.542,-26.91C793.542,-26.97,793.542,-27.045,793.542,-27.135C793.542,-27.225,793.572,-27.33,793.632,-27.45C793.632,-27.57,793.632,-27.675,793.632,-27.765C793.632,-27.855,793.632,-27.96,793.632,-28.08C793.632,-31.92,792.522,-34.965,790.302,-37.215C788.082,-39.465,785.622,-40.86,782.922,-41.4C782.442,-41.52,781.962,-41.61,781.482,-41.67C781.002,-41.73,780.522,-41.76,780.042,-41.76C779.142,-41.76,778.122,-41.685,776.982,-41.535C775.842,-41.385,774.672,-41.01,773.472,-40.41C771.852,-39.63,770.277,-38.205,768.747,-36.135C767.217,-34.065,766.032,-30.96,765.192,-26.82ZM810.016,-13.5C810.376,-10.26,811.771,-7.89,814.201,-6.39C816.631,-4.89,819.256,-4.14,822.076,-4.14C825.616,-4.14,828.631,-4.89,831.121,-6.39C833.611,-7.89,834.856,-10.23,834.856,-13.41C834.856,-16.35,833.551,-18.375,830.941,-19.485C828.331,-20.595,825.376,-21.54,822.076,-22.32C821.776,-22.38,821.476,-22.44,821.176,-22.5C820.876,-22.56,820.576,-22.62,820.276,-22.68C816.676,-23.52,813.361,-24.705,810.331,-26.235C807.301,-27.765,805.786,-30.57,805.786,-34.65C805.786,-37.83,807.091,-40.635,809.701,-43.065C812.311,-45.495,816.436,-46.71,822.076,-46.71C826.696,-46.71,830.716,-45.975,834.136,-44.505C837.556,-43.035,839.446,-39.99,839.806,-35.37L833.416,-35.46C833.056,-37.5,831.871,-39.165,829.861,-40.455C827.851,-41.745,825.256,-42.39,822.076,-42.39C818.896,-42.39,816.616,-41.895,815.236,-40.905C813.856,-39.915,812.956,-38.85,812.536,-37.71C812.416,-37.29,812.326,-36.885,812.266,-36.495C812.206,-36.105,812.176,-35.73,812.176,-35.37C812.176,-33.15,813.286,-31.545,815.506,-30.555C817.726,-29.565,820.306,-28.71,823.246,-27.99C823.846,-27.81,824.431,-27.66,825.001,-27.54C825.571,-27.42,826.156,-27.27,826.756,-27.09C830.356,-26.13,833.671,-24.78,836.701,-23.04C839.731,-21.3,841.246,-18.3,841.246,-14.04C841.246,-9.12,839.296,-5.31,835.396,-2.61C831.496,0.0900001,827.056,1.44,822.076,1.44C821.236,1.44,820.366,1.395,819.466,1.305C818.566,1.215,817.666,1.08,816.766,0.9C813.826,0.3,811.096,-1.08,808.576,-3.24C806.056,-5.4,804.646,-8.79,804.346,-13.41Z" transform="translate(958,510.391)"/>
    <path fill="#363636" stroke="none" d="M10.62,-45.36L10.62,-55.26C10.62,-59.28,11.64,-62.085,13.68,-63.675C15.72,-65.265,17.94,-66.09,20.34,-66.15C20.46,-66.15,20.565,-66.15,20.655,-66.15C20.745,-66.15,20.82,-66.15,20.88,-66.15C21.96,-66.15,23.025,-66.045,24.075,-65.835C25.125,-65.625,26.07,-65.37,26.91,-65.07L26.91,-60.21C26.25,-60.45,25.575,-60.645,24.885,-60.795C24.195,-60.945,23.52,-61.02,22.86,-61.02C21.12,-61.02,19.59,-60.405,18.27,-59.175C16.95,-57.945,16.29,-55.92,16.29,-53.1L16.29,-45.36L26.91,-45.36L26.91,-40.41L16.29,-40.41L16.29,0L10.62,0L10.62,-40.41L1.44,-40.41L1.44,-45.36ZM32.1369,-45.36L37.8069,-45.36C37.9869,-44.76,38.1219,-44.235,38.2119,-43.785C38.3019,-43.335,38.3769,-42.9,38.4369,-42.48C38.4969,-42,38.5269,-41.535,38.5269,-41.085C38.5269,-40.635,38.5269,-40.14,38.5269,-39.6C39.7869,-43.2,41.6319,-45.3,44.0619,-45.9C46.4919,-46.5,49.2969,-46.77,52.4769,-46.71C52.7169,-46.71,52.9719,-46.71,53.2419,-46.71C53.5119,-46.71,53.7969,-46.71,54.0969,-46.71L54.0969,-41.85C53.6769,-41.85,53.2719,-41.865,52.8819,-41.895C52.4919,-41.925,52.0869,-41.94,51.6669,-41.94C48.0069,-41.94,44.9019,-40.74,42.3519,-38.34C39.8019,-35.94,38.5269,-32.82,38.5269,-28.98L38.5269,0L32.8569,0L32.8569,-37.53C32.8569,-38.19,32.8569,-38.835,32.8569,-39.465C32.8569,-40.095,32.8269,-40.74,32.7669,-41.4C32.7069,-42,32.6319,-42.615,32.5419,-43.245C32.4519,-43.875,32.3169,-44.55,32.1369,-45.27ZM55.0037,-23.4C55.0037,-30.06,56.8487,-35.73,60.5387,-40.41C64.2288,-45.09,69.2538,-47.43,75.6138,-47.43C81.9737,-47.43,87.1037,-45.18,91.0038,-40.68C94.9038,-36.18,96.8538,-30.39,96.8538,-23.31C96.8538,-16.23,94.9338,-10.335,91.0938,-5.625C87.2538,-0.915,82.3338,1.44,76.3338,1.44C70.3338,1.44,65.2788,-0.915,61.1688,-5.625C57.0588,-10.335,55.0037,-16.23,55.0037,-23.31ZM60.6738,-23.4C61.0338,-18.06,62.5788,-13.395,65.3088,-9.405C68.0387,-5.415,71.7138,-3.42,76.3338,-3.42C80.8938,-3.42,84.4938,-5.46,87.1338,-9.54C89.7738,-13.62,91.1238,-18.12,91.1838,-23.04C91.1838,-23.1,91.1838,-23.145,91.1838,-23.175C91.1838,-23.205,91.1838,-23.25,91.1838,-23.31C91.1838,-28.11,89.8338,-32.49,87.1338,-36.45C84.4338,-40.41,80.9238,-42.39,76.6038,-42.39C76.5437,-42.39,76.4688,-42.39,76.3788,-42.39C76.2888,-42.39,76.2138,-42.39,76.1537,-42.39C76.0338,-42.39,75.9438,-42.39,75.8838,-42.39C75.8238,-42.39,75.7338,-42.39,75.6138,-42.39C70.9938,-42.09,67.3488,-40.08,64.6787,-36.36C62.0088,-32.64,60.6738,-28.29,60.6738,-23.31ZM109.097,-38.97C109.337,-39.21,109.577,-39.465,109.817,-39.735C110.057,-40.005,110.297,-40.29,110.537,-40.59C111.917,-42.09,113.642,-43.485,115.712,-44.775C117.782,-46.065,120.287,-46.71,123.228,-46.71C124.187,-46.71,125.252,-46.65,126.423,-46.53C127.592,-46.41,128.777,-46.11,129.977,-45.63C131.538,-45.03,133.038,-44.04,134.478,-42.66C135.918,-41.28,137.147,-39.3,138.167,-36.72C139.248,-38.94,140.628,-40.755,142.307,-42.165C143.987,-43.575,145.727,-44.67,147.527,-45.45C148.607,-45.87,149.687,-46.185,150.768,-46.395C151.847,-46.605,152.837,-46.71,153.738,-46.71C159.438,-46.71,163.578,-45.165,166.158,-42.075C168.737,-38.985,170.027,-35.31,170.027,-31.05L170.027,0L164.357,0L164.357,-29.79C164.357,-30.33,164.312,-30.9,164.223,-31.5C164.132,-32.1,163.997,-32.73,163.818,-33.39C163.278,-35.49,162.108,-37.41,160.307,-39.15C158.507,-40.89,155.837,-41.76,152.298,-41.76C151.637,-41.76,150.932,-41.685,150.182,-41.535C149.432,-41.385,148.667,-41.13,147.887,-40.77C145.787,-39.87,143.867,-38.295,142.128,-36.045C140.388,-33.795,139.518,-30.72,139.518,-26.82L139.518,0L133.848,0L133.848,-29.79C133.848,-32.79,132.798,-35.535,130.697,-38.025C128.597,-40.515,125.778,-41.76,122.238,-41.76C122.058,-41.76,121.877,-41.76,121.697,-41.76C121.517,-41.76,121.337,-41.76,121.158,-41.76C117.618,-41.46,114.828,-39.915,112.787,-37.125C110.748,-34.335,109.548,-31.32,109.188,-28.08C109.188,-27.72,109.173,-27.375,109.143,-27.045C109.112,-26.715,109.097,-26.4,109.097,-26.1L109.097,0L103.427,0L103.427,-34.74C103.427,-35.04,103.427,-35.325,103.427,-35.595C103.427,-35.865,103.427,-36.15,103.427,-36.45C103.427,-37.29,103.382,-38.295,103.292,-39.465C103.202,-40.635,103.007,-42.57,102.707,-45.27L108.378,-45.36C108.737,-43.56,108.947,-42.03,109.007,-40.77C109.067,-39.51,109.097,-38.88,109.097,-38.88ZM202.336,-64.53L227.176,-64.53C233.236,-64.47,237.706,-62.805,240.586,-59.535C243.466,-56.265,244.906,-52.68,244.906,-48.78C244.906,-44.22,244.021,-40.875,242.251,-38.745C240.481,-36.615,237.826,-35.01,234.286,-33.93C235.846,-33.69,237.046,-33.33,237.886,-32.85C238.726,-32.37,239.386,-31.89,239.866,-31.41C240.046,-31.17,240.211,-30.96,240.361,-30.78C240.511,-30.6,240.646,-30.42,240.766,-30.24C240.886,-30.18,240.991,-30.09,241.081,-29.97C241.171,-29.85,241.246,-29.76,241.306,-29.7C242.386,-28.44,243.136,-26.4,243.556,-23.58C243.976,-20.76,244.276,-17.76,244.456,-14.58C244.456,-14.46,244.471,-14.34,244.501,-14.22C244.531,-14.1,244.546,-13.98,244.546,-13.86C244.726,-10.98,244.966,-8.265,245.266,-5.715C245.566,-3.165,246.136,-1.26,246.976,0L240.676,0C239.776,-1.08,239.176,-2.7,238.876,-4.86C238.576,-7.02,238.336,-9.36,238.156,-11.88C238.156,-12.36,238.141,-12.84,238.111,-13.32C238.081,-13.8,238.036,-14.28,237.976,-14.76C237.676,-18.84,236.941,-22.575,235.771,-25.965C234.601,-29.355,231.976,-31.05,227.896,-31.05L208.726,-31.14L208.726,0L202.336,0ZM208.726,-59.49L208.726,-36.81L224.296,-36.81C228.556,-36.75,231.991,-37.65,234.601,-39.51C237.211,-41.37,238.516,-44.22,238.516,-48.06C238.516,-51.96,237.376,-54.825,235.096,-56.655C232.816,-58.485,229.006,-59.4,223.666,-59.4ZM257.051,-8.46L264.881,-8.46L264.881,0L257.051,0Z" transform="translate(958,612.108)"/>
    <path fill="#5f5f5f" stroke="none" d="M22.2,0L31.7,0L53.7,-50.2L43.3,-50.2L27.7,-10.4L11.7,-50.2L1.2,-50.2ZM55.4938,-33.8C55.4938,-21.4,57.6937,-14.7,59.9938,-10.1C62.9938,-4,69.2937,1.4,78.4938,1.4C81.5938,1.4,87.3938,0.7,92.2937,-3.9C98.5938,-9.8,101.894,-19,101.894,-35.4C101.894,-48.4,99.3938,-70.6,78.6937,-70.6C56.6937,-70.6,55.4938,-44.1,55.4938,-33.8ZM65.0938,-34.3C65.0938,-46.7,66.6937,-62.6,78.7937,-62.6C89.2937,-62.6,92.1938,-51.1,92.1938,-34.5C92.1938,-22.1,90.1937,-6.9,78.5938,-6.9C68.0938,-6.9,65.0938,-18.9,65.0938,-34.3ZM110.287,0L121.387,0L121.387,-12L110.287,-12ZM129.284,-17.8C129.384,-14.9,129.484,-9.9,133.384,-5.5C137.784,-0.4,145.084,1.7,152.384,1.7C168.484,1.7,176.384,-9,176.384,-18.7C176.384,-20.1,176.384,-33.4,161.584,-35.5C172.284,-37.9,175.384,-46.1,175.384,-51.8C175.384,-61.4,167.884,-70.5,152.784,-70.5C147.184,-70.5,130.984,-68.8,130.384,-51.6L140.484,-51.6C141.384,-60.2,147.884,-62.5,153.084,-62.5C159.984,-62.5,165.284,-59.4,165.284,-51.6C165.284,-40.4,153.684,-39,146.784,-39.6L146.784,-31.5C150.284,-31.6,152.784,-31.7,156.384,-31C161.484,-29.9,166.384,-26.1,166.384,-18.8C166.384,-12.7,162.284,-6.5,152.584,-6.5C144.084,-6.5,139.784,-11.2,139.884,-17.8Z" transform="translate(1402,185.046)"/>
    <path d="M0,0L967.5,0" stroke="#a3a3a3" fill="none" stroke-width="5" stroke-linecap="square" transform="translate(958,233.95)"/>
</svg>
