<?xml version="1.0" encoding="UTF-8" standalone="no"?>
<!-- Created with Keyshape -->
<svg xmlns="http://www.w3.org/2000/svg" width="2000" height="900" viewBox="0 0 2000 900">
    <defs>
        <linearGradient id="Gradient-0" x1="15" y1="0" x2="15" y2="10.1961" gradientUnits="userSpaceOnUse">
            <stop offset="0" stop-color="#ffffff" stop-opacity="0.5"/>
            <stop offset="1" stop-color="#00ac2a"/>
        </linearGradient>
    </defs>
    <style>
@keyframes a0_o { 0% { opacity: 0; } 39.4737% { opacity: 0; } 40.7895% { opacity: 1; animation-timing-function: cubic-bezier(0.42,0,1,1); } 98.6842% { opacity: 0; } 100% { opacity: 0; } }
@keyframes a1_o { 0% { opacity: 0; } 50% { opacity: 0; } 51.3158% { opacity: 1; animation-timing-function: cubic-bezier(0.42,0,1,1); } 98.6842% { opacity: 0; } 100% { opacity: 0; } }
@keyframes a2_o { 0% { opacity: 0; } 50% { opacity: 0; } 51.3158% { opacity: 1; animation-timing-function: cubic-bezier(0.42,0,1,1); } 98.6842% { opacity: 0; } 100% { opacity: 0; } }
@keyframes a3_o { 0% { opacity: 0; } 57.8947% { opacity: 0; } 59.2105% { opacity: 1; animation-timing-function: cubic-bezier(0.42,0,1,1); } 98.6842% { opacity: 0; } 100% { opacity: 0; } }
@keyframes a4_o { 0% { opacity: 0; } 61.1842% { opacity: 0; } 62.5% { opacity: 1; animation-timing-function: cubic-bezier(0.42,0,1,1); } 98.6842% { opacity: 0; } 100% { opacity: 0; } }
@keyframes a5_o { 0% { opacity: 0; } 61.1842% { opacity: 0; } 62.5% { opacity: 1; animation-timing-function: cubic-bezier(0.42,0,1,1); } 98.6842% { opacity: 0; } 100% { opacity: 0; } }
@keyframes a6_o { 0% { opacity: 0; } 54.6053% { opacity: 0; } 55.9211% { opacity: 1; animation-timing-function: cubic-bezier(0.42,0,1,1); } 98.0263% { opacity: 0; } 100% { opacity: 0; } }
@keyframes a7_o { 0% { opacity: 0; } 44.7368% { opacity: 0; } 46.0526% { opacity: 1; animation-timing-function: cubic-bezier(0.42,0,1,1); } 98.6842% { opacity: 0; } 100% { opacity: 0; } }
@keyframes a8_o { 0% { opacity: 0; } 42.7632% { opacity: 0; } 44.0789% { opacity: 1; animation-timing-function: cubic-bezier(0.42,0,1,1); } 98.6842% { opacity: 0; } 100% { opacity: 0; } }
@keyframes a9_o { 0% { opacity: 0; } 59.8684% { opacity: 0; } 61.1842% { opacity: 1; animation-timing-function: cubic-bezier(0.42,0,1,1); } 98.6842% { opacity: 0; } 100% { opacity: 0; } }
@keyframes a10_o { 0% { opacity: 0; } 59.8684% { opacity: 0; } 61.1842% { opacity: 1; animation-timing-function: cubic-bezier(0.42,0,1,1); } 98.6842% { opacity: 0; } 100% { opacity: 0; } }
@keyframes a11_o { 0% { opacity: 0; } 50% { opacity: 0; } 51.3158% { opacity: 1; animation-timing-function: cubic-bezier(0.42,0,1,1); } 98.6842% { opacity: 0; } 100% { opacity: 0; } }
@keyframes a12_o { 0% { opacity: 0; } 30.9211% { opacity: 0; } 32.2368% { opacity: 1; animation-timing-function: cubic-bezier(0.42,0,1,1); } 98.6842% { opacity: 0; } 100% { opacity: 0; } }
@keyframes a13_o { 0% { opacity: 0; } 30.9211% { opacity: 0; } 32.2368% { opacity: 1; animation-timing-function: cubic-bezier(0.42,0,1,1); } 98.6842% { opacity: 0; } 100% { opacity: 0; } }
@keyframes a14_o { 0% { opacity: 0; } 28.2895% { opacity: 0; } 29.6053% { opacity: 1; animation-timing-function: cubic-bezier(0.42,0,1,1); } 98.6842% { opacity: 0; } 100% { opacity: 0; } }
@keyframes a15_o { 0% { opacity: 0; } 29.6053% { opacity: 0; } 30.9211% { opacity: 1; animation-timing-function: cubic-bezier(0.42,0,1,1); } 98.6842% { opacity: 0; } 100% { opacity: 0; } }
@keyframes a16_o { 0% { opacity: 0; } 21.7105% { opacity: 0; } 23.0263% { opacity: 1; animation-timing-function: cubic-bezier(0.42,0,1,1); } 98.6842% { opacity: 0; } 100% { opacity: 0; } }
@keyframes a17_o { 0% { opacity: 0; } 18.4211% { opacity: 0; } 19.7368% { opacity: 1; animation-timing-function: cubic-bezier(0.42,0,1,1); } 98.6842% { opacity: 0; } 100% { opacity: 0; } }
@keyframes a18_o { 0% { opacity: 0; } 15.7895% { opacity: 0; } 17.1053% { opacity: 1; animation-timing-function: cubic-bezier(0.42,0,1,1); } 98.6842% { opacity: 0; } 100% { opacity: 0; } }
@keyframes a19_o { 0% { opacity: 0; } 11.8421% { opacity: 0; } 13.1579% { opacity: 1; animation-timing-function: cubic-bezier(0.42,0,1,1); } 100% { opacity: 0; } }
@keyframes a20_o { 0% { opacity: 0; } 10.5263% { opacity: 0; } 11.8421% { opacity: 1; animation-timing-function: cubic-bezier(0.42,0,1,1); } 98.6842% { opacity: 0; } 100% { opacity: 0; } }
@keyframes a21_o { 0% { opacity: 0; } 18.4211% { opacity: 0; } 19.7368% { opacity: 1; animation-timing-function: cubic-bezier(0.42,0,1,1); } 98.6842% { opacity: 0; } 100% { opacity: 0; } }
@keyframes a22_o { 0% { opacity: 0; } 18.4211% { opacity: 0; } 19.7368% { opacity: 1; animation-timing-function: cubic-bezier(0.42,0,1,1); } 98.6842% { opacity: 0; } 100% { opacity: 0; } }
@keyframes a23_o { 0% { opacity: 0; } 15.7895% { opacity: 0; } 17.1053% { opacity: 1; animation-timing-function: cubic-bezier(0.42,0,1,1); } 98.6842% { opacity: 0; } 100% { opacity: 0; } }
@keyframes a24_o { 0% { opacity: 0; } 28.2895% { opacity: 0; } 29.6053% { opacity: 1; animation-timing-function: cubic-bezier(0.42,0,1,1); } 98.6842% { opacity: 0; } 100% { opacity: 0; } }
@keyframes a25_o { 0% { opacity: 0; } 21.7105% { opacity: 0; } 23.0263% { opacity: 1; animation-timing-function: cubic-bezier(0.42,0,1,1); } 98.6842% { opacity: 0; } 100% { opacity: 0; } }
@keyframes a26_o { 0% { opacity: 0; } 29.6053% { opacity: 0; } 30.9211% { opacity: 1; animation-timing-function: cubic-bezier(0.42,0,1,1); } 98.6842% { opacity: 0; } 100% { opacity: 0; } }
@keyframes a27_o { 0% { opacity: 0; } 25% { opacity: 0; } 26.3158% { opacity: 1; animation-timing-function: cubic-bezier(0.42,0,1,1); } 98.6842% { opacity: 0; } 100% { opacity: 0; } }
@keyframes a28_o { 0% { opacity: 0; } 29.6053% { opacity: 0; } 30.9211% { opacity: 1; animation-timing-function: cubic-bezier(0.42,0,1,1); } 98.6842% { opacity: 0; } 100% { opacity: 0; } }
@keyframes a29_o { 0% { opacity: 0; } 28.2895% { opacity: 0; } 29.6053% { opacity: 1; animation-timing-function: cubic-bezier(0.42,0,1,1); } 98.6842% { opacity: 0; } 100% { opacity: 0; } }
@keyframes a30_o { 0% { opacity: 0; } 27.6316% { opacity: 0; } 28.2895% { opacity: 1; animation-timing-function: cubic-bezier(0.42,0,1,1); } 98.6842% { opacity: 0; } 100% { opacity: 0; } }
@keyframes a31_o { 0% { opacity: 0; } 23.6842% { opacity: 0; } 25% { opacity: 1; animation-timing-function: cubic-bezier(0.42,0,1,1); } 98.6842% { opacity: 0; } 100% { opacity: 0; } }
@keyframes a32_o { 0% { opacity: 0; } 32.8947% { opacity: 0; } 34.2105% { opacity: 1; animation-timing-function: cubic-bezier(0.42,0,1,1); } 98.6842% { opacity: 0; } 100% { opacity: 0; } }
@keyframes a33_o { 0% { opacity: 0; } 23.6842% { opacity: 0; } 25% { opacity: 1; animation-timing-function: cubic-bezier(0.42,0,1,1); } 98.6842% { opacity: 0; } 100% { opacity: 0; } }
@keyframes a34_o { 0% { opacity: 0; } 20.3947% { opacity: 0; } 21.7105% { opacity: 1; animation-timing-function: cubic-bezier(0.42,0,1,1); } 98.6842% { opacity: 0; } 100% { opacity: 0; } }
@keyframes a35_o { 0% { opacity: 0; } 17.7632% { opacity: 0; } 19.0789% { opacity: 1; animation-timing-function: cubic-bezier(0.42,0,1,1); } 98.6842% { opacity: 0; } 100% { opacity: 0; } }
@keyframes a36_o { 0% { opacity: 0; } 26.3158% { opacity: 0; } 27.6316% { opacity: 1; animation-timing-function: cubic-bezier(0.42,0,1,1); } 98.6842% { opacity: 0; } 100% { opacity: 0; } }
@keyframes a37_o { 0% { opacity: 0; } 25% { opacity: 0; } 26.3158% { opacity: 1; animation-timing-function: cubic-bezier(0.42,0,1,1); } 98.6842% { opacity: 0; } 100% { opacity: 0; } }
@keyframes a38_o { 0% { opacity: 0; } 23.6842% { opacity: 0; } 25% { opacity: 1; animation-timing-function: cubic-bezier(0.42,0,1,1); } 98.6842% { opacity: 0; } 100% { opacity: 0; } }
@keyframes a39_o { 0% { opacity: 0; } 25% { opacity: 0; } 26.3158% { opacity: 1; animation-timing-function: cubic-bezier(0.42,0,1,1); } 98.6842% { opacity: 0; } 100% { opacity: 0; } }
@keyframes a40_o { 0% { opacity: 0; } 26.3158% { opacity: 0; } 27.6316% { opacity: 1; animation-timing-function: cubic-bezier(0.42,0,1,1); } 98.6842% { opacity: 0; } 100% { opacity: 0; } }
@keyframes a41_o { 0% { opacity: 0; } 27.6316% { opacity: 0; } 28.9474% { opacity: 1; animation-timing-function: cubic-bezier(0.42,0,1,1); } 98.6842% { opacity: 0; } 100% { opacity: 0; } }
@keyframes a42_o { 0% { opacity: 0; } 38.8158% { opacity: 0; } 40.1316% { opacity: 1; animation-timing-function: cubic-bezier(0.42,0,1,1); } 98.6842% { opacity: 0; } 100% { opacity: 0; } }
@keyframes a43_o { 0% { opacity: 0; } 38.8158% { opacity: 0; } 40.1316% { opacity: 1; animation-timing-function: cubic-bezier(0.42,0,1,1); } 98.6842% { opacity: 0; } 100% { opacity: 0; } }
@keyframes a44_o { 0% { opacity: 0; } 38.8158% { opacity: 0; } 40.1316% { opacity: 1; animation-timing-function: cubic-bezier(0.42,0,1,1); } 98.6842% { opacity: 0; } 100% { opacity: 0; } }
@keyframes a45_o { 0% { opacity: 0; } 37.5% { opacity: 0; } 38.8158% { opacity: 1; animation-timing-function: cubic-bezier(0.42,0,1,1); } 98.6842% { opacity: 0; } 100% { opacity: 0; } }
@keyframes a46_o { 0% { opacity: 0; } 40.7895% { opacity: 0; } 42.1053% { opacity: 1; animation-timing-function: cubic-bezier(0.42,0,1,1); } 98.6842% { opacity: 0; } 100% { opacity: 0; } }
@keyframes a47_o { 0% { opacity: 0; } 40.7895% { opacity: 0; } 42.1053% { opacity: 1; animation-timing-function: cubic-bezier(0.42,0,1,1); } 98.6842% { opacity: 0; } 100% { opacity: 0; } }
@keyframes a48_o { 0% { opacity: 0; } 40.7895% { opacity: 0; } 42.1053% { opacity: 1; animation-timing-function: cubic-bezier(0.42,0,1,1); } 98.6842% { opacity: 0; } 100% { opacity: 0; } }
@keyframes a49_o { 0% { opacity: 0; } 29.6053% { opacity: 0; } 30.9211% { opacity: 1; animation-timing-function: cubic-bezier(0.42,0,1,1); } 98.6842% { opacity: 0; } 100% { opacity: 0; } }
@keyframes a50_o { 0% { opacity: 0; } 9.8684% { opacity: 0; } 11.1842% { opacity: 1; animation-timing-function: cubic-bezier(0.42,0,1,1); } 98.6842% { opacity: 0; } 100% { opacity: 0; } }
@keyframes a51_o { 0% { opacity: 0; } 5.2632% { opacity: 0; } 5.9211% { opacity: 1; animation-timing-function: cubic-bezier(0.42,0,1,1); } 98.6842% { opacity: 0; } 100% { opacity: 0; } }
@keyframes a52_o { 0% { opacity: 0; } 4.6053% { opacity: 0; } 5.2632% { opacity: 1; animation-timing-function: cubic-bezier(0.42,0,1,1); } 98.6842% { opacity: 0; } 100% { opacity: 0; } }
@keyframes a53_o { 0% { opacity: 0; } 4.6053% { opacity: 0; } 5.2632% { opacity: 1; animation-timing-function: cubic-bezier(0.42,0,1,1); } 98.6842% { opacity: 0; } 100% { opacity: 0; } }
@keyframes a54_o { 0% { opacity: 0; } 2.6316% { opacity: 0; } 3.2895% { opacity: 1; animation-timing-function: cubic-bezier(0.42,0,1,1); } 98.6842% { opacity: 0; } 100% { opacity: 0; } }
@keyframes a55_o { 0% { opacity: 0; } 15.7895% { opacity: 0; } 16.4474% { opacity: 1; animation-timing-function: cubic-bezier(0.42,0,1,1); } 98.6842% { opacity: 0; } 100% { opacity: 0; } }
@keyframes a56_o { 0% { opacity: 0; } 15.7895% { opacity: 0; } 16.4474% { opacity: 1; animation-timing-function: cubic-bezier(0.42,0,1,1); } 98.6842% { opacity: 0; } 100% { opacity: 0; } }
@keyframes a57_o { 0% { opacity: 0; } 13.8158% { opacity: 0; } 15.1316% { opacity: 1; animation-timing-function: cubic-bezier(0.42,0,1,1); } 98.6842% { opacity: 0; } 100% { opacity: 0; } }
@keyframes a58_o { 0% { opacity: 0; } 15.7895% { opacity: 0; } 16.6447% { opacity: 1; animation-timing-function: cubic-bezier(0.42,0,1,1); } 98.6842% { opacity: 0; } 100% { opacity: 0; } }
@keyframes a59_o { 0% { opacity: 0; } 17.1053% { opacity: 0; } 17.7632% { opacity: 1; animation-timing-function: cubic-bezier(0.42,0,1,1); } 98.6842% { opacity: 0; } 100% { opacity: 0; } }
@keyframes a60_o { 0% { opacity: 0; } 9.8684% { opacity: 0; } 10.5263% { opacity: 1; animation-timing-function: cubic-bezier(0.42,0,1,1); } 98.6842% { opacity: 0; } 100% { opacity: 0; } }
@keyframes a61_o { 0% { opacity: 0; } 10.5263% { opacity: 0; } 11.1842% { opacity: 1; animation-timing-function: cubic-bezier(0.42,0,1,1); } 98.6842% { opacity: 0; } 100% { opacity: 0; } }
@keyframes a62_o { 0% { opacity: 0; } 11.1842% { opacity: 0; } 11.8421% { opacity: 1; animation-timing-function: cubic-bezier(0.42,0,1,1); } 98.6842% { opacity: 0; } 100% { opacity: 0; } }
@keyframes a63_o { 0% { opacity: 0; } 13.8158% { opacity: 0; } 15.1316% { opacity: 1; animation-timing-function: cubic-bezier(0.42,0,1,1); } 98.6842% { opacity: 0; } 100% { opacity: 0; } }
@keyframes a64_o { 0% { opacity: 0; } 25% { opacity: 0; } 26.3158% { opacity: 1; animation-timing-function: cubic-bezier(0.42,0,1,1); } 98.6842% { opacity: 0; } 100% { opacity: 0; } }
@keyframes a65_o { 0% { opacity: 0; } 32.8947% { opacity: 0; } 34.2105% { opacity: 1; animation-timing-function: cubic-bezier(0.42,0,1,1); } 98.6842% { opacity: 0; } 100% { opacity: 0; } }
@keyframes a66_o { 0% { opacity: 0; } 42.1053% { opacity: 0; } 43.4211% { opacity: 1; animation-timing-function: cubic-bezier(0.42,0,1,1); } 98.6842% { opacity: 0; } 100% { opacity: 0; } }
@keyframes a67_o { 0% { opacity: 0; } 50% { opacity: 0; } 51.3158% { opacity: 1; animation-timing-function: cubic-bezier(0.42,0,1,1); } 98.6842% { opacity: 0; } 100% { opacity: 0; } }
@keyframes a68_o { 0% { opacity: 0; } 53.2895% { opacity: 0; } 54.6053% { opacity: 1; animation-timing-function: cubic-bezier(0.42,0,1,1); } 98.6842% { opacity: 0; } 100% { opacity: 0; } }
@keyframes a69_o { 0% { opacity: 0; } 43.4211% { opacity: 0; } 44.7368% { opacity: 1; animation-timing-function: cubic-bezier(0.42,0,1,1); } 98.6842% { opacity: 0; } 100% { opacity: 0; } }
@keyframes a70_o { 0% { opacity: 0; } 40.7895% { opacity: 0; } 42.1053% { opacity: 1; animation-timing-function: cubic-bezier(0.42,0,1,1); } 98.6842% { opacity: 0; } 100% { opacity: 0; } }
@keyframes a71_o { 0% { opacity: 0; } 37.5% { opacity: 0; } 38.8158% { opacity: 1; animation-timing-function: cubic-bezier(0.42,0,1,1); } 98.6842% { opacity: 0; } 100% { opacity: 0; } }
@keyframes a72_o { 0% { opacity: 0; } 39.4737% { opacity: 0; } 40.7895% { opacity: 1; animation-timing-function: cubic-bezier(0.42,0,1,1); } 98.6842% { opacity: 0; } 100% { opacity: 0; } }
@keyframes a73_o { 0% { opacity: 0; } 42.1053% { opacity: 0; } 43.4211% { opacity: 1; animation-timing-function: cubic-bezier(0.42,0,1,1); } 98.6842% { opacity: 0; } 100% { opacity: 0; } }
@keyframes a74_o { 0% { opacity: 0; } 53.2895% { opacity: 0; } 54.6053% { opacity: 1; animation-timing-function: cubic-bezier(0.42,0,1,1); } 98.6842% { opacity: 0; } 100% { opacity: 0; } }
@keyframes a75_o { 0% { opacity: 0; } 51.3158% { opacity: 0; } 52.6316% { opacity: 1; animation-timing-function: cubic-bezier(0.42,0,1,1); } 98.6842% { opacity: 0; } 100% { opacity: 0; } }
@keyframes a76_o { 0% { opacity: 0; } 53.2895% { opacity: 0; } 54.6053% { opacity: 1; animation-timing-function: cubic-bezier(0.42,0,1,1); } 98.6842% { opacity: 0; } 100% { opacity: 0; } }
@keyframes a77_o { 0% { opacity: 0; } 53.2895% { opacity: 0; } 54.6053% { opacity: 1; animation-timing-function: cubic-bezier(0.42,0,1,1); } 98.6842% { opacity: 0; } 100% { opacity: 0; } }
@keyframes a78_o { 0% { opacity: 0; } 54.6053% { opacity: 0; } 55.9211% { opacity: 1; animation-timing-function: cubic-bezier(0.42,0,1,1); } 98.6842% { opacity: 0; } 100% { opacity: 0; } }
@keyframes a79_o { 0% { opacity: 0; } 53.2895% { opacity: 0; } 54.6053% { opacity: 1; animation-timing-function: cubic-bezier(0.42,0,1,1); } 98.6842% { opacity: 0; } 100% { opacity: 0; } }
@keyframes a80_o { 0% { opacity: 0; } 48.6842% { opacity: 0; } 50% { opacity: 1; animation-timing-function: cubic-bezier(0.42,0,1,1); } 98.6842% { opacity: 0; } 100% { opacity: 0; } }
@keyframes a81_o { 0% { opacity: 0; } 48.6842% { opacity: 0; } 50% { opacity: 1; animation-timing-function: cubic-bezier(0.42,0,1,1); } 98.6842% { opacity: 0; } 100% { opacity: 0; } }
@keyframes a82_o { 0% { opacity: 0; } 54.6053% { opacity: 0; } 55.9211% { opacity: 1; animation-timing-function: cubic-bezier(0.42,0,1,1); } 98.6842% { opacity: 0; } 100% { opacity: 0; } }
@keyframes a83_o { 0% { opacity: 0; } 48.6842% { opacity: 0; } 50% { opacity: 1; animation-timing-function: cubic-bezier(0.42,0,1,1); } 98.6842% { opacity: 0; } 100% { opacity: 0; } }
@keyframes a84_o { 0% { opacity: 0; } 28.2895% { opacity: 0; animation-timing-function: cubic-bezier(0.42,0,1,1); } 29.6053% { opacity: 1; animation-timing-function: cubic-bezier(0.42,0,1,1); } 98.6842% { opacity: 0; } 100% { opacity: 0; } }
@keyframes a85_o { 0% { opacity: 0; } 37.5% { opacity: 0; animation-timing-function: cubic-bezier(0.42,0,1,1); } 38.8158% { opacity: 1; animation-timing-function: cubic-bezier(0.42,0,1,1); } 98.6842% { opacity: 0; } 100% { opacity: 0; } }
@keyframes a86_o { 0% { opacity: 0; } 35.5263% { opacity: 0; animation-timing-function: cubic-bezier(0.42,0,1,1); } 36.8421% { opacity: 1; animation-timing-function: cubic-bezier(0.42,0,1,1); } 98.6842% { opacity: 0; } 100% { opacity: 0; } }
@keyframes a87_o { 0% { opacity: 0; } 44.7368% { opacity: 0; animation-timing-function: cubic-bezier(0.42,0,1,1); } 46.0526% { opacity: 1; animation-timing-function: cubic-bezier(0.42,0,1,1); } 98.6842% { opacity: 0; } 100% { opacity: 0; } }
@keyframes a88_o { 0% { opacity: 0; } 44.7368% { opacity: 0; animation-timing-function: cubic-bezier(0.42,0,1,1); } 46.0526% { opacity: 1; animation-timing-function: cubic-bezier(0.42,0,1,1); } 98.6842% { opacity: 0; } 100% { opacity: 0; } }
@keyframes a89_o { 0% { opacity: 0; } 46.7105% { opacity: 0; animation-timing-function: cubic-bezier(0.42,0,1,1); } 48.0263% { opacity: 1; animation-timing-function: cubic-bezier(0.42,0,1,1); } 98.6842% { opacity: 0; } 100% { opacity: 0; } }
@keyframes a90_o { 0% { opacity: 0; } 46.7105% { opacity: 0; animation-timing-function: cubic-bezier(0.42,0,1,1); } 48.0263% { opacity: 1; animation-timing-function: cubic-bezier(0.42,0,1,1); } 98.6842% { opacity: 0; } 100% { opacity: 0; } }
@keyframes a91_o { 0% { opacity: 0; } 44.7368% { opacity: 0; animation-timing-function: cubic-bezier(0.42,0,1,1); } 46.0526% { opacity: 1; animation-timing-function: cubic-bezier(0.42,0,1,1); } 98.6842% { opacity: 0; } 100% { opacity: 0; } }
@keyframes a92_o { 0% { opacity: 0; } 44.7368% { opacity: 0; animation-timing-function: cubic-bezier(0.42,0,1,1); } 46.0526% { opacity: 1; animation-timing-function: cubic-bezier(0.42,0,1,1); } 98.6842% { opacity: 0; } 100% { opacity: 0; } }
@keyframes sweeper-4_t { 0% { transform: translate(352.162px,13.75px); } 17.1052% { transform: translate(3.162px,218.729961px); } 49.3421% { transform: translate(3.162px,626.289961px); } 65.7894% { transform: translate(358.162px,833.169961px); } 100% { transform: translate(358.162px,833.169961px); } }
@keyframes sweeper-4_w { 0% { width: 30px; } 17.1053% { width: 728px; } 49.3421% { width: 728px; } 65.7895% { width: 18px; } 100% { width: 18px; } }
@keyframes sweeper-3_t { 0% { transform: translate(-15px,-5px); animation-timing-function: cubic-bezier(0,0,1,1); } 17.1052% { transform: translate(-364px,-5.098039px); } 49.3421% { transform: translate(-355px,-5.098039px); } 65.7894% { transform: translate(-9px,-5.098039px); } 100% { transform: translate(-9px,-5.098039px); } }
@keyframes sweeper-3_w { 0% { width: 30px; } 17.1053% { width: 728px; } 49.3421% { width: 728px; } 65.7895% { width: 18px; } 100% { width: 18px; } }
@keyframes sweeper-3_mo { 0% { offset-distance: 0%; animation-timing-function: cubic-bezier(0,0,1,1); } 17.1053% { offset-distance: 25.048%; animation-timing-function: cubic-bezier(0,0,1,1); } 49.3421% { offset-distance: 74.893%; animation-timing-function: cubic-bezier(0,0,1,1); } 65.7895% { offset-distance: 100%; } 100% { offset-distance: 100%; } }
    </style>
    <rect width="2000" height="900" stroke="none" fill="#f8f8f8" stroke-width="5" stroke-linecap="square" transform="translate(1050,450) translate(-1050,-450)"/>
    <title>blastula_hex_logo</title>
    <desc>Created with Sketch.</desc>
    <path d="M0,-34.2481L0,814.252" stroke="#a3a3a3" fill="none" stroke-linecap="square" stroke-width="5" transform="translate(894.5,59.9981)"/>
    <path fill="#363636" stroke="none" d="M10.2,23.16L21.36,23.16L21.36,-6.72C24.6,-1.44,31.08,2.28,39.84,2.28C54.24,2.28,67.32,-7.56,67.32,-30C67.32,-52.32,54.96,-61.2,42,-61.2C37.08,-61.2,27.12,-59.76,21.48,-50.28L21.24,-60.24L9.84,-60.24C10.08,-54.48,10.2,-53.04,10.2,-50.4ZM21,-28.32C21,-33.72,21,-52.8,39,-52.8C52.32,-52.8,55.56,-41.52,55.56,-30.72C55.56,-26.4,54.96,-17.76,50.64,-11.88C46.8,-6.6,40.8,-6,37.92,-6C22.08,-6,21,-21,21,-28.32ZM74.0325,-29.4C74.0325,-11.76,83.7525,2.04,103.673,2.04C124.193,2.04,134.152,-12.6,134.152,-30.24C134.152,-42.84,128.753,-61.8,104.632,-61.8C80.9925,-61.8,74.0325,-44.28,74.0325,-29.4ZM85.7925,-30.12C85.7925,-48.96,97.4325,-53.52,104.632,-53.52C115.192,-53.52,122.152,-45.6,122.152,-30.6C122.152,-12.48,112.432,-6.36,103.912,-6.36C91.0725,-6.36,85.7925,-17.76,85.7925,-30.12ZM145.305,-74.04L158.865,-74.04L158.865,-86.4L145.305,-86.4ZM146.505,0L157.785,0L157.785,-60.24L146.505,-60.24ZM174.704,0L185.984,0L185.984,-34.68C185.984,-46.8,193.544,-52.68,201.704,-52.68C205.544,-52.68,209.504,-51.36,212.384,-48.6C215.144,-45.84,215.624,-42.24,215.624,-38.28L215.624,0L227.144,0L227.144,-40.92C227.144,-59.4,210.704,-61.44,205.304,-61.44C191.624,-61.44,187.304,-53.04,185.984,-50.52L185.864,-60.24L174.584,-60.24L174.704,-53.28ZM233.017,-52.2L243.697,-52.2L243.697,-12C243.697,-2.16,248.617,0.84,258.937,0.84C263.017,0.84,266.257,0.48,268.297,0.12L268.297,-8.64C267.337,-8.4,265.177,-8.04,262.897,-8.04C254.857,-8.04,254.857,-13.08,254.857,-16.08L254.857,-52.2L268.297,-52.2L268.297,-60.48L254.857,-60.48L254.857,-76.68L243.697,-73.08L243.697,-60.48L233.017,-60.48ZM288.09,-86.64L276.81,-86.64L276.81,-10.8L276.57,0L287.49,0L287.73,-9.12C288.93,-7.32,290.25,-5.28,293.61,-3C298.77,0.48,304.17,0.84,307.05,0.84C315.33,0.84,323.37,-2.64,328.17,-9.48C331.17,-13.44,333.93,-19.8,333.93,-31.44C333.93,-44.64,329.85,-50.64,326.85,-54.12C321.33,-60.36,313.77,-61.8,307.77,-61.8C294.09,-61.8,289.65,-54.24,288.09,-51.48ZM322.05,-30.72C322.05,-20.88,318.57,-7.32,304.65,-7.32C287.85,-7.32,287.85,-26.16,287.85,-30.12C287.85,-33.96,287.85,-54.12,305.13,-54.12C320.85,-54.12,322.05,-36.72,322.05,-30.72ZM344.962,0L356.242,0L356.242,-86.52L344.962,-86.52ZM419.602,0C418.762,-6.12,418.642,-14.16,418.642,-15.12L419.122,-43.92C419.122,-46.68,419.002,-49.56,417.082,-53.16C413.842,-59.28,404.482,-62.04,395.722,-62.04C389.362,-62.04,380.842,-60.6,376.282,-55.56C372.802,-51.48,372.442,-47.28,372.082,-44.16L383.362,-44.16C383.482,-46.56,384.082,-54.36,395.482,-54.36C398.722,-54.36,403.642,-53.4,405.922,-50.4C408.082,-47.76,408.082,-44.52,408.082,-37.08C404.602,-37.32,402.802,-37.44,399.922,-37.44C395.122,-37.44,385.522,-37.08,379.042,-33.48C370.162,-28.32,368.482,-20.64,368.482,-15.84C368.482,-5.88,375.922,1.92,389.722,1.92C394.762,1.92,402.922,0.96,408.322,-9C408.322,-5.88,408.562,-3,409.402,0ZM408.082,-29.28C407.842,-20.88,407.722,-17.52,405.202,-13.44C402.442,-9.24,398.122,-6.96,392.362,-6.96C382.282,-6.96,379.882,-13.56,379.882,-17.4C379.882,-29.64,397.042,-29.64,401.602,-29.64C404.362,-29.64,406.042,-29.52,408.082,-29.28ZM434.361,0L445.641,0L445.641,-34.68C445.641,-46.8,453.201,-52.68,461.361,-52.68C465.201,-52.68,469.161,-51.36,472.041,-48.6C474.801,-45.84,475.281,-42.24,475.281,-38.28L475.281,0L486.801,0L486.801,-40.92C486.801,-59.4,470.361,-61.44,464.961,-61.44C451.281,-61.44,446.961,-53.04,445.641,-50.52L445.521,-60.24L434.241,-60.24L434.361,-53.28ZM501.073,0L512.233,0L512.233,-32.52L536.353,0L551.113,0L524.113,-34.68L549.553,-60.24L534.793,-60.24L512.233,-35.64L512.233,-87.24L501.073,-87.24Z" transform="translate(958,185.046)"/>
    <path fill="#363636" stroke="none" d="M0,-65.16L7.11,-65.16L28.35,-6.39L48.15,-65.16L54.54,-65.16L31.86,0L24.84,0ZM56.1669,-34.02C56.1669,-38.28,57.8469,-41.4,61.2069,-43.38C64.5669,-45.36,68.2569,-46.44,72.2769,-46.62C72.5169,-46.68,72.7719,-46.71,73.0419,-46.71C73.3119,-46.71,73.5969,-46.71,73.8969,-46.71C78.1569,-46.71,81.8169,-45.615,84.8769,-43.425C87.9369,-41.235,89.4669,-37.11,89.4669,-31.05C89.4669,-20.49,89.4819,-13.425,89.5119,-9.855C89.5419,-6.285,89.7069,-3.42,90.0069,-1.26C90.0069,-1.02,90.0219,-0.795,90.0519,-0.585C90.0819,-0.375,90.1269,-0.18,90.1869,0L84.5169,0C84.5169,0,84.5019,-0.015,84.4719,-0.045C84.4419,-0.075,84.4269,-0.12,84.4269,-0.18C84.1269,-1.5,83.9469,-2.73,83.8869,-3.87C83.8269,-5.01,83.7969,-5.58,83.7969,-5.58C82.9569,-4.08,81.8019,-2.835,80.3319,-1.845C78.8619,-0.855,77.3169,-0.12,75.6969,0.36C74.6169,0.72,73.5519,0.99,72.5019,1.17C71.4519,1.35,70.5069,1.44,69.6669,1.44C64.3269,1.44,60.3819,-0.03,57.8319,-2.97C55.2819,-5.91,54.0069,-9.15,54.0069,-12.69C54.3669,-19.05,56.9469,-23.115,61.7469,-24.885C66.5469,-26.655,73.8969,-27.54,83.7969,-27.54C83.7969,-31.08,83.3019,-34.335,82.3119,-37.305C81.3219,-40.275,78.5169,-41.76,73.8969,-41.76C70.3569,-41.76,67.5819,-41.07,65.5719,-39.69C63.5619,-38.31,62.5569,-36.39,62.5569,-33.93ZM83.7969,-22.68C83.4969,-22.62,83.1819,-22.59,82.8519,-22.59C82.5219,-22.59,82.2069,-22.59,81.9069,-22.59C76.5069,-22.59,71.5719,-22.11,67.1019,-21.15C62.6319,-20.19,60.3969,-17.37,60.3969,-12.69C60.3969,-9.57,61.4169,-7.26,63.4569,-5.76C65.4969,-4.26,67.8069,-3.51,70.3869,-3.51C70.6869,-3.51,70.9719,-3.525,71.2419,-3.555C71.5119,-3.585,71.7669,-3.6,72.0069,-3.6C73.2669,-3.72,74.4819,-4.02,75.6519,-4.5C76.8219,-4.98,77.8869,-5.58,78.8469,-6.3C80.4069,-7.5,81.6369,-9.15,82.5369,-11.25C83.4369,-13.35,83.9169,-16.05,83.9769,-19.35C83.9769,-19.83,83.9619,-20.34,83.9319,-20.88C83.9019,-21.42,83.8569,-21.99,83.7969,-22.59ZM98.1975,-65.16L103.868,-65.16L103.868,0L98.1975,0ZM113.944,-45.36L119.614,-45.36L119.614,0L113.944,0ZM113.224,-65.16L120.334,-65.16L120.334,-58.14L113.224,-58.14ZM165.781,-65.16L165.781,-15.57C165.781,-13.77,165.811,-11.595,165.871,-9.045C165.931,-6.495,166.141,-3.48,166.501,0L160.111,0C160.051,-0.18,159.991,-0.405,159.931,-0.675C159.871,-0.945,159.811,-1.23,159.751,-1.53C159.571,-2.73,159.466,-3.825,159.436,-4.815C159.406,-5.805,159.391,-6.3,159.391,-6.3C158.371,-4.2,156.586,-2.385,154.036,-0.855C151.486,0.675,148.801,1.44,145.981,1.44C145.801,1.44,145.621,1.44,145.441,1.44C145.261,1.44,145.111,1.44,144.991,1.44C138.811,1.5,134.296,-0.645,131.446,-4.995C128.596,-9.345,126.901,-14.13,126.361,-19.35C126.241,-20.13,126.166,-20.91,126.136,-21.69C126.106,-22.47,126.091,-23.25,126.091,-24.03C126.091,-30.27,127.246,-35.01,129.556,-38.25C131.866,-41.49,134.431,-43.77,137.251,-45.09C138.571,-45.69,139.861,-46.11,141.121,-46.35C142.381,-46.59,143.521,-46.71,144.541,-46.71C148.801,-46.71,152.086,-46.05,154.396,-44.73C156.706,-43.41,158.371,-41.7,159.391,-39.6L159.391,-65.16ZM132.481,-24.12C132.481,-17.7,133.576,-12.765,135.766,-9.315C137.956,-5.865,141.361,-4.14,145.981,-4.14C150.961,-4.14,154.561,-6.135,156.781,-10.125C159.001,-14.115,160.111,-18.75,160.111,-24.03C160.111,-29.37,158.611,-33.66,155.611,-36.9C152.611,-40.14,149.161,-41.76,145.261,-41.76C141.061,-41.46,138.016,-39.87,136.126,-36.99C134.236,-34.11,133.081,-30.99,132.661,-27.63C132.601,-27.03,132.556,-26.43,132.526,-25.83C132.496,-25.23,132.481,-24.63,132.481,-24.03ZM173.795,-34.02C173.795,-38.28,175.475,-41.4,178.835,-43.38C182.195,-45.36,185.885,-46.44,189.905,-46.62C190.145,-46.68,190.4,-46.71,190.67,-46.71C190.94,-46.71,191.225,-46.71,191.525,-46.71C195.785,-46.71,199.445,-45.615,202.505,-43.425C205.565,-41.235,207.095,-37.11,207.095,-31.05C207.095,-20.49,207.11,-13.425,207.14,-9.855C207.17,-6.285,207.335,-3.42,207.635,-1.26C207.635,-1.02,207.65,-0.795,207.68,-0.585C207.71,-0.375,207.755,-0.18,207.815,0L202.145,0C202.145,0,202.13,-0.015,202.1,-0.045C202.07,-0.075,202.055,-0.12,202.055,-0.18C201.755,-1.5,201.575,-2.73,201.515,-3.87C201.455,-5.01,201.425,-5.58,201.425,-5.58C200.585,-4.08,199.43,-2.835,197.96,-1.845C196.49,-0.855,194.945,-0.12,193.325,0.36C192.245,0.72,191.18,0.99,190.13,1.17C189.08,1.35,188.135,1.44,187.295,1.44C181.955,1.44,178.01,-0.03,175.46,-2.97C172.91,-5.91,171.635,-9.15,171.635,-12.69C171.995,-19.05,174.575,-23.115,179.375,-24.885C184.175,-26.655,191.525,-27.54,201.425,-27.54C201.425,-31.08,200.93,-34.335,199.94,-37.305C198.95,-40.275,196.145,-41.76,191.525,-41.76C187.985,-41.76,185.21,-41.07,183.2,-39.69C181.19,-38.31,180.185,-36.39,180.185,-33.93ZM201.425,-22.68C201.125,-22.62,200.81,-22.59,200.48,-22.59C200.15,-22.59,199.835,-22.59,199.535,-22.59C194.135,-22.59,189.2,-22.11,184.73,-21.15C180.26,-20.19,178.025,-17.37,178.025,-12.69C178.025,-9.57,179.045,-7.26,181.085,-5.76C183.125,-4.26,185.435,-3.51,188.015,-3.51C188.315,-3.51,188.6,-3.525,188.87,-3.555C189.14,-3.585,189.395,-3.6,189.635,-3.6C190.895,-3.72,192.11,-4.02,193.28,-4.5C194.45,-4.98,195.515,-5.58,196.475,-6.3C198.035,-7.5,199.265,-9.15,200.165,-11.25C201.065,-13.35,201.545,-16.05,201.605,-19.35C201.605,-19.83,201.59,-20.34,201.56,-20.88C201.53,-21.42,201.485,-21.99,201.425,-22.59ZM210.156,-40.41L210.156,-45.36L219.336,-45.36L219.336,-54.54L225.006,-56.7L225.006,-45.36L235.626,-45.36L235.626,-40.41L225.006,-40.41L225.006,-10.62C225.006,-7.8,225.561,-5.895,226.671,-4.905C227.781,-3.915,229.236,-3.42,231.036,-3.42C231.876,-3.42,232.731,-3.48,233.601,-3.6C234.471,-3.72,235.386,-3.9,236.346,-4.14L236.346,0.72C235.206,1.02,234.096,1.245,233.016,1.395C231.936,1.545,230.916,1.62,229.956,1.62C226.416,1.62,223.761,0.72,221.991,-1.08C220.221,-2.88,219.336,-5.31,219.336,-8.37L219.336,-40.41ZM241.572,-45.36L247.242,-45.36L247.242,0L241.572,0ZM240.852,-65.16L247.962,-65.16L247.962,-58.14L240.852,-58.14ZM253.719,-23.4C253.719,-30.06,255.564,-35.73,259.254,-40.41C262.944,-45.09,267.969,-47.43,274.329,-47.43C280.689,-47.43,285.819,-45.18,289.719,-40.68C293.619,-36.18,295.569,-30.39,295.569,-23.31C295.569,-16.23,293.649,-10.335,289.809,-5.625C285.969,-0.915,281.049,1.44,275.049,1.44C269.049,1.44,263.994,-0.915,259.884,-5.625C255.774,-10.335,253.719,-16.23,253.719,-23.31ZM259.389,-23.4C259.749,-18.06,261.294,-13.395,264.024,-9.405C266.754,-5.415,270.429,-3.42,275.049,-3.42C279.609,-3.42,283.209,-5.46,285.849,-9.54C288.489,-13.62,289.839,-18.12,289.899,-23.04C289.899,-23.1,289.899,-23.145,289.899,-23.175C289.899,-23.205,289.899,-23.25,289.899,-23.31C289.899,-28.11,288.549,-32.49,285.849,-36.45C283.149,-40.41,279.639,-42.39,275.319,-42.39C275.259,-42.39,275.184,-42.39,275.094,-42.39C275.004,-42.39,274.929,-42.39,274.869,-42.39C274.749,-42.39,274.659,-42.39,274.599,-42.39C274.539,-42.39,274.449,-42.39,274.329,-42.39C269.709,-42.09,266.064,-40.08,263.394,-36.36C260.724,-32.64,259.389,-28.29,259.389,-23.31ZM308.533,-38.97C308.773,-39.21,309.013,-39.465,309.253,-39.735C309.493,-40.005,309.733,-40.29,309.973,-40.59C311.353,-42.09,313.063,-43.485,315.103,-44.775C317.143,-46.065,319.663,-46.71,322.663,-46.71C323.503,-46.71,324.583,-46.56,325.903,-46.26C327.223,-45.96,328.603,-45.48,330.043,-44.82C332.263,-43.74,334.303,-42.15,336.163,-40.05C338.023,-37.95,338.953,-35.19,338.953,-31.77L338.953,0L333.283,0L333.283,-29.79C333.283,-32.79,332.233,-35.535,330.133,-38.025C328.033,-40.515,325.213,-41.76,321.673,-41.76C321.493,-41.76,321.313,-41.76,321.133,-41.76C320.953,-41.76,320.773,-41.76,320.593,-41.76C317.053,-41.46,314.263,-39.915,312.223,-37.125C310.183,-34.335,308.983,-31.32,308.623,-28.08C308.623,-27.72,308.608,-27.375,308.578,-27.045C308.548,-26.715,308.533,-26.4,308.533,-26.1L308.533,0L302.863,0L302.863,-34.74C302.863,-35.04,302.863,-35.325,302.863,-35.595C302.863,-35.865,302.863,-36.15,302.863,-36.45C302.863,-37.29,302.818,-38.295,302.728,-39.465C302.638,-40.635,302.443,-42.57,302.143,-45.27L307.813,-45.36C308.173,-43.56,308.383,-42.03,308.443,-40.77C308.503,-39.51,308.533,-38.88,308.533,-38.88ZM365.601,-23.4C365.601,-30.06,367.446,-35.73,371.136,-40.41C374.826,-45.09,379.851,-47.43,386.211,-47.43C392.571,-47.43,397.701,-45.18,401.601,-40.68C405.501,-36.18,407.451,-30.39,407.451,-23.31C407.451,-16.23,405.531,-10.335,401.691,-5.625C397.851,-0.915,392.931,1.44,386.931,1.44C380.931,1.44,375.876,-0.915,371.766,-5.625C367.656,-10.335,365.601,-16.23,365.601,-23.31ZM371.271,-23.4C371.631,-18.06,373.176,-13.395,375.906,-9.405C378.636,-5.415,382.311,-3.42,386.931,-3.42C391.491,-3.42,395.091,-5.46,397.731,-9.54C400.371,-13.62,401.721,-18.12,401.781,-23.04C401.781,-23.1,401.781,-23.145,401.781,-23.175C401.781,-23.205,401.781,-23.25,401.781,-23.31C401.781,-28.11,400.431,-32.49,397.731,-36.45C395.031,-40.41,391.521,-42.39,387.201,-42.39C387.141,-42.39,387.066,-42.39,386.976,-42.39C386.886,-42.39,386.811,-42.39,386.751,-42.39C386.631,-42.39,386.541,-42.39,386.481,-42.39C386.421,-42.39,386.331,-42.39,386.211,-42.39C381.591,-42.09,377.946,-40.08,375.276,-36.36C372.606,-32.64,371.271,-28.29,371.271,-23.31ZM418.254,-45.36L418.254,-55.26C418.254,-59.28,419.274,-62.085,421.314,-63.675C423.354,-65.265,425.574,-66.09,427.974,-66.15C428.094,-66.15,428.199,-66.15,428.289,-66.15C428.379,-66.15,428.454,-66.15,428.514,-66.15C429.594,-66.15,430.659,-66.045,431.709,-65.835C432.759,-65.625,433.704,-65.37,434.544,-65.07L434.544,-60.21C433.884,-60.45,433.209,-60.645,432.519,-60.795C431.829,-60.945,431.154,-61.02,430.494,-61.02C428.754,-61.02,427.224,-60.405,425.904,-59.175C424.584,-57.945,423.924,-55.92,423.924,-53.1L423.924,-45.36L434.544,-45.36L434.544,-40.41L423.924,-40.41L423.924,0L418.254,0L418.254,-40.41L409.074,-40.41L409.074,-45.36ZM461.285,-65.16L466.955,-65.16L466.955,0L461.285,0ZM473.432,-23.4C473.432,-30.06,475.277,-35.73,478.967,-40.41C482.657,-45.09,487.682,-47.43,494.042,-47.43C500.402,-47.43,505.532,-45.18,509.432,-40.68C513.332,-36.18,515.282,-30.39,515.282,-23.31C515.282,-16.23,513.362,-10.335,509.522,-5.625C505.682,-0.915,500.762,1.44,494.762,1.44C488.762,1.44,483.707,-0.915,479.597,-5.625C475.487,-10.335,473.432,-16.23,473.432,-23.31ZM479.102,-23.4C479.462,-18.06,481.007,-13.395,483.737,-9.405C486.467,-5.415,490.142,-3.42,494.762,-3.42C499.322,-3.42,502.922,-5.46,505.562,-9.54C508.202,-13.62,509.552,-18.12,509.612,-23.04C509.612,-23.1,509.612,-23.145,509.612,-23.175C509.612,-23.205,509.612,-23.25,509.612,-23.31C509.612,-28.11,508.262,-32.49,505.562,-36.45C502.862,-40.41,499.352,-42.39,495.032,-42.39C494.972,-42.39,494.897,-42.39,494.807,-42.39C494.717,-42.39,494.642,-42.39,494.582,-42.39C494.462,-42.39,494.372,-42.39,494.312,-42.39C494.252,-42.39,494.162,-42.39,494.042,-42.39C489.422,-42.09,485.777,-40.08,483.107,-36.36C480.437,-32.64,479.102,-28.29,479.102,-23.31ZM550.926,-31.14C550.926,-34.26,549.921,-36.81,547.911,-38.79C545.901,-40.77,543.126,-41.76,539.586,-41.76C535.446,-41.76,532.296,-40.395,530.136,-37.665C527.976,-34.935,526.566,-31.92,525.906,-28.62C525.726,-27.72,525.591,-26.82,525.501,-25.92C525.411,-25.02,525.366,-24.15,525.366,-23.31C525.366,-22.59,525.381,-21.84,525.411,-21.06C525.441,-20.28,525.516,-19.5,525.636,-18.72C525.996,-15.06,527.166,-11.67,529.146,-8.55C531.126,-5.43,534.606,-3.72,539.586,-3.42C542.406,-3.42,545.001,-4.44,547.371,-6.48C549.741,-8.52,550.926,-11.28,550.926,-14.76L557.316,-14.85C556.956,-9.51,555.246,-5.46,552.186,-2.7C549.126,0.06,544.926,1.44,539.586,1.44C534.306,1.44,529.671,-0.465,525.681,-4.275C521.691,-8.085,519.696,-14.43,519.696,-23.31C519.696,-29.37,520.896,-34.065,523.296,-37.395C525.696,-40.725,528.366,-43.11,531.306,-44.55C532.806,-45.33,534.291,-45.885,535.761,-46.215C537.231,-46.545,538.506,-46.71,539.586,-46.71C539.706,-46.71,539.811,-46.71,539.901,-46.71C539.991,-46.71,540.096,-46.71,540.216,-46.71C540.276,-46.71,540.366,-46.725,540.486,-46.755C540.606,-46.785,540.696,-46.8,540.756,-46.8C545.076,-46.8,548.856,-45.33,552.096,-42.39C555.336,-39.45,557.076,-36.21,557.316,-32.67C557.316,-32.55,557.316,-32.43,557.316,-32.31C557.316,-32.19,557.316,-32.07,557.316,-31.95C557.316,-31.77,557.316,-31.605,557.316,-31.455C557.316,-31.305,557.316,-31.17,557.316,-31.05ZM561.726,-34.02C561.726,-38.28,563.406,-41.4,566.766,-43.38C570.126,-45.36,573.816,-46.44,577.836,-46.62C578.076,-46.68,578.331,-46.71,578.601,-46.71C578.871,-46.71,579.156,-46.71,579.456,-46.71C583.716,-46.71,587.376,-45.615,590.436,-43.425C593.496,-41.235,595.026,-37.11,595.026,-31.05C595.026,-20.49,595.041,-13.425,595.071,-9.855C595.101,-6.285,595.266,-3.42,595.566,-1.26C595.566,-1.02,595.581,-0.795,595.611,-0.585C595.641,-0.375,595.686,-0.18,595.746,0L590.076,0C590.076,0,590.061,-0.015,590.031,-0.045C590.001,-0.075,589.986,-0.12,589.986,-0.18C589.686,-1.5,589.506,-2.73,589.446,-3.87C589.386,-5.01,589.356,-5.58,589.356,-5.58C588.516,-4.08,587.361,-2.835,585.891,-1.845C584.421,-0.855,582.876,-0.12,581.256,0.36C580.176,0.72,579.111,0.99,578.061,1.17C577.011,1.35,576.066,1.44,575.226,1.44C569.886,1.44,565.941,-0.03,563.391,-2.97C560.841,-5.91,559.566,-9.15,559.566,-12.69C559.926,-19.05,562.506,-23.115,567.306,-24.885C572.106,-26.655,579.456,-27.54,589.356,-27.54C589.356,-31.08,588.861,-34.335,587.871,-37.305C586.881,-40.275,584.076,-41.76,579.456,-41.76C575.916,-41.76,573.141,-41.07,571.131,-39.69C569.121,-38.31,568.116,-36.39,568.116,-33.93ZM589.356,-22.68C589.056,-22.62,588.741,-22.59,588.411,-22.59C588.081,-22.59,587.766,-22.59,587.466,-22.59C582.066,-22.59,577.131,-22.11,572.661,-21.15C568.191,-20.19,565.956,-17.37,565.956,-12.69C565.956,-9.57,566.976,-7.26,569.016,-5.76C571.056,-4.26,573.366,-3.51,575.946,-3.51C576.246,-3.51,576.531,-3.525,576.801,-3.555C577.071,-3.585,577.326,-3.6,577.566,-3.6C578.826,-3.72,580.041,-4.02,581.211,-4.5C582.381,-4.98,583.446,-5.58,584.406,-6.3C585.966,-7.5,587.196,-9.15,588.096,-11.25C588.996,-13.35,589.476,-16.05,589.536,-19.35C589.536,-19.83,589.521,-20.34,589.491,-20.88C589.461,-21.42,589.416,-21.99,589.356,-22.59ZM603.757,-65.16L609.427,-65.16L609.427,0L603.757,0ZM638.857,-34.02C638.857,-38.28,640.537,-41.4,643.898,-43.38C647.258,-45.36,650.948,-46.44,654.968,-46.62C655.208,-46.68,655.463,-46.71,655.732,-46.71C656.003,-46.71,656.288,-46.71,656.588,-46.71C660.847,-46.71,664.507,-45.615,667.568,-43.425C670.627,-41.235,672.157,-37.11,672.157,-31.05C672.157,-20.49,672.172,-13.425,672.203,-9.855C672.233,-6.285,672.398,-3.42,672.698,-1.26C672.698,-1.02,672.713,-0.795,672.742,-0.585C672.772,-0.375,672.817,-0.18,672.878,0L667.208,0C667.208,0,667.193,-0.015,667.162,-0.045C667.132,-0.075,667.117,-0.12,667.117,-0.18C666.817,-1.5,666.637,-2.73,666.578,-3.87C666.517,-5.01,666.487,-5.58,666.487,-5.58C665.647,-4.08,664.492,-2.835,663.023,-1.845C661.553,-0.855,660.008,-0.12,658.388,0.36C657.308,0.72,656.243,0.99,655.193,1.17C654.142,1.35,653.197,1.44,652.357,1.44C647.017,1.44,643.072,-0.03,640.523,-2.97C637.973,-5.91,636.698,-9.15,636.698,-12.69C637.057,-19.05,639.637,-23.115,644.438,-24.885C649.238,-26.655,656.588,-27.54,666.487,-27.54C666.487,-31.08,665.992,-34.335,665.003,-37.305C664.013,-40.275,661.208,-41.76,656.588,-41.76C653.048,-41.76,650.273,-41.07,648.263,-39.69C646.253,-38.31,645.247,-36.39,645.247,-33.93ZM666.487,-22.68C666.187,-22.62,665.872,-22.59,665.542,-22.59C665.212,-22.59,664.897,-22.59,664.597,-22.59C659.197,-22.59,654.262,-22.11,649.792,-21.15C645.323,-20.19,643.088,-17.37,643.088,-12.69C643.088,-9.57,644.108,-7.26,646.148,-5.76C648.188,-4.26,650.498,-3.51,653.078,-3.51C653.378,-3.51,653.663,-3.525,653.932,-3.555C654.203,-3.585,654.458,-3.6,654.698,-3.6C655.958,-3.72,657.173,-4.02,658.343,-4.5C659.512,-4.98,660.577,-5.58,661.537,-6.3C663.097,-7.5,664.327,-9.15,665.227,-11.25C666.128,-13.35,666.608,-16.05,666.667,-19.35C666.667,-19.83,666.652,-20.34,666.622,-20.88C666.593,-21.42,666.548,-21.99,666.487,-22.59ZM686.558,-38.97C686.798,-39.21,687.038,-39.465,687.278,-39.735C687.518,-40.005,687.758,-40.29,687.998,-40.59C689.378,-42.09,691.088,-43.485,693.128,-44.775C695.168,-46.065,697.688,-46.71,700.688,-46.71C701.528,-46.71,702.608,-46.56,703.928,-46.26C705.248,-45.96,706.628,-45.48,708.068,-44.82C710.288,-43.74,712.328,-42.15,714.188,-40.05C716.048,-37.95,716.978,-35.19,716.978,-31.77L716.978,0L711.308,0L711.308,-29.79C711.308,-32.79,710.258,-35.535,708.158,-38.025C706.058,-40.515,703.238,-41.76,699.698,-41.76C699.518,-41.76,699.338,-41.76,699.158,-41.76C698.978,-41.76,698.798,-41.76,698.618,-41.76C695.078,-41.46,692.288,-39.915,690.248,-37.125C688.208,-34.335,687.008,-31.32,686.648,-28.08C686.648,-27.72,686.633,-27.375,686.603,-27.045C686.573,-26.715,686.558,-26.4,686.558,-26.1L686.558,0L680.888,0L680.888,-34.74C680.888,-35.04,680.888,-35.325,680.888,-35.595C680.888,-35.865,680.888,-36.15,680.888,-36.45C680.888,-37.29,680.843,-38.295,680.753,-39.465C680.663,-40.635,680.468,-42.57,680.168,-45.27L685.838,-45.36C686.198,-43.56,686.408,-42.03,686.468,-40.77C686.528,-39.51,686.558,-38.88,686.558,-38.88ZM762.522,-65.16L762.522,-15.57C762.522,-13.77,762.552,-11.595,762.612,-9.045C762.672,-6.495,762.882,-3.48,763.242,0L756.852,0C756.792,-0.18,756.732,-0.405,756.672,-0.675C756.612,-0.945,756.552,-1.23,756.492,-1.53C756.312,-2.73,756.207,-3.825,756.177,-4.815C756.147,-5.805,756.132,-6.3,756.132,-6.3C755.112,-4.2,753.327,-2.385,750.777,-0.855C748.227,0.675,745.542,1.44,742.722,1.44C742.542,1.44,742.362,1.44,742.182,1.44C742.002,1.44,741.852,1.44,741.732,1.44C735.552,1.5,731.037,-0.645,728.187,-4.995C725.337,-9.345,723.642,-14.13,723.102,-19.35C722.982,-20.13,722.907,-20.91,722.877,-21.69C722.847,-22.47,722.832,-23.25,722.832,-24.03C722.832,-30.27,723.987,-35.01,726.297,-38.25C728.607,-41.49,731.172,-43.77,733.992,-45.09C735.312,-45.69,736.602,-46.11,737.862,-46.35C739.122,-46.59,740.262,-46.71,741.282,-46.71C745.542,-46.71,748.827,-46.05,751.137,-44.73C753.447,-43.41,755.112,-41.7,756.132,-39.6L756.132,-65.16ZM729.222,-24.12C729.222,-17.7,730.317,-12.765,732.507,-9.315C734.697,-5.865,738.102,-4.14,742.722,-4.14C747.702,-4.14,751.302,-6.135,753.522,-10.125C755.742,-14.115,756.852,-18.75,756.852,-24.03C756.852,-29.37,755.352,-33.66,752.352,-36.9C749.352,-40.14,745.902,-41.76,742.002,-41.76C737.802,-41.46,734.757,-39.87,732.867,-36.99C730.977,-34.11,729.822,-30.99,729.402,-27.63C729.342,-27.03,729.297,-26.43,729.267,-25.83C729.237,-25.23,729.222,-24.63,729.222,-24.03Z" transform="translate(958,408.675)"/>
    <path fill="#363636" stroke="none" d="M6.39,-45.36L12.06,-45.36C12.24,-44.76,12.375,-44.235,12.465,-43.785C12.555,-43.335,12.63,-42.9,12.69,-42.48C12.75,-42,12.78,-41.535,12.78,-41.085C12.78,-40.635,12.78,-40.14,12.78,-39.6C14.04,-43.2,15.885,-45.3,18.315,-45.9C20.745,-46.5,23.55,-46.77,26.73,-46.71C26.97,-46.71,27.225,-46.71,27.495,-46.71C27.765,-46.71,28.05,-46.71,28.35,-46.71L28.35,-41.85C27.93,-41.85,27.525,-41.865,27.135,-41.895C26.745,-41.925,26.34,-41.94,25.92,-41.94C22.26,-41.94,19.155,-40.74,16.605,-38.34C14.055,-35.94,12.78,-32.82,12.78,-28.98L12.78,0L7.11,0L7.11,-37.53C7.11,-38.19,7.11,-38.835,7.11,-39.465C7.11,-40.095,7.08,-40.74,7.02,-41.4C6.96,-42,6.885,-42.615,6.795,-43.245C6.705,-43.875,6.57,-44.55,6.39,-45.27ZM64.7169,-15.57L71.1069,-15.57C69.6669,-9.51,67.2369,-5.28,63.8169,-2.88C60.3969,-0.48,56.1969,0.72,51.2169,0.72C43.8969,0.72,38.6769,-1.41,35.5569,-5.67C32.4369,-9.93,30.6369,-14.64,30.1569,-19.8C30.0969,-20.4,30.0519,-20.985,30.0219,-21.555C29.9919,-22.125,29.9769,-22.71,29.9769,-23.31C29.9769,-30.39,32.0769,-36.18,36.2769,-40.68C40.4769,-45.18,45.2469,-47.43,50.5869,-47.43C57.6669,-47.43,62.8119,-45.12,66.0219,-40.5C69.2319,-35.88,70.9569,-30.78,71.1969,-25.2C71.1969,-24.96,71.1969,-24.735,71.1969,-24.525C71.1969,-24.315,71.1969,-24.12,71.1969,-23.94C71.1969,-23.76,71.1969,-23.58,71.1969,-23.4C71.1969,-23.22,71.1969,-23.07,71.1969,-22.95C71.1369,-22.77,71.1069,-22.59,71.1069,-22.41C71.1069,-22.23,71.1069,-22.05,71.1069,-21.87L36.3669,-21.96C36.3669,-21,36.4419,-20.01,36.5919,-18.99C36.7419,-17.97,36.9669,-16.92,37.2669,-15.84C38.0469,-12.9,39.4869,-10.215,41.5869,-7.785C43.6869,-5.355,46.5669,-4.14,50.2269,-4.14C50.3469,-4.14,50.4369,-4.14,50.4969,-4.14C50.5569,-4.14,50.6469,-4.14,50.7669,-4.14C50.8269,-4.14,50.9019,-4.14,50.9919,-4.14C51.0819,-4.14,51.1569,-4.14,51.2169,-4.14C54.6369,-4.38,57.2619,-5.16,59.0919,-6.48C60.9219,-7.8,62.2569,-9.21,63.0969,-10.71C63.5769,-11.61,63.9369,-12.465,64.1769,-13.275C64.4169,-14.085,64.5969,-14.82,64.7169,-15.48ZM64.7169,-26.91C64.7169,-26.97,64.7169,-27.045,64.7169,-27.135C64.7169,-27.225,64.7469,-27.33,64.8069,-27.45C64.8069,-27.57,64.8069,-27.675,64.8069,-27.765C64.8069,-27.855,64.8069,-27.96,64.8069,-28.08C64.8069,-31.92,63.6969,-34.965,61.4769,-37.215C59.2569,-39.465,56.7969,-40.86,54.0969,-41.4C53.6169,-41.52,53.1369,-41.61,52.6569,-41.67C52.1769,-41.73,51.6969,-41.76,51.2169,-41.76C50.3169,-41.76,49.2969,-41.685,48.1569,-41.535C47.0169,-41.385,45.8469,-41.01,44.6469,-40.41C43.0269,-39.63,41.4519,-38.205,39.9219,-36.135C38.3919,-34.065,37.2069,-30.96,36.3669,-26.82ZM83.3506,-38.97C83.5906,-39.21,83.8306,-39.465,84.0706,-39.735C84.3106,-40.005,84.5506,-40.29,84.7906,-40.59C86.1706,-42.09,87.8956,-43.485,89.9656,-44.775C92.0356,-46.065,94.5406,-46.71,97.4806,-46.71C98.4406,-46.71,99.5056,-46.65,100.676,-46.53C101.846,-46.41,103.031,-46.11,104.231,-45.63C105.791,-45.03,107.291,-44.04,108.731,-42.66C110.171,-41.28,111.401,-39.3,112.421,-36.72C113.501,-38.94,114.881,-40.755,116.561,-42.165C118.241,-43.575,119.981,-44.67,121.781,-45.45C122.861,-45.87,123.941,-46.185,125.021,-46.395C126.101,-46.605,127.091,-46.71,127.991,-46.71C133.691,-46.71,137.831,-45.165,140.411,-42.075C142.991,-38.985,144.281,-35.31,144.281,-31.05L144.281,0L138.611,0L138.611,-29.79C138.611,-30.33,138.566,-30.9,138.476,-31.5C138.386,-32.1,138.251,-32.73,138.071,-33.39C137.531,-35.49,136.361,-37.41,134.561,-39.15C132.761,-40.89,130.091,-41.76,126.551,-41.76C125.891,-41.76,125.186,-41.685,124.436,-41.535C123.686,-41.385,122.921,-41.13,122.141,-40.77C120.041,-39.87,118.121,-38.295,116.381,-36.045C114.641,-33.795,113.771,-30.72,113.771,-26.82L113.771,0L108.101,0L108.101,-29.79C108.101,-32.79,107.051,-35.535,104.951,-38.025C102.851,-40.515,100.031,-41.76,96.4906,-41.76C96.3106,-41.76,96.1306,-41.76,95.9506,-41.76C95.7706,-41.76,95.5906,-41.76,95.4106,-41.76C91.8706,-41.46,89.0806,-39.915,87.0406,-37.125C85.0006,-34.335,83.8006,-31.32,83.4406,-28.08C83.4406,-27.72,83.4256,-27.375,83.3956,-27.045C83.3656,-26.715,83.3506,-26.4,83.3506,-26.1L83.3506,0L77.6806,0L77.6806,-34.74C77.6806,-35.04,77.6806,-35.325,77.6806,-35.595C77.6806,-35.865,77.6806,-36.15,77.6806,-36.45C77.6806,-37.29,77.6356,-38.295,77.5456,-39.465C77.4556,-40.635,77.2606,-42.57,76.9606,-45.27L82.6306,-45.36C82.9906,-43.56,83.2006,-42.03,83.2606,-40.77C83.3206,-39.51,83.3506,-38.88,83.3506,-38.88ZM150.126,-23.4C150.126,-30.06,151.971,-35.73,155.661,-40.41C159.351,-45.09,164.376,-47.43,170.736,-47.43C177.096,-47.43,182.226,-45.18,186.126,-40.68C190.026,-36.18,191.976,-30.39,191.976,-23.31C191.976,-16.23,190.056,-10.335,186.216,-5.625C182.376,-0.915,177.456,1.44,171.456,1.44C165.456,1.44,160.401,-0.915,156.291,-5.625C152.181,-10.335,150.126,-16.23,150.126,-23.31ZM155.796,-23.4C156.156,-18.06,157.701,-13.395,160.431,-9.405C163.161,-5.415,166.836,-3.42,171.456,-3.42C176.016,-3.42,179.616,-5.46,182.256,-9.54C184.896,-13.62,186.246,-18.12,186.306,-23.04C186.306,-23.1,186.306,-23.145,186.306,-23.175C186.306,-23.205,186.306,-23.25,186.306,-23.31C186.306,-28.11,184.956,-32.49,182.256,-36.45C179.556,-40.41,176.046,-42.39,171.726,-42.39C171.666,-42.39,171.591,-42.39,171.501,-42.39C171.411,-42.39,171.336,-42.39,171.276,-42.39C171.156,-42.39,171.066,-42.39,171.006,-42.39C170.946,-42.39,170.856,-42.39,170.736,-42.39C166.116,-42.09,162.471,-40.08,159.801,-36.36C157.131,-32.64,155.796,-28.29,155.796,-23.31ZM193.599,-40.41L193.599,-45.36L202.779,-45.36L202.779,-54.54L208.449,-56.7L208.449,-45.36L219.069,-45.36L219.069,-40.41L208.449,-40.41L208.449,-10.62C208.449,-7.8,209.004,-5.895,210.114,-4.905C211.224,-3.915,212.679,-3.42,214.479,-3.42C215.319,-3.42,216.174,-3.48,217.044,-3.6C217.914,-3.72,218.829,-3.9,219.789,-4.14L219.789,0.72C218.649,1.02,217.539,1.245,216.459,1.395C215.379,1.545,214.359,1.62,213.399,1.62C209.859,1.62,207.204,0.72,205.434,-1.08C203.664,-2.88,202.779,-5.31,202.779,-8.37L202.779,-40.41ZM256.876,-15.57L263.266,-15.57C261.826,-9.51,259.396,-5.28,255.976,-2.88C252.556,-0.48,248.356,0.72,243.376,0.72C236.056,0.72,230.836,-1.41,227.716,-5.67C224.596,-9.93,222.796,-14.64,222.316,-19.8C222.256,-20.4,222.211,-20.985,222.181,-21.555C222.151,-22.125,222.136,-22.71,222.136,-23.31C222.136,-30.39,224.236,-36.18,228.436,-40.68C232.636,-45.18,237.406,-47.43,242.746,-47.43C249.826,-47.43,254.971,-45.12,258.181,-40.5C261.391,-35.88,263.116,-30.78,263.356,-25.2C263.356,-24.96,263.356,-24.735,263.356,-24.525C263.356,-24.315,263.356,-24.12,263.356,-23.94C263.356,-23.76,263.356,-23.58,263.356,-23.4C263.356,-23.22,263.356,-23.07,263.356,-22.95C263.296,-22.77,263.266,-22.59,263.266,-22.41C263.266,-22.23,263.266,-22.05,263.266,-21.87L228.526,-21.96C228.526,-21,228.601,-20.01,228.751,-18.99C228.901,-17.97,229.126,-16.92,229.426,-15.84C230.206,-12.9,231.646,-10.215,233.746,-7.785C235.846,-5.355,238.726,-4.14,242.386,-4.14C242.506,-4.14,242.596,-4.14,242.656,-4.14C242.716,-4.14,242.806,-4.14,242.926,-4.14C242.986,-4.14,243.061,-4.14,243.151,-4.14C243.241,-4.14,243.316,-4.14,243.376,-4.14C246.796,-4.38,249.421,-5.16,251.251,-6.48C253.081,-7.8,254.416,-9.21,255.256,-10.71C255.736,-11.61,256.096,-12.465,256.336,-13.275C256.576,-14.085,256.756,-14.82,256.876,-15.48ZM256.876,-26.91C256.876,-26.97,256.876,-27.045,256.876,-27.135C256.876,-27.225,256.906,-27.33,256.966,-27.45C256.966,-27.57,256.966,-27.675,256.966,-27.765C256.966,-27.855,256.966,-27.96,256.966,-28.08C256.966,-31.92,255.856,-34.965,253.636,-37.215C251.416,-39.465,248.956,-40.86,246.256,-41.4C245.776,-41.52,245.296,-41.61,244.816,-41.67C244.336,-41.73,243.856,-41.76,243.376,-41.76C242.476,-41.76,241.456,-41.685,240.316,-41.535C239.176,-41.385,238.006,-41.01,236.806,-40.41C235.186,-39.63,233.611,-38.205,232.081,-36.135C230.551,-34.065,229.366,-30.96,228.526,-26.82ZM327.444,-65.16L327.444,-15.57C327.444,-13.77,327.474,-11.595,327.534,-9.045C327.594,-6.495,327.804,-3.48,328.164,0L321.774,0C321.714,-0.18,321.654,-0.405,321.594,-0.675C321.534,-0.945,321.474,-1.23,321.414,-1.53C321.234,-2.73,321.129,-3.825,321.099,-4.815C321.069,-5.805,321.054,-6.3,321.054,-6.3C320.034,-4.2,318.249,-2.385,315.699,-0.855C313.149,0.675,310.464,1.44,307.644,1.44C307.464,1.44,307.284,1.44,307.104,1.44C306.924,1.44,306.774,1.44,306.654,1.44C300.474,1.5,295.959,-0.645,293.109,-4.995C290.259,-9.345,288.564,-14.13,288.024,-19.35C287.904,-20.13,287.829,-20.91,287.799,-21.69C287.769,-22.47,287.754,-23.25,287.754,-24.03C287.754,-30.27,288.909,-35.01,291.219,-38.25C293.529,-41.49,296.094,-43.77,298.914,-45.09C300.234,-45.69,301.524,-46.11,302.784,-46.35C304.044,-46.59,305.184,-46.71,306.204,-46.71C310.464,-46.71,313.749,-46.05,316.059,-44.73C318.369,-43.41,320.034,-41.7,321.054,-39.6L321.054,-65.16ZM294.144,-24.12C294.144,-17.7,295.239,-12.765,297.429,-9.315C299.619,-5.865,303.024,-4.14,307.644,-4.14C312.624,-4.14,316.224,-6.135,318.444,-10.125C320.664,-14.115,321.774,-18.75,321.774,-24.03C321.774,-29.37,320.274,-33.66,317.274,-36.9C314.274,-40.14,310.824,-41.76,306.924,-41.76C302.724,-41.46,299.679,-39.87,297.789,-36.99C295.899,-34.11,294.744,-30.99,294.324,-27.63C294.264,-27.03,294.219,-26.43,294.189,-25.83C294.159,-25.23,294.144,-24.63,294.144,-24.03ZM335.458,-34.02C335.458,-38.28,337.138,-41.4,340.497,-43.38C343.858,-45.36,347.548,-46.44,351.568,-46.62C351.808,-46.68,352.063,-46.71,352.333,-46.71C352.603,-46.71,352.888,-46.71,353.188,-46.71C357.448,-46.71,361.108,-45.615,364.168,-43.425C367.228,-41.235,368.758,-37.11,368.758,-31.05C368.758,-20.49,368.773,-13.425,368.802,-9.855C368.832,-6.285,368.998,-3.42,369.298,-1.26C369.298,-1.02,369.313,-0.795,369.342,-0.585C369.373,-0.375,369.418,-0.18,369.478,0L363.807,0C363.807,0,363.793,-0.015,363.763,-0.045C363.733,-0.075,363.717,-0.12,363.717,-0.18C363.418,-1.5,363.238,-2.73,363.177,-3.87C363.117,-5.01,363.087,-5.58,363.087,-5.58C362.248,-4.08,361.093,-2.835,359.622,-1.845C358.153,-0.855,356.608,-0.12,354.988,0.36C353.908,0.72,352.842,0.99,351.793,1.17C350.743,1.35,349.798,1.44,348.958,1.44C343.618,1.44,339.673,-0.03,337.122,-2.97C334.573,-5.91,333.298,-9.15,333.298,-12.69C333.658,-19.05,336.237,-23.115,341.038,-24.885C345.838,-26.655,353.188,-27.54,363.087,-27.54C363.087,-31.08,362.592,-34.335,361.603,-37.305C360.612,-40.275,357.807,-41.76,353.188,-41.76C349.648,-41.76,346.873,-41.07,344.863,-39.69C342.853,-38.31,341.848,-36.39,341.848,-33.93ZM363.087,-22.68C362.788,-22.62,362.473,-22.59,362.143,-22.59C361.813,-22.59,361.498,-22.59,361.198,-22.59C355.798,-22.59,350.863,-22.11,346.393,-21.15C341.923,-20.19,339.688,-17.37,339.688,-12.69C339.688,-9.57,340.707,-7.26,342.747,-5.76C344.787,-4.26,347.097,-3.51,349.677,-3.51C349.977,-3.51,350.263,-3.525,350.533,-3.555C350.803,-3.585,351.058,-3.6,351.298,-3.6C352.558,-3.72,353.773,-4.02,354.943,-4.5C356.113,-4.98,357.178,-5.58,358.138,-6.3C359.698,-7.5,360.928,-9.15,361.828,-11.25C362.727,-13.35,363.207,-16.05,363.268,-19.35C363.268,-19.83,363.253,-20.34,363.223,-20.88C363.192,-21.42,363.147,-21.99,363.087,-22.59ZM371.818,-40.41L371.818,-45.36L380.998,-45.36L380.998,-54.54L386.668,-56.7L386.668,-45.36L397.288,-45.36L397.288,-40.41L386.668,-40.41L386.668,-10.62C386.668,-7.8,387.223,-5.895,388.333,-4.905C389.443,-3.915,390.898,-3.42,392.698,-3.42C393.538,-3.42,394.393,-3.48,395.263,-3.6C396.133,-3.72,397.048,-3.9,398.008,-4.14L398.008,0.72C396.868,1.02,395.758,1.245,394.678,1.395C393.598,1.545,392.578,1.62,391.618,1.62C388.078,1.62,385.423,0.72,383.653,-1.08C381.883,-2.88,380.998,-5.31,380.998,-8.37L380.998,-40.41ZM401.795,-34.02C401.795,-38.28,403.475,-41.4,406.835,-43.38C410.195,-45.36,413.885,-46.44,417.905,-46.62C418.145,-46.68,418.4,-46.71,418.67,-46.71C418.94,-46.71,419.225,-46.71,419.525,-46.71C423.785,-46.71,427.445,-45.615,430.505,-43.425C433.565,-41.235,435.095,-37.11,435.095,-31.05C435.095,-20.49,435.11,-13.425,435.14,-9.855C435.17,-6.285,435.335,-3.42,435.635,-1.26C435.635,-1.02,435.65,-0.795,435.68,-0.585C435.71,-0.375,435.755,-0.18,435.815,0L430.145,0C430.145,0,430.13,-0.015,430.1,-0.045C430.07,-0.075,430.055,-0.12,430.055,-0.18C429.755,-1.5,429.575,-2.73,429.515,-3.87C429.455,-5.01,429.425,-5.58,429.425,-5.58C428.585,-4.08,427.43,-2.835,425.96,-1.845C424.49,-0.855,422.945,-0.12,421.325,0.36C420.245,0.72,419.18,0.99,418.13,1.17C417.08,1.35,416.135,1.44,415.295,1.44C409.955,1.44,406.01,-0.03,403.46,-2.97C400.91,-5.91,399.635,-9.15,399.635,-12.69C399.995,-19.05,402.575,-23.115,407.375,-24.885C412.175,-26.655,419.525,-27.54,429.425,-27.54C429.425,-31.08,428.93,-34.335,427.94,-37.305C426.95,-40.275,424.145,-41.76,419.525,-41.76C415.985,-41.76,413.21,-41.07,411.2,-39.69C409.19,-38.31,408.185,-36.39,408.185,-33.93ZM429.425,-22.68C429.125,-22.62,428.81,-22.59,428.48,-22.59C428.15,-22.59,427.835,-22.59,427.535,-22.59C422.135,-22.59,417.2,-22.11,412.73,-21.15C408.26,-20.19,406.025,-17.37,406.025,-12.69C406.025,-9.57,407.045,-7.26,409.085,-5.76C411.125,-4.26,413.435,-3.51,416.015,-3.51C416.315,-3.51,416.6,-3.525,416.87,-3.555C417.14,-3.585,417.395,-3.6,417.635,-3.6C418.895,-3.72,420.11,-4.02,421.28,-4.5C422.45,-4.98,423.515,-5.58,424.475,-6.3C426.035,-7.5,427.265,-9.15,428.165,-11.25C429.065,-13.35,429.545,-16.05,429.605,-19.35C429.605,-19.83,429.59,-20.34,429.56,-20.88C429.53,-21.42,429.485,-21.99,429.425,-22.59ZM458.949,-40.41L458.949,-45.36L468.129,-45.36L468.129,-54.54L473.799,-56.7L473.799,-45.36L484.419,-45.36L484.419,-40.41L473.799,-40.41L473.799,-10.62C473.799,-7.8,474.354,-5.895,475.464,-4.905C476.574,-3.915,478.029,-3.42,479.829,-3.42C480.669,-3.42,481.524,-3.48,482.394,-3.6C483.264,-3.72,484.179,-3.9,485.139,-4.14L485.139,0.72C483.999,1.02,482.889,1.245,481.809,1.395C480.729,1.545,479.709,1.62,478.749,1.62C475.209,1.62,472.554,0.72,470.784,-1.08C469.014,-2.88,468.129,-5.31,468.129,-8.37L468.129,-40.41ZM488.926,-34.02C488.926,-38.28,490.606,-41.4,493.966,-43.38C497.326,-45.36,501.016,-46.44,505.036,-46.62C505.276,-46.68,505.531,-46.71,505.801,-46.71C506.071,-46.71,506.356,-46.71,506.656,-46.71C510.916,-46.71,514.576,-45.615,517.636,-43.425C520.696,-41.235,522.226,-37.11,522.226,-31.05C522.226,-20.49,522.241,-13.425,522.271,-9.855C522.301,-6.285,522.466,-3.42,522.766,-1.26C522.766,-1.02,522.781,-0.795,522.811,-0.585C522.841,-0.375,522.886,-0.18,522.946,0L517.276,0C517.276,0,517.261,-0.015,517.231,-0.045C517.201,-0.075,517.186,-0.12,517.186,-0.18C516.886,-1.5,516.706,-2.73,516.646,-3.87C516.586,-5.01,516.556,-5.58,516.556,-5.58C515.716,-4.08,514.561,-2.835,513.091,-1.845C511.621,-0.855,510.076,-0.12,508.456,0.36C507.376,0.72,506.311,0.99,505.261,1.17C504.211,1.35,503.266,1.44,502.426,1.44C497.086,1.44,493.141,-0.03,490.591,-2.97C488.041,-5.91,486.766,-9.15,486.766,-12.69C487.126,-19.05,489.706,-23.115,494.506,-24.885C499.306,-26.655,506.656,-27.54,516.556,-27.54C516.556,-31.08,516.061,-34.335,515.071,-37.305C514.081,-40.275,511.276,-41.76,506.656,-41.76C503.116,-41.76,500.341,-41.07,498.331,-39.69C496.321,-38.31,495.316,-36.39,495.316,-33.93ZM516.556,-22.68C516.256,-22.62,515.941,-22.59,515.611,-22.59C515.281,-22.59,514.966,-22.59,514.666,-22.59C509.266,-22.59,504.331,-22.11,499.861,-21.15C495.391,-20.19,493.156,-17.37,493.156,-12.69C493.156,-9.57,494.176,-7.26,496.216,-5.76C498.256,-4.26,500.566,-3.51,503.146,-3.51C503.446,-3.51,503.731,-3.525,504.001,-3.555C504.271,-3.585,504.526,-3.6,504.766,-3.6C506.026,-3.72,507.241,-4.02,508.411,-4.5C509.581,-4.98,510.646,-5.58,511.606,-6.3C513.166,-7.5,514.396,-9.15,515.296,-11.25C516.196,-13.35,516.676,-16.05,516.736,-19.35C516.736,-19.83,516.721,-20.34,516.691,-20.88C516.661,-21.42,516.616,-21.99,516.556,-22.59ZM529.517,-65.16L535.907,-65.16L535.907,-39.69C536.807,-41.07,537.872,-42.21,539.102,-43.11C540.332,-44.01,541.637,-44.73,543.017,-45.27C544.337,-45.81,545.612,-46.185,546.842,-46.395C548.072,-46.605,549.137,-46.71,550.037,-46.71C550.157,-46.71,550.262,-46.71,550.352,-46.71C550.442,-46.71,550.547,-46.71,550.667,-46.71C550.787,-46.71,550.892,-46.725,550.982,-46.755C551.072,-46.785,551.177,-46.8,551.297,-46.8C556.037,-46.8,560.237,-44.88,563.897,-41.04C567.557,-37.2,569.567,-31.53,569.927,-24.03C569.927,-17.49,568.352,-11.61,565.202,-6.39C562.052,-1.17,557.777,1.44,552.377,1.44C552.317,1.44,552.242,1.44,552.152,1.44C552.062,1.44,551.987,1.44,551.927,1.44C551.867,1.44,551.792,1.44,551.702,1.44C551.612,1.44,551.537,1.44,551.477,1.44C547.937,1.44,544.712,0.765,541.802,-0.585C538.892,-1.935,536.927,-3.84,535.907,-6.3C535.907,-5.94,535.877,-5.175,535.817,-4.005C535.757,-2.835,535.577,-1.59,535.277,-0.27C535.277,-0.21,535.262,-0.15,535.232,-0.09C535.202,-0.03,535.187,0,535.187,0L528.797,0C529.157,-4.56,529.367,-7.935,529.427,-10.125C529.487,-12.315,529.517,-14.1,529.517,-15.48ZM563.537,-24.12C563.537,-25.02,563.462,-26.13,563.312,-27.45C563.162,-28.77,562.877,-30.09,562.457,-31.41C561.677,-33.99,560.342,-36.36,558.452,-38.52C556.562,-40.68,553.757,-41.76,550.037,-41.76C545.837,-41.76,542.312,-40.02,539.462,-36.54C536.612,-33.06,535.187,-28.65,535.187,-23.31C535.187,-17.67,536.582,-12.945,539.372,-9.135C542.162,-5.325,546.197,-3.42,551.477,-3.42C555.737,-3.42,558.812,-5.355,560.702,-9.225C562.592,-13.095,563.537,-18.03,563.537,-24.03ZM576.501,-65.16L582.171,-65.16L582.171,0L576.501,0ZM624.108,-15.57L630.497,-15.57C629.058,-9.51,626.628,-5.28,623.208,-2.88C619.788,-0.48,615.588,0.72,610.607,0.72C603.287,0.72,598.068,-1.41,594.948,-5.67C591.828,-9.93,590.028,-14.64,589.547,-19.8C589.488,-20.4,589.443,-20.985,589.413,-21.555C589.383,-22.125,589.367,-22.71,589.367,-23.31C589.367,-30.39,591.468,-36.18,595.668,-40.68C599.868,-45.18,604.638,-47.43,609.978,-47.43C617.058,-47.43,622.203,-45.12,625.413,-40.5C628.623,-35.88,630.348,-30.78,630.588,-25.2C630.588,-24.96,630.588,-24.735,630.588,-24.525C630.588,-24.315,630.588,-24.12,630.588,-23.94C630.588,-23.76,630.588,-23.58,630.588,-23.4C630.588,-23.22,630.588,-23.07,630.588,-22.95C630.528,-22.77,630.497,-22.59,630.497,-22.41C630.497,-22.23,630.497,-22.05,630.497,-21.87L595.758,-21.96C595.758,-21,595.832,-20.01,595.982,-18.99C596.133,-17.97,596.358,-16.92,596.658,-15.84C597.438,-12.9,598.878,-10.215,600.978,-7.785C603.078,-5.355,605.957,-4.14,609.617,-4.14C609.737,-4.14,609.827,-4.14,609.888,-4.14C609.948,-4.14,610.038,-4.14,610.158,-4.14C610.218,-4.14,610.293,-4.14,610.383,-4.14C610.473,-4.14,610.548,-4.14,610.607,-4.14C614.027,-4.38,616.653,-5.16,618.483,-6.48C620.313,-7.8,621.648,-9.21,622.487,-10.71C622.968,-11.61,623.328,-12.465,623.568,-13.275C623.807,-14.085,623.988,-14.82,624.108,-15.48ZM624.108,-26.91C624.108,-26.97,624.108,-27.045,624.108,-27.135C624.108,-27.225,624.138,-27.33,624.198,-27.45C624.198,-27.57,624.198,-27.675,624.198,-27.765C624.198,-27.855,624.198,-27.96,624.198,-28.08C624.198,-31.92,623.088,-34.965,620.867,-37.215C618.648,-39.465,616.188,-40.86,613.487,-41.4C613.008,-41.52,612.528,-41.61,612.047,-41.67C611.568,-41.73,611.088,-41.76,610.607,-41.76C609.707,-41.76,608.688,-41.685,607.547,-41.535C606.408,-41.385,605.238,-41.01,604.038,-40.41C602.418,-39.63,600.842,-38.205,599.312,-36.135C597.783,-34.065,596.598,-30.96,595.758,-26.82ZM640.581,-13.5C640.941,-10.26,642.336,-7.89,644.766,-6.39C647.196,-4.89,649.821,-4.14,652.641,-4.14C656.181,-4.14,659.196,-4.89,661.686,-6.39C664.176,-7.89,665.421,-10.23,665.421,-13.41C665.421,-16.35,664.116,-18.375,661.506,-19.485C658.896,-20.595,655.941,-21.54,652.641,-22.32C652.341,-22.38,652.041,-22.44,651.741,-22.5C651.441,-22.56,651.141,-22.62,650.841,-22.68C647.241,-23.52,643.926,-24.705,640.896,-26.235C637.866,-27.765,636.351,-30.57,636.351,-34.65C636.351,-37.83,637.656,-40.635,640.266,-43.065C642.876,-45.495,647.001,-46.71,652.641,-46.71C657.261,-46.71,661.281,-45.975,664.701,-44.505C668.121,-43.035,670.011,-39.99,670.371,-35.37L663.981,-35.46C663.621,-37.5,662.436,-39.165,660.426,-40.455C658.416,-41.745,655.821,-42.39,652.641,-42.39C649.461,-42.39,647.181,-41.895,645.801,-40.905C644.421,-39.915,643.521,-38.85,643.101,-37.71C642.981,-37.29,642.891,-36.885,642.831,-36.495C642.771,-36.105,642.741,-35.73,642.741,-35.37C642.741,-33.15,643.851,-31.545,646.071,-30.555C648.291,-29.565,650.871,-28.71,653.811,-27.99C654.411,-27.81,654.996,-27.66,655.566,-27.54C656.136,-27.42,656.721,-27.27,657.321,-27.09C660.921,-26.13,664.236,-24.78,667.266,-23.04C670.296,-21.3,671.811,-18.3,671.811,-14.04C671.811,-9.12,669.861,-5.31,665.961,-2.61C662.061,0.0900001,657.621,1.44,652.641,1.44C651.801,1.44,650.931,1.395,650.031,1.305C649.131,1.215,648.231,1.08,647.331,0.9C644.391,0.3,641.661,-1.08,639.141,-3.24C636.621,-5.4,635.211,-8.79,634.911,-13.41ZM679.732,-8.46L687.562,-8.46L687.562,0L679.732,0Z" transform="translate(958,510.391)"/>
    <path fill="#5f5f5f" stroke="none" d="M22.2,0L31.7,0L53.7,-50.2L43.3,-50.2L27.7,-10.4L11.7,-50.2L1.2,-50.2ZM55.4938,-33.8C55.4938,-21.4,57.6937,-14.7,59.9938,-10.1C62.9938,-4,69.2937,1.4,78.4938,1.4C81.5938,1.4,87.3938,0.7,92.2937,-3.9C98.5938,-9.8,101.894,-19,101.894,-35.4C101.894,-48.4,99.3938,-70.6,78.6937,-70.6C56.6937,-70.6,55.4938,-44.1,55.4938,-33.8ZM65.0938,-34.3C65.0938,-46.7,66.6937,-62.6,78.7937,-62.6C89.2937,-62.6,92.1938,-51.1,92.1938,-34.5C92.1938,-22.1,90.1937,-6.9,78.5938,-6.9C68.0938,-6.9,65.0938,-18.9,65.0938,-34.3ZM110.287,0L121.387,0L121.387,-12L110.287,-12ZM129.284,-17.8C129.384,-14.9,129.484,-9.9,133.384,-5.5C137.784,-0.4,145.084,1.7,152.384,1.7C168.484,1.7,176.384,-9,176.384,-18.7C176.384,-20.1,176.384,-33.4,161.584,-35.5C172.284,-37.9,175.384,-46.1,175.384,-51.8C175.384,-61.4,167.884,-70.5,152.784,-70.5C147.184,-70.5,130.984,-68.8,130.384,-51.6L140.484,-51.6C141.384,-60.2,147.884,-62.5,153.084,-62.5C159.984,-62.5,165.284,-59.4,165.284,-51.6C165.284,-40.4,153.684,-39,146.784,-39.6L146.784,-31.5C150.284,-31.6,152.784,-31.7,156.384,-31C161.484,-29.9,166.384,-26.1,166.384,-18.8C166.384,-12.7,162.284,-6.5,152.584,-6.5C144.084,-6.5,139.784,-11.2,139.884,-17.8Z" transform="translate(1547,185.046)"/>
    <path d="M0,0L967.5,0" stroke="#a3a3a3" fill="none" stroke-width="5" stroke-linecap="square" transform="translate(958,233.95)"/>
    <g transform="translate(445.238,450) translate(-367.4,-424.25)">
        <rect width="19.819" height="19.819" fill="#ff0000" stroke="none" opacity="0" transform="translate(382.162,509.75) translate(-5,-5)" style="animation: 15.2s linear infinite both a0_o;"/>
        <rect width="20" height="20" fill="#ff0000" stroke="none" opacity="0" transform="translate(442.162,649.75) translate(-5,-5)" style="animation: 15.2s linear infinite both a1_o;"/>
        <rect width="20" height="20" fill="#ff0000" stroke="none" opacity="0" transform="translate(462.162,649.75) translate(-5,-5)" style="animation: 15.2s linear infinite both a2_o;"/>
        <rect width="20" height="20" fill="#ff0000" stroke="none" opacity="0" transform="translate(402.162,749.75) translate(-5,-5)" style="animation: 15.2s linear infinite both a3_o;"/>
        <rect width="20" height="20" fill="#ff0000" stroke="none" opacity="0" transform="translate(362.162,789.954) translate(-5,-5)" style="animation: 15.2s linear infinite both a4_o;"/>
        <rect width="20" height="20" fill="#ff0000" stroke="none" opacity="0" transform="translate(322.162,789.954) translate(-5,-5)" style="animation: 15.2s linear infinite both a5_o;"/>
        <rect width="20" height="20" fill="#ff0000" stroke="none" opacity="0" transform="translate(362.4,709.75) translate(-5,-5)" style="animation: 15.2s linear infinite both a6_o;"/>
        <rect width="20" height="20" fill="#ff0000" stroke="none" opacity="0" transform="translate(402.162,589.75) translate(-5,-5)" style="animation: 15.2s linear infinite both a7_o;"/>
        <rect width="20" height="20" fill="#ff0000" stroke="none" opacity="0" transform="translate(242.162,549.75) translate(-5,-5)" style="animation: 15.2s linear infinite both a8_o;"/>
        <rect width="20" height="20" fill="#ff0000" stroke="none" opacity="0" transform="translate(422.162,769.75) translate(-5,-5)" style="animation: 15.2s linear infinite both a9_o;"/>
        <rect width="20" height="20" fill="#ff0000" stroke="none" opacity="0" transform="translate(462.162,769.75) translate(-5,-5)" style="animation: 15.2s linear infinite both a10_o;"/>
        <rect width="20" height="20" fill="#ff0000" stroke="none" opacity="0" transform="translate(482.162,649.75) translate(-5,-5)" style="animation: 15.2s linear infinite both a11_o;"/>
        <rect width="20" height="20" fill="#ff0000" stroke="none" opacity="0" transform="translate(642.347,409.75) translate(-5,-5)" style="animation: 15.2s linear infinite both a12_o;"/>
        <rect width="20" height="20" fill="#ff0000" stroke="none" opacity="0" transform="translate(602.162,409.75) translate(-5,-5)" style="animation: 15.2s linear infinite both a13_o;"/>
        <rect width="20" height="20" fill="#ff0000" stroke="none" opacity="0" transform="translate(622.162,369.75) translate(-5,-5)" style="animation: 15.2s linear infinite both a14_o;"/>
        <rect width="20" height="20" fill="#ff0000" stroke="none" opacity="0" transform="translate(642.162,389.75) translate(-5,-5)" style="animation: 15.2s linear infinite both a15_o;"/>
        <rect width="20" height="20" fill="#ff0000" stroke="none" opacity="0" transform="translate(662.162,289.75) translate(-5,-5)" style="animation: 15.2s linear infinite both a16_o;"/>
        <rect width="20" height="20" fill="#ff0000" stroke="none" opacity="0" transform="translate(462.162,249.75) translate(-5,-5)" style="animation: 15.2s linear infinite both a17_o;"/>
        <rect width="20" height="20" fill="#ff0000" stroke="none" opacity="0" transform="translate(502.162,209.75) translate(-5,-5)" style="animation: 15.2s linear infinite both a18_o;"/>
        <rect width="20" height="20" fill="#ff0000" stroke="none" opacity="0" transform="translate(542.162,149.75) translate(-5,-5)" style="animation: 15.2s linear infinite both a19_o;"/>
        <rect width="20" height="20" fill="#ff0000" stroke="none" opacity="0" transform="translate(582.162,149.75) translate(-5,-5)" style="animation: 15.2s linear infinite both a20_o;"/>
        <rect width="20" height="20" fill="#ff0000" stroke="none" opacity="0" transform="translate(642.162,249.75) translate(-5,-5)" style="animation: 15.2s linear infinite both a21_o;"/>
        <rect width="20" height="20" fill="#ff0000" stroke="none" opacity="0" transform="translate(522.162,249.75) translate(-5,-5)" style="animation: 15.2s linear infinite both a22_o;"/>
        <rect width="20" height="20" fill="#ff0000" stroke="none" opacity="0" transform="translate(622.162,209.75) translate(-5,-5)" style="animation: 15.2s linear infinite both a23_o;"/>
        <rect width="20" height="20" fill="#ff0000" stroke="none" opacity="0" transform="translate(702.162,369.75) translate(-5,-5)" style="animation: 15.2s linear infinite both a24_o;"/>
        <rect width="20" height="20" fill="#ff0000" stroke="none" opacity="0" transform="translate(322.162,289.75) translate(-5,-5)" style="animation: 15.2s linear infinite both a25_o;"/>
        <rect width="20" height="20" fill="#ff0000" stroke="none" opacity="0" transform="translate(362.4,389.75) translate(-5,-5)" style="animation: 15.2s linear infinite both a26_o;"/>
        <rect width="20" height="20" fill="#ff0000" stroke="none" opacity="0" transform="translate(322.162,329.75) translate(-5,-5)" style="animation: 15.2s linear infinite both a27_o;"/>
        <rect width="20" height="20" fill="#ff0000" stroke="none" opacity="0" transform="translate(402.162,389.75) translate(-5,-5)" style="animation: 15.2s linear infinite both a28_o;"/>
        <rect width="20" height="20" fill="#ff0000" stroke="none" opacity="0" transform="translate(542.162,369.75) translate(-5,-5)" style="animation: 15.2s linear infinite both a29_o;"/>
        <rect width="20" height="20" fill="#ff0000" stroke="none" opacity="0" transform="translate(242.162,369.75) translate(-5,-5)" style="animation: 15.2s linear infinite both a30_o;"/>
        <rect width="20" height="20" fill="#ff0000" stroke="none" opacity="0" transform="translate(142.162,309.75) translate(-5,-5)" style="animation: 15.2s linear infinite both a31_o;"/>
        <rect width="20" height="20" fill="#ff0000" stroke="none" opacity="0" transform="translate(162.162,429.75) translate(-5,-5)" style="animation: 15.2s linear infinite both a32_o;"/>
        <rect width="20" height="20" fill="#ff0000" stroke="none" opacity="0" transform="translate(102.162,309.75) translate(-5,-5)" style="animation: 15.2s linear infinite both a33_o;"/>
        <rect width="20" height="20" fill="#ff0000" stroke="none" opacity="0" transform="translate(82.1624,269.75) translate(-5,-5)" style="animation: 15.2s linear infinite both a34_o;"/>
        <rect width="20" height="20" fill="#ff0000" stroke="none" opacity="0" transform="translate(62.1624,229.75) translate(-5,-5)" style="animation: 15.2s linear infinite both a35_o;"/>
        <rect width="20" height="20" fill="#ff0000" stroke="none" opacity="0" transform="translate(82.1624,349.75) translate(-5,-5)" style="animation: 15.2s linear infinite both a36_o;"/>
        <rect width="20" height="20" fill="#ff0000" stroke="none" opacity="0" transform="translate(182.162,329.75) translate(-5,-5)" style="animation: 15.2s linear infinite both a37_o;"/>
        <rect width="20" height="20" fill="#ff0000" stroke="none" opacity="0" transform="translate(462.162,309.75) translate(-5,-5)" style="animation: 15.2s linear infinite both a38_o;"/>
        <rect width="20" height="20" fill="#ff0000" stroke="none" opacity="0" transform="translate(462.162,329.75) translate(-5,-5)" style="animation: 15.2s linear infinite both a39_o;"/>
        <rect width="20" height="20" fill="#ff0000" stroke="none" opacity="0" transform="translate(462.162,349.75) translate(-5,-5)" style="animation: 15.2s linear infinite both a40_o;"/>
        <rect width="20" height="20" fill="#ff0000" stroke="none" opacity="0" transform="translate(442.162,369.75) translate(-5,-5)" style="animation: 15.2s linear infinite both a41_o;"/>
        <rect width="19.819" height="19.819" fill="#ff0000" stroke="none" opacity="0" transform="translate(482.162,509.75) translate(-5,-5)" style="animation: 15.2s linear infinite both a42_o;"/>
        <rect width="20" height="20" fill="#ff0000" stroke="none" opacity="0" transform="translate(502.162,509.75) translate(-5,-5)" style="animation: 15.2s linear infinite both a43_o;"/>
        <rect width="20" height="20" fill="#ff0000" stroke="none" opacity="0" transform="translate(442.562,509.75) translate(-5,-5)" style="animation: 15.2s linear infinite both a44_o;"/>
        <rect width="20" height="20" fill="#ff0000" stroke="none" opacity="0" transform="translate(462.162,489.75) translate(-5,-5)" style="animation: 15.2s linear infinite both a45_o;"/>
        <rect width="19.618" height="19.618" fill="#ff0000" stroke="none" opacity="0" transform="translate(642.162,529.75) translate(-5,-5)" style="animation: 15.2s linear infinite both a46_o;"/>
        <rect width="19.618" height="19.618" fill="#ff0000" stroke="none" opacity="0" transform="translate(682.162,529.75) translate(-5,-5)" style="animation: 15.2s linear infinite both a47_o;"/>
        <rect width="20" height="20" fill="#ff0000" stroke="none" opacity="0" transform="translate(542.162,529.75) translate(-5,-5)" style="animation: 15.2s linear infinite both a48_o;"/>
        <rect width="20" height="20" fill="#ff0000" stroke="none" opacity="0" transform="translate(242.162,389.75) translate(-5,-5)" style="animation: 15.2s linear infinite both a49_o;"/>
        <rect width="20" height="20" fill="#ff0000" stroke="none" opacity="0" transform="translate(182.162,149.75) translate(-5,-5)" style="animation: 15.2s linear infinite both a50_o;"/>
        <rect width="20" height="20" fill="#ff0000" stroke="none" opacity="0" transform="translate(342.162,89.75) translate(-5,-5)" style="animation: 15.2s linear infinite both a51_o;"/>
        <rect width="20" height="20" fill="#ff0000" stroke="none" opacity="0" transform="translate(302.162,69.75) translate(-5,-5)" style="animation: 15.2s linear infinite both a52_o;"/>
        <rect width="20" height="20" fill="#ff0000" stroke="none" opacity="0" transform="translate(402.162,69.75) translate(-5,-5)" style="animation: 15.2s linear infinite both a53_o;"/>
        <rect width="20" height="20" fill="#ff0000" stroke="none" opacity="0" transform="translate(322.162,49.75) translate(-5,-5)" style="animation: 15.2s linear infinite both a54_o;"/>
        <rect width="20" height="20" fill="#ff0000" stroke="none" opacity="0" transform="translate(42.1624,209.75) translate(-5,-5)" style="animation: 15.2s linear infinite both a55_o;"/>
        <rect width="20" height="20" fill="#ff0000" stroke="none" opacity="0" transform="translate(182.162,209.75) translate(-5,-5)" style="animation: 15.2s linear infinite both a56_o;"/>
        <rect width="20" height="20" fill="#ff0000" stroke="none" opacity="0" transform="translate(202.162,189.75) translate(-5,-5)" style="animation: 15.2s linear infinite both a57_o;"/>
        <rect width="20" height="20" fill="#ff0000" stroke="none" opacity="0" transform="translate(122.162,209.75) translate(-5,-5)" style="animation: 15.2s linear infinite both a58_o;"/>
        <rect width="20" height="20" fill="#ff0000" stroke="none" opacity="0" transform="translate(282.162,229.75) translate(-5,-5)" style="animation: 15.2s linear infinite both a59_o;"/>
        <rect width="20" height="20" fill="#ff0000" stroke="none" opacity="0" transform="translate(382.162,129.75) translate(-5,-5)" style="animation: 15.2s linear infinite both a60_o;"/>
        <rect width="19.9895" height="19.9895" fill="#ff0000" stroke="none" opacity="0" transform="translate(362.172,149.75) translate(-5,-5)" style="animation: 15.2s linear infinite both a61_o;"/>
        <rect width="20" height="20" fill="#ff0000" stroke="none" opacity="0" transform="translate(442.162,149.75) translate(-5,-5)" style="animation: 15.2s linear infinite both a62_o;"/>
        <rect width="20" height="20" fill="#ff0000" stroke="none" opacity="0" transform="translate(402.162,189.75) translate(-5,-5)" style="animation: 15.2s linear infinite both a63_o;"/>
        <rect width="20" height="20" fill="#ff0000" stroke="none" opacity="0" transform="translate(522.162,329.75) translate(-5,-5)" style="animation: 15.2s linear infinite both a64_o;"/>
        <rect width="20" height="20" fill="#ff0000" stroke="none" opacity="0" transform="translate(62.1624,429.75) translate(-5,-5)" style="animation: 15.2s linear infinite both a65_o;"/>
        <rect width="20" height="20" fill="#ff0000" stroke="none" opacity="0" transform="translate(62.1624,549.75) translate(-5,-5)" style="animation: 15.2s linear infinite both a66_o;"/>
        <rect width="20" height="20" fill="#ff0000" stroke="none" opacity="0" transform="translate(82.1624,649.75) translate(-5,-5)" style="animation: 15.2s linear infinite both a67_o;"/>
        <rect width="17.599" height="17.599" fill="#ff0000" stroke="none" opacity="0" transform="translate(122.162,689.75) translate(-2.599,-5)" style="animation: 15.2s linear infinite both a68_o;"/>
        <rect width="20" height="20" fill="#ff0000" stroke="none" opacity="0" transform="translate(42.1624,569.75) translate(-5,-5)" style="animation: 15.2s linear infinite both a69_o;"/>
        <rect width="18" height="20" fill="#ff0000" stroke="none" opacity="0" transform="translate(24.1624,529.75) translate(-5,-5)" style="animation: 15.2s linear infinite both a70_o;"/>
        <rect width="20" height="20" fill="#ff0000" stroke="none" opacity="0" transform="translate(162.162,489.75) translate(-5,-5)" style="animation: 15.2s linear infinite both a71_o;"/>
        <rect width="20" height="20" fill="#ff0000" stroke="none" opacity="0" transform="translate(182.162,509.75) translate(-5,-5)" style="animation: 15.2s linear infinite both a72_o;"/>
        <rect width="20" height="20" fill="#ff0000" stroke="none" opacity="0" transform="translate(162.162,549.75) translate(-5,-5)" style="animation: 15.2s linear infinite both a73_o;"/>
        <rect width="20" height="20" fill="#ff0000" stroke="none" opacity="0" transform="translate(302.162,689.75) translate(-5,-5)" style="animation: 15.2s linear infinite both a74_o;"/>
        <rect width="20" height="20" fill="#ff0000" stroke="none" opacity="0" transform="translate(322.162,669.75) translate(-5,-5)" style="animation: 15.2s linear infinite both a75_o;"/>
        <rect width="19.432" height="19.432" fill="#ff0000" stroke="none" opacity="0" transform="translate(342.162,690.318) translate(-5,-5)" style="animation: 15.2s linear infinite both a76_o;"/>
        <rect width="20" height="20" fill="#ff0000" stroke="none" opacity="0" transform="translate(322.162,689.75) translate(-5,-5)" style="animation: 15.2s linear infinite both a77_o;"/>
        <rect width="19.535" height="19.535" fill="#ff0000" stroke="none" opacity="0" transform="translate(282.162,709.75) translate(-5,-5)" style="animation: 15.2s linear infinite both a78_o;"/>
        <rect width="20" height="20" fill="#ff0000" stroke="none" opacity="0" transform="translate(262.162,689.75) translate(-5,-5)" style="animation: 15.2s linear infinite both a79_o;"/>
        <rect width="20" height="20" fill="#ff0000" stroke="none" opacity="0" transform="translate(202.162,629.75) translate(-5,-5)" style="animation: 15.2s linear infinite both a80_o;"/>
        <rect width="20" height="20" fill="#ff0000" stroke="none" opacity="0" transform="translate(182.162,629.75) translate(-5,-5)" style="animation: 15.2s linear infinite both a81_o;"/>
        <rect width="19.535" height="19.535" fill="#ff0000" stroke="none" opacity="0" transform="translate(182.162,709.75) translate(-5,-5)" style="animation: 15.2s linear infinite both a82_o;"/>
        <rect width="20" height="20" fill="#ff0000" stroke="none" opacity="0" transform="translate(282.162,629.75) translate(-5,-5)" style="animation: 15.2s linear infinite both a83_o;"/>
        <rect width="20" height="20" fill="#ff0000" stroke="none" opacity="0" transform="translate(24.1624,369.75) translate(-7,-5)" style="animation: 15.2s linear infinite both a84_o;"/>
        <rect width="20" height="20" fill="#ff0000" stroke="none" opacity="0" transform="translate(282.162,489.75) translate(-5,-5)" style="animation: 15.2s linear infinite both a85_o;"/>
        <rect width="20" height="20" fill="#ff0000" stroke="none" opacity="0" transform="translate(262.162,469.75) translate(-5,-5)" style="animation: 15.2s linear infinite both a86_o;"/>
        <rect width="19.618" height="19.618" fill="#ff0000" stroke="none" opacity="0" transform="translate(502.162,589.75) translate(-5,-5)" style="animation: 15.2s linear infinite both a87_o;"/>
        <rect width="19.618" height="19.618" fill="#ff0000" stroke="none" opacity="0" transform="translate(642.162,589.75) translate(-5,-5)" style="animation: 15.2s linear infinite both a88_o;"/>
        <rect width="20" height="20" fill="#ff0000" stroke="none" opacity="0" transform="translate(602.162,609.75) translate(-5,-5)" style="animation: 15.2s linear infinite both a89_o;"/>
        <rect width="20" height="20" fill="#ff0000" stroke="none" opacity="0" transform="translate(562.162,609.75) translate(-5,-5)" style="animation: 15.2s linear infinite both a90_o;"/>
        <rect width="19.618" height="19.618" fill="#ff0000" stroke="none" opacity="0" transform="translate(682.544,589.75) translate(-5,-5)" style="animation: 15.2s linear infinite both a91_o;"/>
        <rect width="18.298" height="20" fill="#ff0000" stroke="none" opacity="0" transform="translate(702.162,589.75) translate(-5,-5)" style="animation: 15.2s linear infinite both a92_o;"/>
        <g transform="translate(367.4,424.25) translate(-367.4,-424.25)">
            <rect id="sweeper-4" width="30" height="10.1961" fill="url(#Gradient-0)" stroke="none" transform="translate(367.162,18.75) translate(-15,-5)" style="animation: 15.2s linear infinite both sweeper-4_t, 15.2s linear infinite both sweeper-4_w;"/>
            <rect id="sweeper-3" width="30" height="2.80392" fill="#00e200" stroke="none" style="transform: translate(-15px,-5px); animation: 15.2s linear infinite both sweeper-3_t, 15.2s linear infinite both sweeper-3_w, 15.2s linear infinite both sweeper-3_mo; offset-path: path('M367.162,22.75C367.162,89.1083,367.162,161.99,367.162,228.348C364.385,364.875,361.276,500.87,358.162,637.389C360.914,705.696,363.785,774.99,367.162,843.268L367.162,843.268'); offset-rotate: 0deg;"/>
            <g id="pointblank" stroke="none" stroke-width="1" fill="none" fill-rule="evenodd" transform="translate(-0.837612,-0.25)">
                <g>
                    <g id="vertical" stroke="#4A4A4A" stroke-linecap="square" transform="translate(12,9)">
                        <path id="v_070" d="M691,190.466L691,640.534" transform="translate(-5,0)"/>
                        <path id="v_068" d="M671,179.4L671,652.507" transform="translate(-5,0)"/>
                        <path id="v_066" d="M651,168.422L651,664.633" transform="translate(-5,0)"/>
                        <path id="v_064" d="M631,155.336L631,675.5" transform="translate(-5,0)"/>
                        <path id="v_062" d="M611,144.544L611,687.567" transform="translate(-5,0)"/>
                        <path id="v_060" d="M591,132.946L591,698.537" transform="translate(-5,0)"/>
                        <path id="v_058" d="M571,121.004L571,710.633" transform="translate(-5,0)"/>
                        <path id="v_056" d="M551,110.077L551,721.649" transform="translate(-5,0)"/>
                        <path id="v_054" d="M531,97.8903L531,732.533" transform="translate(-5,0)"/>
                        <path id="v_052" d="M511,87.0349L511,744.994" transform="translate(-5,0)"/>
                        <path id="v_050" d="M491,75.7687L491,755.326" transform="translate(-5,0)"/>
                        <path id="v_048" d="M471,63.8335L471,767" transform="translate(-5,0)"/>
                        <path id="v_046" d="M451,52.2847L451,779.5" transform="translate(-5,0)"/>
                        <path id="v_044" d="M431,40.2968L431,791.204" transform="translate(-5,0)"/>
                        <path id="v_042" d="M411,29.5105L411,803.142" transform="translate(-5,0)"/>
                        <path id="v_040" d="M391,17.2921L391,814.01" transform="translate(-5,0)"/>
                        <path id="v_038" d="M371,7.01919L371,826.504" transform="translate(-5,0)"/>
                        <path id="v_036" d="M351,0.984109L351,831.554" transform="translate(-5,0)"/>
                        <path id="v_034" d="M331,11.4424L331,819.519" transform="translate(-5,0)"/>
                        <path id="v_032" d="M311,23.3992L311,808.527" transform="translate(-5,0)"/>
                        <path id="v_030" d="M291,35.5223L291,796.547" transform="translate(-5,0)"/>
                        <path id="v_028" d="M271,46.0282L271,785.731" transform="translate(-5,0)"/>
                        <path id="v_026" d="M251,57.6931L251,774.504" transform="translate(-5,0)"/>
                        <path id="v_024" d="M231,70.1255L231,762.721" transform="translate(-5,0)"/>
                        <path id="v_022" d="M211,81.2216L211,750.845" transform="translate(-5,0)"/>
                        <path id="v_020" d="M191,92.5786L191,739.533" transform="translate(-5,0)"/>
                        <path id="v_018" d="M171,103.301L171,727.505" transform="translate(-5,0)"/>
                        <path id="v_016" d="M151,115.393L151,715.535" transform="translate(-5,0)"/>
                        <path id="v_014" d="M131,127.444L131,704.511" transform="translate(-5,0)"/>
                        <path id="v_012" d="M111,139.5L111,693.599" transform="translate(-5,0)"/>
                        <path id="v_010" d="M91,150.498L91,681.568" transform="translate(-5,0)"/>
                        <path id="v_008" d="M71,162.498L71,669.506" transform="translate(-5,0)"/>
                        <path id="v_006" d="M51,174.329L51,658.513" transform="translate(-5,0)"/>
                        <path id="v_004" d="M31,187.452L31,647.522" transform="translate(-5,0)"/>
                    </g>
                    <g id="horizontal" stroke="#4A4A4A" stroke-linecap="square" transform="translate(4,14)">
                        <path id="h_083" d="M363.5,505.993L363.5,917.015" transform="translate(364,711.5) rotate(-270) translate(-364,-711.5)"/>
                        <path id="h_081" d="M363.5,559.992L363.5,903.03" transform="translate(364,731.5) rotate(-270) translate(-364,-731.5)"/>
                        <path id="h_079" d="M363.5,614.982L363.5,888.103" transform="translate(364,751.5) rotate(-270) translate(-364,-751.5)"/>
                        <path id="h_077" d="M362.5,668.968L362.5,874.03" transform="translate(363,771.5) rotate(-270) translate(-363,-771.5)"/>
                        <path id="h_075" d="M363.5,723.978L363.5,859.023" transform="translate(364,791.5) rotate(-270) translate(-364,-791.5)"/>
                        <path id="h_072" d="M363.5,806.986L363.5,836.719" transform="translate(364,810.5) rotate(-270) translate(-364,-821.5)"/>
                        <path id="h_070" d="M363,451.487L363,931.5" transform="translate(363.5,691.5) rotate(-270) translate(-363.5,-691.5)"/>
                        <path id="h_068" d="M363.5,396.97L363.5,946.018" transform="translate(364,671.5) rotate(-270) translate(-364,-671.5)"/>
                        <path id="h_066" d="M363.5,342.881L363.5,960.01" transform="translate(364,651.5) rotate(-270) translate(-364,-651.5)"/>
                        <path id="h_064" d="M363.5,287.953L363.5,975.08" transform="translate(364,631.5) rotate(-270) translate(-364,-631.5)"/>
                        <path id="h_062" d="M363.5,248.834L363.5,974.014" transform="translate(364,611.5) rotate(-270) translate(-364,-611.5)"/>
                        <path id="h_060" d="M363.5,229L363.5,954.039" transform="translate(364,591.5) rotate(-270) translate(-364,-591.5)"/>
                        <path id="h_058" d="M363.5,208.945L363.5,934.05" transform="translate(364,571.5) rotate(-270) translate(-364,-571.5)"/>
                        <path id="h_056" d="M363.5,188.991L363.5,914.039" transform="translate(364,551.5) rotate(-270) translate(-364,-551.5)"/>
                        <path id="h_054" d="M363.5,168.991L363.5,894.039" transform="translate(364,531.5) rotate(-270) translate(-364,-531.5)"/>
                        <path id="h_052" d="M363.5,148.978L363.5,874.039" transform="translate(364,511.5) rotate(-270) translate(-364,-511.5)"/>
                        <path id="h_050" d="M363.5,128.97L363.5,854.039" transform="translate(364,491.5) rotate(-270) translate(-364,-491.5)"/>
                        <path id="h_048" d="M363.5,108.986L363.5,834.014" transform="translate(364,471.5) rotate(-270) translate(-364,-471.5)"/>
                        <path id="h_046" d="M363.5,88.9916L363.5,814.002" transform="translate(364,451.5) rotate(-270) translate(-364,-451.5)"/>
                        <path id="h_044" d="M363.5,68.9795L363.5,794.021" transform="translate(364,431.5) rotate(-270) translate(-364,-431.5)"/>
                        <path id="h_042" d="M363.5,48.9958L363.5,620.061L363.5,774.108" transform="translate(364,411.5) rotate(-270) translate(-364,-411.5)"/>
                        <path id="h_040" d="M363.5,28.9919L363.5,754.108" transform="translate(364,391.5) rotate(-270) translate(-364,-391.5)"/>
                        <path id="h_038" d="M363.5,8.95324L363.5,734.145" transform="translate(364,371.5) rotate(-270) translate(-364,-371.5)"/>
                        <path id="h_036" d="M363.5,-11.0465L363.5,714.108" transform="translate(364,351.5) rotate(-270) translate(-364,-351.5)"/>
                        <path id="h_034" d="M363.5,-31.0276L363.5,694.039" transform="translate(364,331.5) rotate(-270) translate(-364,-331.5)"/>
                        <path id="h_032" d="M363.5,-51.0134L363.5,674.039" transform="translate(364,311.5) rotate(-270) translate(-364,-311.5)"/>
                        <path id="h_030" d="M363.5,-71.0002L363.5,654.008" transform="translate(364,291.5) rotate(-270) translate(-364,-291.5)"/>
                        <path id="h_028" d="M363,-90.5084L363,633.521" transform="translate(363.5,271.5) rotate(-270) translate(-363.5,-271.5)"/>
                        <path id="h_026" d="M363,-110.509L363,613.504" transform="translate(363.5,251.5) rotate(-270) translate(-363.5,-251.5)"/>
                        <path id="h_024" d="M363,-130.54L363,593.529" transform="translate(363.5,231.5) rotate(-270) translate(-363.5,-231.5)"/>
                        <path id="h_022" d="M363,-150.673L363,573.529" transform="translate(363.5,211.5) rotate(-270) translate(-363.5,-211.5)"/>
                        <path id="h_020" d="M364,-150.583L364,533.505" transform="translate(364.5,191.5) rotate(-270) translate(-364.5,-191.5)"/>
                        <path id="h_018" d="M364.5,-138.024L364.5,481.002" transform="translate(365,171.5) rotate(-270) translate(-365,-171.5)"/>
                        <path id="h_016" d="M363.5,-123.063L363.5,426.066" transform="translate(364,151.5) rotate(-270) translate(-364,-151.5)"/>
                        <path id="h_014" d="M361,-106.529L361,369.616" transform="translate(361.5,131.5) rotate(-270) translate(-361.5,-131.5)"/>
                        <path id="h_012" d="M363.5,-94.137L363.5,317.088" transform="translate(364,111.5) rotate(-270) translate(-364,-111.5)"/>
                        <path id="h_010" d="M363,-80.0808L363,262.661" transform="translate(363.5,91.5) rotate(-270) translate(-363.5,-91.5)"/>
                        <path id="h_008" d="M363,-63.539L363,206.537" transform="translate(363.5,71.5) rotate(-270) translate(-363.5,-71.5)"/>
                        <path id="h_006" d="M363,-49.728L363,152.515" transform="translate(363.5,51.5) rotate(-270) translate(-363.5,-51.5)"/>
                        <path id="h_004" d="M363,-34.9048L363,97.9985" transform="translate(363.5,31.5) rotate(-270) translate(-363.5,-31.5)"/>
                        <path id="h_002" d="M362.5,-19.3141L362.5,42.002" transform="translate(363,11.5) rotate(-270) translate(-363,-11.5)"/>
                    </g>
                    <path id="hex_outline" d="M706.338,195.45L735.638,212.35L735.638,636.65L706.338,653.55L425.138,815.95L368.238,848.75L311.338,815.95L30.1376,653.55L0.837612,636.65L0.837612,212.35L30.1376,195.45L307.938,35.05L368.238,0.25L428.538,35.05L706.338,195.45ZM716.434,626.581L716.434,224.419L368.238,23.3899L20.0409,224.419L20.0409,626.581L368.238,827.61L716.434,626.581Z" fill="#000000"/>
                </g>
            </g>
            <rect width="348.35" height="71" stroke="none" fill="#ffffff" stroke-linecap="square" opacity="0.5" transform="translate(532.162,454.75) translate(-165.052,-36)"/>
            <path fill="#000000" stroke="none" d="M-55.1953,21.4241L-55.1953,-31.6485L-49.2706,-31.6485L-49.2706,-26.6627C-47.8727,-28.6138,-46.2958,-30.077,-44.5376,-31.0524C-42.7794,-32.0279,-40.6476,-32.5156,-38.1427,-32.5156C-34.867,-32.5156,-31.9767,-31.6726,-29.4719,-29.9867C-26.9669,-28.3007,-25.0763,-25.9222,-23.7999,-22.8513C-22.5231,-19.7804,-21.885,-16.4144,-21.885,-12.7534C-21.885,-8.82736,-22.5894,-5.29286,-23.9985,-2.14969C-25.4075,0.993504,-27.4546,3.40207,-30.1402,5.07602C-32.8258,6.74991,-35.6498,7.5869,-38.6124,7.5869C-40.7797,7.5869,-42.7248,7.12934,-44.447,6.21407C-46.1693,5.2988,-47.5843,4.14266,-48.6923,2.74573L-48.6923,21.4241ZM-49.3065,-12.2476C-49.3065,-7.31002,-48.3072,-3.66106,-46.3081,-1.30065C-44.3084,1.05973,-41.8877,2.23993,-39.0459,2.23993C-36.1557,2.23993,-33.6808,1.01758,-31.6216,-1.42712C-29.5622,-3.8718,-28.5326,-7.65925,-28.5326,-12.7894C-28.5326,-17.6789,-29.5381,-21.3398,-31.5493,-23.7725C-33.5604,-26.2052,-35.963,-27.4215,-38.7569,-27.4215C-41.5271,-27.4215,-43.9772,-26.1269,-46.109,-23.5377C-48.2406,-20.9485,-49.3065,-17.1851,-49.3065,-12.2476ZM-16.4536,-12.4643C-16.4536,-19.5696,-14.4786,-24.8324,-10.5285,-28.2525C-7.22883,-31.0945,-3.20653,-32.5156,1.53843,-32.5156C6.8131,-32.5156,11.1245,-30.7874,14.4724,-27.3311C17.8201,-23.875,19.4942,-19.0999,19.4942,-13.0063C19.4942,-8.06873,18.7536,-4.18492,17.2724,-1.35484C15.791,1.47521,13.6354,3.67303,10.8054,5.23865C7.9752,6.80415,4.88623,7.5869,1.53843,7.5869C-3.83265,7.5869,-8.17414,5.86483,-11.486,2.42058C-14.7977,-1.02368,-16.4536,-5.98532,-16.4536,-12.4643ZM-9.76991,-12.4643C-9.76991,-7.55088,-8.69807,-3.8718,-6.55433,-1.42712C-4.41074,1.01758,-1.71317,2.23993,1.53843,2.23993C4.76585,2.23993,7.45142,1.01156,9.59502,-1.44518C11.7386,-3.9019,12.8104,-7.64722,12.8104,-12.6811C12.8104,-17.426,11.7325,-21.0208,9.57696,-23.4654C7.42138,-25.9102,4.7418,-27.1324,1.53843,-27.1324C-1.71317,-27.1324,-4.41074,-25.9162,-6.55433,-23.4836C-8.69807,-21.0509,-9.76991,-17.3778,-9.76991,-12.4643ZM27.1656,-38.7659L27.1656,-46.2445L33.6686,-46.2445L33.6686,-38.7659ZM27.1656,6.7198L27.1656,-31.6485L33.6686,-31.6485L33.6686,6.7198ZM43.5799,6.7198L43.5799,-31.6485L49.4327,-31.6485L49.4327,-26.1932C52.2507,-30.4081,56.3211,-32.5156,61.644,-32.5156C63.9562,-32.5156,66.0818,-32.1002,68.0208,-31.2692C69.9597,-30.4383,71.4108,-29.3484,72.3743,-27.9995C73.3377,-26.6507,74.0121,-25.0492,74.3975,-23.1944C74.6383,-21.9903,74.7587,-19.8827,74.7587,-16.872L74.7587,6.7198L68.2556,6.7198L68.2556,-16.6191C68.2556,-19.2686,68.0026,-21.2495,67.4969,-22.5622C66.9911,-23.875,66.0939,-24.9226,64.8053,-25.7055C63.5168,-26.4883,62.0053,-26.8797,60.2711,-26.8797C57.5013,-26.8797,55.1109,-26.0006,53.0997,-24.2421C51.0886,-22.4839,50.083,-19.148,50.083,-14.2347L50.083,6.7198ZM98.9403,0.903175L99.8806,6.64758C98.0493,7.03293,96.4123,7.22568,94.9663,7.22568C92.6062,7.22568,90.7756,6.85232,89.475,6.10567C88.1744,5.35903,87.2591,4.37754,86.7293,3.1612C86.1993,1.94487,85.9345,-0.614217,85.9345,-4.51609L85.9345,-26.5906L81.1655,-26.5906L81.1655,-31.6485L85.9345,-31.6485L85.9345,-41.1504L92.4014,-45.0521L92.4014,-31.6485L98.9403,-31.6485L98.9403,-26.5906L92.4014,-26.5906L92.4014,-4.15481C92.4014,-2.30021,92.5158,-1.10797,92.7446,-0.578095C92.9735,-0.0482006,93.3467,0.373289,93.8646,0.686411C94.3821,0.999519,95.1236,1.15607,96.087,1.15607C96.8084,1.15607,97.761,1.07178,98.9403,0.903175ZM111.309,6.7198L105.276,6.7198L105.276,-46.2445L111.777,-46.2445L111.777,-27.3493C114.524,-30.7935,118.029,-32.5156,122.292,-32.5156C124.652,-32.5156,126.886,-32.0399,128.993,-31.0885C131.102,-30.1373,132.836,-28.8005,134.195,-27.0783C135.557,-25.3562,136.623,-23.2787,137.394,-20.8461C138.165,-18.4135,138.55,-15.8123,138.55,-13.0425C138.55,-6.46703,136.924,-1.38495,133.673,2.2038C130.42,5.79262,126.519,7.5869,121.967,7.5869C117.438,7.5869,113.887,5.69621,111.309,1.91477ZM111.236,-12.7534C111.236,-8.15302,111.863,-4.82921,113.116,-2.78192C115.163,0.565976,117.933,2.23993,121.424,2.23993C124.266,2.23993,126.724,1.00554,128.794,-1.46323C130.865,-3.93202,131.901,-7.6111,131.901,-12.5006C131.901,-17.5104,130.91,-21.2075,128.921,-23.5919C126.934,-25.9764,124.532,-27.1687,121.714,-27.1687C118.871,-27.1687,116.415,-25.9342,114.343,-23.4654C112.272,-20.9967,111.236,-17.426,111.236,-12.7534ZM146.329,6.7198L146.329,-46.2445L152.832,-46.2445L152.832,6.7198ZM187.961,1.98703C185.553,4.03431,183.234,5.47949,181.007,6.32239C178.778,7.16545,176.387,7.5869,173.835,7.5869C169.62,7.5869,166.38,6.55732,164.117,4.498C161.853,2.43864,160.72,-0.192727,160.72,-3.39611C160.72,-5.27478,161.148,-6.99089,162.002,-8.54441C162.858,-10.098,163.978,-11.3444,165.363,-12.2837C166.748,-13.2231,168.307,-13.9335,170.041,-14.4152C171.318,-14.7525,173.244,-15.0776,175.822,-15.3908C181.073,-16.017,184.938,-16.7637,187.42,-17.6308C187.443,-18.5219,187.455,-19.088,187.455,-19.3287C187.455,-21.9782,186.841,-23.8448,185.613,-24.9286C183.951,-26.3979,181.482,-27.1324,178.206,-27.1324C175.148,-27.1324,172.89,-26.5966,171.433,-25.5248C169.975,-24.453,168.897,-22.5563,168.199,-19.8346L161.84,-20.7017C162.418,-23.4233,163.369,-25.6211,164.694,-27.2951C166.02,-28.9689,167.934,-30.2576,170.439,-31.1608C172.944,-32.0641,175.846,-32.5156,179.147,-32.5156C182.42,-32.5156,185.083,-32.1302,187.13,-31.3595C189.176,-30.5887,190.684,-29.6193,191.646,-28.4512C192.61,-27.2831,193.284,-25.8078,193.669,-24.0255C193.887,-22.9175,193.994,-20.9184,193.994,-18.0281L193.994,-9.35732C193.994,-3.31181,194.133,0.511793,194.411,2.11348C194.688,3.71514,195.235,5.25063,196.053,6.7198L189.261,6.7198C188.587,5.37102,188.153,3.79346,187.961,1.98703ZM187.42,-12.5367C185.058,-11.5732,181.519,-10.7542,176.797,-10.0798C174.124,-9.69444,172.234,-9.26098,171.125,-8.77927C170.018,-8.29754,169.162,-7.59304,168.559,-6.66573C167.959,-5.73843,167.657,-4.70877,167.657,-3.57676C167.657,-1.84259,168.313,-0.397453,169.627,0.758656C170.938,1.91477,172.859,2.49282,175.388,2.49282C177.893,2.49282,180.12,1.94487,182.072,0.848992C184.024,-0.246911,185.456,-1.74624,186.372,-3.64901C187.07,-5.11823,187.42,-7.28595,187.42,-10.1521ZM204.087,6.7198L204.087,-31.6485L209.939,-31.6485L209.939,-26.1932C212.757,-30.4081,216.828,-32.5156,222.151,-32.5156C224.463,-32.5156,226.589,-32.1002,228.527,-31.2692C230.465,-30.4383,231.917,-29.3484,232.881,-27.9995C233.845,-26.6507,234.518,-25.0492,234.904,-23.1944C235.146,-21.9903,235.266,-19.8827,235.266,-16.872L235.266,6.7198L228.763,6.7198L228.763,-16.6191C228.763,-19.2686,228.509,-21.2495,228.004,-22.5622C227.498,-23.875,226.601,-24.9226,225.312,-25.7055C224.024,-26.4883,222.511,-26.8797,220.778,-26.8797C218.007,-26.8797,215.618,-26.0006,213.606,-24.2421C211.595,-22.4839,210.59,-19.148,210.59,-14.2347L210.59,6.7198ZM245.285,6.7198L245.285,-46.2445L251.787,-46.2445L251.787,-16.041L267.179,-31.6485L275.597,-31.6485L260.928,-17.4138L277.078,6.7198L269.058,6.7198L256.377,-12.8979L251.787,-8.49022L251.787,6.7198Z" transform="translate(431.757,468.264)"/>
        </g>
    </g>
</svg>
